<?xml version="1.0" encoding="UTF-8"?>
<svg version="1.1" xmlns="http://www.w3.org/2000/svg" width="512" height="512">
<path d="M0 0 C1.12298744 -0.01007584 1.12298744 -0.01007584 2.2686615 -0.02035522 C4.73540955 -0.03930033 7.20188496 -0.04325778 9.66870117 -0.04541016 C11.39117035 -0.05184105 13.11363844 -0.05856963 14.83610535 -0.06558228 C18.4447991 -0.0775467 22.05339719 -0.08126401 25.66210938 -0.08007812 C30.27211697 -0.07987511 34.88150691 -0.10716288 39.49136829 -0.14162254 C43.04915651 -0.1639303 46.60679708 -0.16791447 50.16464806 -0.16685867 C51.8634116 -0.16920935 53.56217953 -0.17800268 55.26087379 -0.19352341 C73.11348344 -0.34135471 73.11348344 -0.34135471 80.64135742 6.25537109 C81.18018555 6.90634766 81.71901367 7.55732422 82.27416992 8.22802734 C82.8284668 8.87642578 83.38276367 9.52482422 83.95385742 10.19287109 C87.29960272 15.04872305 87.66801815 19.32143496 87.52416992 25.10302734 C87.51514648 25.79589844 87.50612305 26.48876953 87.49682617 27.20263672 C87.47343149 28.8987513 87.43756633 30.59468605 87.39916992 32.29052734 C88.47166992 32.33177734 89.54416992 32.37302734 90.64916992 32.41552734 C100.82490885 33.76152456 108.31307979 39.7955014 115.51635742 46.64990234 C137.64413508 66.91870681 167.23029696 78.34057294 197.24291992 77.16552734 C225.12008616 75.3292724 250.35085483 62.50940341 270.46166992 43.54052734 C277.56536194 37.02592198 285.67845233 32.6644011 295.39916992 32.29052734 C295.35276367 31.30052734 295.30635742 30.31052734 295.25854492 29.29052734 C294.77834522 14.9281909 294.77834522 14.9281909 299.39916992 9.29052734 C304.28245873 4.17275912 308.65059036 0.5762424 315.90779114 0.02310181 C317.27176563 0.00524672 318.63590979 -0.00176925 320 0 C321.12298744 -0.01007584 321.12298744 -0.01007584 322.2686615 -0.02035522 C324.73540955 -0.03930033 327.20188496 -0.04325778 329.66870117 -0.04541016 C331.39117035 -0.05184105 333.11363844 -0.05856963 334.83610535 -0.06558228 C338.4447991 -0.0775467 342.05339719 -0.08126401 345.66210938 -0.08007812 C350.27211697 -0.07987511 354.88150691 -0.10716288 359.49136829 -0.14162254 C363.04915651 -0.1639303 366.60679708 -0.16791447 370.16464806 -0.16685867 C371.8634116 -0.16920935 373.56217953 -0.17800268 375.26087379 -0.19352341 C393.11348344 -0.34135471 393.11348344 -0.34135471 400.64135742 6.25537109 C401.18018555 6.90634766 401.71901367 7.55732422 402.27416992 8.22802734 C402.8284668 8.87642578 403.38276367 9.52482422 403.95385742 10.19287109 C407.4031004 15.19893455 407.66250789 19.64917413 407.52416992 25.60302734 C407.51514648 26.34359375 407.50612305 27.08416016 407.49682617 27.84716797 C407.47341206 29.66176202 407.43754608 31.47618806 407.39916992 33.29052734 C408.28604492 33.39365234 409.17291992 33.49677734 410.08666992 33.60302734 C417.20207194 35.0798089 422.83186966 39.96142329 426.89916992 45.85302734 C430.97880416 52.31640136 431.69748418 58.24272265 431.68969727 65.70141602 C431.69641449 66.6307193 431.70313171 67.56002258 431.71005249 68.51748657 C431.72900561 71.58121126 431.73295571 74.64471646 431.73510742 77.70849609 C431.74153849 79.84833362 431.74826708 81.98817028 431.75527954 84.12800598 C431.76724653 88.61262041 431.77096108 93.09715785 431.76977539 97.58178711 C431.76957253 103.30681897 431.79684325 109.03135259 431.83131981 114.75626659 C431.85364534 119.17715181 431.85761115 123.59791834 431.85655594 128.01885414 C431.85890459 130.12821477 431.8676863 132.23757904 431.88322067 134.34688377 C431.98471865 149.55567486 431.43458575 161.73065611 420.39916992 173.29052734 C409.46386685 183.72971081 397.71323882 184.88279814 383.28149414 184.79846191 C381.55566826 184.8030766 379.82984631 184.80943331 378.10403252 184.81737089 C373.38415624 184.83400944 368.66460507 184.82584282 363.9447279 184.81342602 C358.84580005 184.80435538 353.74692711 184.81835524 348.64801025 184.8293457 C338.66813853 184.84711401 328.68838728 184.84329844 318.70851088 184.83169514 C310.59625226 184.82265446 302.48402735 184.82143957 294.37176514 184.82579041 C293.21633048 184.82640334 292.06089582 184.82701627 290.87044799 184.82764778 C288.5230619 184.8289267 286.17567582 184.83022356 283.82828975 184.83153814 C261.82690011 184.842939 239.82557718 184.82983797 217.82419848 184.80833668 C198.95397327 184.79046616 180.08384649 184.79357041 161.21362305 184.81201172 C139.28991386 184.83342714 117.36626312 184.84184041 95.44254494 184.82956266 C93.1038882 184.82828849 90.76523146 184.82703101 88.42657471 184.82579041 C86.70066662 184.82486475 86.70066662 184.82486475 84.9398917 184.8239204 C76.83920631 184.82046952 68.73855805 184.8262902 60.63787842 184.83570862 C50.76322744 184.84693742 40.88870362 184.84386994 31.01406717 184.82258564 C25.97774414 184.81208718 20.94163296 184.80793296 15.90531158 184.82118225 C11.29130569 184.83313678 6.67770725 184.8264932 2.06373811 184.80527204 C0.3983412 184.80081894 -1.26709041 184.80304308 -2.93246484 184.81277519 C-16.5300328 184.88611593 -27.42007907 183.00939173 -37.60083008 173.29052734 C-49.41326446 160.91670994 -49.20408875 147.46463126 -49.13208008 131.31396484 C-49.13477896 129.17648136 -49.13866468 127.03899908 -49.14367676 124.90151978 C-49.14955056 120.43829573 -49.14107555 115.97539346 -49.12231445 111.51220703 C-49.09949868 105.80836641 -49.11267849 100.10527771 -49.13660431 94.40146446 C-49.1510959 89.99350371 -49.14644132 85.58571968 -49.13609314 81.17775345 C-49.13343659 79.07512954 -49.13665762 76.97248927 -49.14601135 74.86988449 C-49.15623548 71.9268244 -49.14059513 68.98496355 -49.1184082 66.04199219 C-49.12650513 65.18460953 -49.13460205 64.32722687 -49.14294434 63.44386292 C-49.02335889 54.82799853 -45.55582424 46.59139237 -39.60083008 40.29052734 C-34.77311988 36.33001694 -30.86258306 34.06536297 -24.60083008 33.29052734 C-24.64723633 32.22833984 -24.69364258 31.16615234 -24.74145508 30.07177734 C-25.21794321 14.80791323 -25.21794321 14.80791323 -20.60083008 9.29052734 C-14.31225921 2.71312859 -9.19040849 -0.01192011 0 0 Z M-6.60083008 19.29052734 C-9.38143189 23.71421205 -8.60083008 26.65177366 -8.60083008 32.29052734 C17.79916992 32.29052734 44.19916992 32.29052734 71.39916992 32.29052734 C71.65230237 24.48334824 71.65230237 24.48334824 68.39916992 18.29052734 C64.56745901 16.30792391 61.3285414 16.03365724 57.05175781 16.01586914 C55.79017349 16.00633713 54.52858917 15.99680511 53.22877502 15.98698425 C51.85979179 15.9872457 50.49080854 15.98818284 49.12182617 15.98974609 C47.70844904 15.98585569 46.29507308 15.9815203 44.88169861 15.97676086 C41.92369797 15.96931255 38.96581671 15.96957985 36.0078125 15.97485352 C32.22721424 15.98064715 28.44710605 15.9637135 24.66658878 15.94050884 C21.74882679 15.9257391 18.83118196 15.92490416 15.91338921 15.92801857 C14.52000393 15.92750701 13.12661182 15.92230037 11.73326302 15.91220665 C9.78087261 15.89979768 7.82838273 15.90859735 5.87597656 15.91821289 C4.76742813 15.91758347 3.6588797 15.91695404 2.51673889 15.91630554 C-1.09133174 16.34940541 -3.49888844 17.42384736 -6.60083008 19.29052734 Z M313.39916992 19.29052734 C310.61856811 23.71421205 311.39916992 26.65177366 311.39916992 32.29052734 C337.79916992 32.29052734 364.19916992 32.29052734 391.39916992 32.29052734 C391.65230237 24.48334824 391.65230237 24.48334824 388.39916992 18.29052734 C384.56745901 16.30792391 381.3285414 16.03365724 377.05175781 16.01586914 C375.79017349 16.00633713 374.52858917 15.99680511 373.22877502 15.98698425 C371.85979179 15.9872457 370.49080854 15.98818284 369.12182617 15.98974609 C367.70844904 15.98585569 366.29507308 15.9815203 364.88169861 15.97676086 C361.92369797 15.96931255 358.96581671 15.96957985 356.0078125 15.97485352 C352.22721424 15.98064715 348.44710605 15.9637135 344.66658878 15.94050884 C341.74882679 15.9257391 338.83118196 15.92490416 335.91338921 15.92801857 C334.52000393 15.92750701 333.12661182 15.92230037 331.73326302 15.91220665 C329.78087261 15.89979768 327.82838273 15.90859735 325.87597656 15.91821289 C324.76742813 15.91758347 323.6588797 15.91695404 322.51673889 15.91630554 C318.90866826 16.34940541 316.50111156 17.42384736 313.39916992 19.29052734 Z M-18.60083008 50.29052734 C-18.19678464 52.70792063 -18.19678464 52.70792063 -17.28833008 55.47802734 C-15.95968072 60.30737893 -15.36054977 64.72487526 -15.16333008 69.72802734 C-14.73321884 77.77607032 -13.97115117 87.70124358 -7.78833008 93.60302734 C-3.91453479 95.65386014 -1.92201456 96.06216743 2.39916992 95.29052734 C10.2520559 91.04996892 11.78948569 82.2531902 14.38745117 74.24365234 C16.60150634 67.64704352 19.14833046 61.82566654 25.34448242 58.13037109 C28.66614381 56.77265779 31.90794439 56.74460212 35.39916992 57.29052734 C45.22329155 62.39151358 47.25029164 70.89488284 50.55151367 80.72021484 C53.54119682 89.54096407 53.54119682 89.54096407 60.39916992 95.29052734 C64.91171088 96.09633823 66.73789182 95.69746771 70.64916992 93.29052734 C76.5065647 87.72832514 76.90780164 79.69131699 77.39916992 72.10302734 C77.79909694 66.06322044 78.53682881 60.34211229 79.93823242 54.44165039 C80.3474292 52.70736031 80.3474292 52.70736031 80.76489258 50.93803406 C80.9742041 50.06435684 81.18351562 49.19067963 81.39916992 48.29052734 C68.65611368 48.24426373 55.9130773 48.20868862 43.1699543 48.186903 C37.25332811 48.176449 31.33675922 48.1622604 25.42016602 48.13964844 C19.71435861 48.11797759 14.00860645 48.1059709 8.30276108 48.10077286 C6.12177536 48.09706672 3.94079279 48.08982998 1.75983047 48.07906723 C-1.28607558 48.06462883 -4.33175099 48.06254618 -7.37768555 48.06347656 C-8.74145828 48.05269073 -8.74145828 48.05269073 -10.13278198 48.04168701 C-14.85075644 47.82107307 -14.85075644 47.82107307 -18.60083008 50.29052734 Z M301.39916992 48.29052734 C301.60888931 49.16461243 301.8186087 50.03869751 302.03468323 50.93927002 C302.30779831 52.09578064 302.58091339 53.25229126 302.86230469 54.44384766 C303.13389908 55.58605774 303.40549347 56.72826782 303.68531799 57.90509033 C304.85543779 63.45437403 305.16827295 69.01836296 305.4831543 74.66943359 C306.02415238 81.95924617 307.72933881 88.33206584 312.71166992 93.85302734 C316.3012921 95.77305781 318.37774244 95.92548958 322.39916992 95.29052734 C330.38256414 90.97949447 331.87297559 81.86911033 334.57495117 73.76318359 C337.28755333 66.04949732 339.9426837 61.01877046 347.39916992 57.29052734 C353.50971227 56.78131548 356.53714323 57.2020049 361.39916992 61.29052734 C366.7021648 66.43755179 368.25759539 73.89289195 370.55151367 80.72021484 C373.52686882 89.5628019 373.52686882 89.5628019 380.39916992 95.29052734 C383.30796177 96.07747504 385.5049855 96.17438007 388.39916992 95.29052734 C393.57851816 91.74063698 395.49025497 86.33464825 396.88745117 80.43896484 C397.66097655 75.67971712 397.85081668 70.91859985 398.08276367 66.10693359 C398.56038644 60.34597755 399.90510369 54.86273662 401.39916992 49.29052734 C397.95038839 47.56613658 393.97105924 48.16199484 390.17602539 48.17700195 C389.21988342 48.17685593 388.26374146 48.1767099 387.27862549 48.17655945 C384.10784665 48.17725795 380.93712604 48.18504744 377.76635742 48.19287109 C375.57203198 48.1947355 373.37770613 48.19615929 371.18338013 48.19715881 C365.39982968 48.20098224 359.61630423 48.21081106 353.83276367 48.22186279 C347.93432961 48.23208065 342.03589153 48.23665724 336.13745117 48.24169922 C324.55801309 48.25243347 312.97859358 48.26950782 301.39916992 48.29052734 Z M97.39916992 54.29052734 C95.05119662 61.14866951 93.91644541 67.51278823 93.46166992 74.72802734 C92.53416351 86.1833338 90.21637569 96.42271761 82.39916992 105.29052734 C74.54766681 111.51809528 67.22132344 111.90032845 57.39916992 111.29052734 C51.39026617 110.02549498 46.59198576 107.27486761 42.93823242 102.30224609 C38.49860905 95.41744945 35.9250272 88.02911 33.39916992 80.29052734 C32.90416992 78.80552734 32.90416992 78.80552734 32.39916992 77.29052734 C31.73916992 77.29052734 31.07916992 77.29052734 30.39916992 77.29052734 C30.0356543 78.40169922 29.67213867 79.51287109 29.29760742 80.65771484 C21.88319505 102.83112231 21.88319505 102.83112231 11.54760742 109.23193359 C4.69755732 112.6071401 -4.30752172 112.51555133 -11.53051758 110.45458984 C-19.94875802 106.64207365 -24.35455916 100.04779812 -27.79223633 91.68896484 C-30.76610571 82.86792234 -31.08914275 73.51436468 -31.60083008 64.29052734 C-31.93083008 64.29052734 -32.26083008 64.29052734 -32.60083008 64.29052734 C-32.6472889 74.56577603 -32.68276793 84.84099949 -32.70445442 95.11633205 C-32.71486587 99.88822086 -32.72897664 104.66003749 -32.75170898 109.43188477 C-32.77353177 114.04195421 -32.78541853 118.65195448 -32.79058456 123.26207161 C-32.79426344 125.01581981 -32.80144715 126.76956447 -32.81229019 128.523283 C-33.25393602 146.04184141 -33.25393602 146.04184141 -25.60083008 161.29052734 C-16.17681449 169.39764992 -4.11085284 168.58014023 7.60644531 168.54449463 C9.25772012 168.54680105 10.9089939 168.54997878 12.56026554 168.55394912 C17.08321348 168.56228086 21.60607678 168.5581792 26.12902498 168.55197668 C31.01252592 168.54744657 35.89601244 168.55443873 40.7795105 168.55993652 C50.34051972 168.56882618 59.90149752 168.56691041 69.46250796 168.56111124 C77.23348164 168.55659309 85.00444653 168.55598252 92.77542114 168.55815887 C94.43491101 168.55861857 94.43491101 168.55861857 96.12792593 168.55908756 C98.37546055 168.55972702 100.62299516 168.56037544 102.87052977 168.56103274 C123.94188948 168.56673478 145.01323179 168.56018011 166.08458865 168.54943201 C184.16178852 168.54049662 202.2389627 168.54204869 220.31616211 168.55126953 C241.31252051 168.56197437 262.30886367 168.56618547 283.30522442 168.560045 C285.54445584 168.55940791 287.78368727 168.55877917 290.0229187 168.55815887 C291.12464151 168.55785032 292.22636432 168.55754177 293.36147267 168.55722387 C301.12242471 168.55549758 308.88336708 168.55841063 316.64431763 168.56311798 C326.10328834 168.56872918 335.56222587 168.5672053 345.02119279 168.55655649 C349.84657381 168.55130303 354.67189951 168.54923753 359.49728012 168.5558548 C363.91624059 168.56182303 368.33509454 168.55852466 372.75404537 168.54789969 C374.35082929 168.54566939 375.94762224 168.54679365 377.54440033 168.55165127 C392.93122957 168.87650725 392.93122957 168.87650725 406.39916992 162.29052734 C413.4814026 155.15734335 415.50327706 148.53566887 415.52359009 138.46710205 C415.51999481 137.74061462 415.51639954 137.0141272 415.51269531 136.265625 C415.51291435 135.09388229 415.51291435 135.09388229 415.51313782 133.89846802 C415.51244491 131.33381305 415.50468176 128.76923202 415.49682617 126.20458984 C415.49495978 124.4195459 415.49353692 122.63450143 415.49253845 120.84945679 C415.48873067 116.1641497 415.4789153 111.47887388 415.46783447 106.7935791 C415.45758289 102.0074099 415.45303281 97.22123562 415.44799805 92.43505859 C415.43729142 83.05353448 415.42023596 73.67203352 415.39916992 64.29052734 C415.06916992 64.29052734 414.73916992 64.29052734 414.39916992 64.29052734 C414.35953125 64.86907471 414.31989258 65.44762207 414.27905273 66.04370117 C412.25756502 94.10719988 412.25756502 94.10719988 402.39916992 105.29052734 C394.59552138 111.48013852 387.1826438 112.05702366 377.39916992 111.29052734 C369.27845913 109.1650497 364.02773403 104.0790276 359.73510742 97.02490234 C356.65453246 90.71963195 354.59891025 83.94266305 352.39916992 77.29052734 C351.73916992 77.29052734 351.07916992 77.29052734 350.39916992 77.29052734 C350.0356543 78.40169922 349.67213867 79.51287109 349.29760742 80.65771484 C341.88319505 102.83112231 341.88319505 102.83112231 331.54760742 109.23193359 C324.69755732 112.6071401 315.69247828 112.51555133 308.46948242 110.45458984 C300.05124198 106.64207365 295.64544084 100.04779812 292.20776367 91.68896484 C289.95437754 85.00500792 289.35684458 78.23477808 288.96166992 71.22802734 C288.60367766 65.21508326 287.46756562 59.93633699 285.39916992 54.29052734 C284.51229492 55.07427734 283.62541992 55.85802734 282.71166992 56.66552734 C255.17650506 80.15629173 221.54549231 97.08141506 184.39916992 94.29052734 C152.2783097 91.56192968 123.72741518 78.25163599 100.41088867 56.12646484 C98.72998673 54.17817746 98.72998673 54.17817746 97.39916992 54.29052734 Z " fill="#000000" transform="translate(64.600830078125,263.70947265625)"/>
<path d="M0 0 C2.47956098 1.89429524 4.7157787 3.86474965 7 6 C10.71552277 4.67396537 13.50110645 3.01754723 16.625 0.625 C21.76816621 -3.0706883 26.95475713 -5.20380963 33 -7 C33.598125 -7.19335938 34.19625 -7.38671875 34.8125 -7.5859375 C44.21422991 -9.36555066 55.23601412 -8.87211518 64 -5 C64.87785156 -4.62101562 65.75570312 -4.24203125 66.66015625 -3.8515625 C74.21973388 -0.1727807 83.1415598 6.28311959 87 14 C87.66 14 88.32 14 89 14 C90.56648858 12.41262601 90.56648858 12.41262601 92.1875 10.375 C101.7824447 -0.81910215 113.38210238 -6.9744782 128.23046875 -8.28515625 C143.56247997 -8.706466 156.22647406 -3.5701007 168 6 C170.53758646 4.50916795 173.01521437 2.98949135 175.4375 1.31640625 C188.24346242 -7.44865034 201.69622324 -9.99298124 216.91796875 -7.52734375 C219.40525253 -6.86696793 221.64681391 -6.03968762 224 -5 C224.87785156 -4.62101562 225.75570313 -4.24203125 226.66015625 -3.8515625 C234.21973388 -0.1727807 243.1415598 6.28311959 247 14 C247.66 14 248.32 14 249 14 C250.56648858 12.41262601 250.56648858 12.41262601 252.1875 10.375 C261.7824447 -0.81910215 273.38210238 -6.9744782 288.23046875 -8.28515625 C303.13956837 -8.69484477 316.10958669 -4.18016897 327 6 C330.71552277 4.67396537 333.50110645 3.01754723 336.625 0.625 C341.76816621 -3.0706883 346.95475713 -5.20380963 353 -7 C353.60070312 -7.19207031 354.20140625 -7.38414063 354.8203125 -7.58203125 C368.55156884 -10.21508578 381.8607625 -7.30292046 393.5546875 0.1796875 C405.34409984 8.95583151 413.37637486 20.44547619 416 35 C417.92011511 53.84329395 413.53175242 69.30711756 403 85 C402.47653992 85.89780025 402.47653992 85.89780025 401.94250488 86.81373787 C399.76241583 90.00900944 398.10066558 91.73693238 394.2674408 92.65310287 C390.74372841 92.91374674 387.27939775 92.9455151 383.74609375 92.90576172 C382.39533176 92.91525562 381.04458791 92.92772413 379.69387817 92.94293213 C376.03646813 92.97476993 372.38044442 92.9625051 368.72301102 92.94027853 C364.89009196 92.92251683 361.05728911 92.93900283 357.22436523 92.94998169 C350.7883581 92.96270582 344.3529138 92.94596381 337.91699219 92.91259766 C330.48319233 92.87450243 323.0507364 92.88684315 315.61696911 92.92538249 C309.22688157 92.95718106 302.83719789 92.96161546 296.44705677 92.94331181 C292.63382256 92.93241591 288.82121942 92.9308941 285.00802612 92.95406723 C281.42214143 92.97433804 277.83798369 92.96017977 274.252285 92.91980743 C272.31405746 92.90618449 270.37568327 92.9268937 268.43753052 92.94869995 C260.12630716 92.80736365 260.12630716 92.80736365 256.93502808 90.51977921 C255.37047092 88.74660679 254.17308468 87.04919491 253 85 C252.39068382 84.00607144 252.39068382 84.00607144 251.76905823 82.99206352 C250.79858334 81.35526488 249.89190735 79.68090231 249 78 C248.34 78 247.68 78 247 78 C245.78514615 79.72421427 244.65181296 81.50634884 243.5625 83.3125 C239.4732297 90.06906972 239.4732297 90.06906972 237 92 C234.49241924 92.38869667 234.49241924 92.38869667 231.44059753 92.40786743 C229.7056881 92.4292276 229.7056881 92.4292276 227.93572998 92.45101929 C226.03044525 92.45133652 226.03044525 92.45133652 224.08666992 92.45166016 C222.73636405 92.46227319 221.38606727 92.47410322 220.03578186 92.48706055 C216.36622586 92.51786206 212.69686486 92.52898468 209.02719283 92.53470278 C206.73406681 92.53905567 204.44099139 92.54742952 202.14788246 92.55720139 C194.14633216 92.59095742 186.14492947 92.60808371 178.14331055 92.61083984 C170.68752175 92.61387361 163.23256278 92.65430297 155.77701491 92.71198809 C149.37433371 92.75978022 142.97192625 92.78057192 136.56906778 92.78063047 C132.74562086 92.78116844 128.92298607 92.79274491 125.09972191 92.83180618 C121.50172821 92.86769365 117.90524719 92.86994089 114.30716515 92.84663391 C112.36163839 92.84241552 110.41613242 92.87279119 108.47085571 92.90426636 C100.12660378 92.80429762 100.12660378 92.80429762 96.93209267 90.52369308 C95.36636454 88.74928935 94.17148735 87.05201322 93 85 C92.59385058 84.33729914 92.18770117 83.67459827 91.76924419 82.99181557 C90.79858184 81.35517716 89.89188757 79.68086503 89 78 C88.34 78 87.68 78 87 78 C85.78514615 79.72421427 84.65181296 81.50634884 83.5625 83.3125 C79.47445354 90.0670476 79.47445354 90.0670476 77 92 C74.49521255 92.39148998 74.49521255 92.39148998 71.44732666 92.41459656 C70.29216553 92.43028183 69.13700439 92.4459671 67.94683838 92.46212769 C66.04391022 92.46480148 66.04391022 92.46480148 64.10253906 92.4675293 C62.7538544 92.4797795 61.4051802 92.49323171 60.05651855 92.50779724 C56.39104269 92.54287769 52.72574697 92.55811159 49.0601244 92.56763434 C46.76900059 92.57420906 44.47792457 92.58455378 42.18682098 92.59613991 C34.19061064 92.63589103 26.19454444 92.65790024 18.19824219 92.66577148 C10.75032929 92.67363726 3.3034477 92.72284273 -4.14413619 92.79083699 C-10.54173741 92.84720033 -16.93899623 92.87268596 -23.33684373 92.87471896 C-27.15652701 92.87655816 -30.97512369 92.89114945 -34.79454803 92.93753624 C-38.39020857 92.98027655 -41.98391785 92.9845242 -45.57972717 92.95974159 C-47.52152509 92.95593491 -49.46327578 92.99164628 -51.40472412 93.02868652 C-59.7687429 92.91874196 -59.7687429 92.91874196 -63.30104828 90.28299904 C-65.10423187 88.2693099 -66.57817579 86.29513106 -68 84 C-68.62444315 83.02529267 -68.62444315 83.02529267 -69.26150131 82.03089428 C-70.32560366 80.30648929 -71.26657262 78.55462114 -72.1875 76.75 C-72.52209229 76.10740234 -72.85668457 75.46480469 -73.20141602 74.80273438 C-77.16082042 66.99779584 -80.33657329 58.7904039 -81 50 C-81.0515625 49.36320312 -81.103125 48.72640625 -81.15625 48.0703125 C-81.77715752 33.94466648 -76.87598644 20.31920421 -67.6875 9.6875 C-49.83393227 -8.81852369 -22.54523403 -14.41613543 0 0 Z M-55.8125 22.25 C-62.00810085 30.84621649 -64.91984755 40.2347753 -63.6640625 50.8359375 C-62.01936621 58.80310264 -57.92197552 70.07802448 -52 76 C-50.45802935 76.11755778 -48.91075494 76.16625143 -47.36445618 76.18754578 C-46.36205399 76.20337204 -45.35965179 76.2191983 -44.32687378 76.23550415 C-42.66327316 76.25367691 -42.66327316 76.25367691 -40.96606445 76.2722168 C-39.22465935 76.29653023 -39.22465935 76.29653023 -37.44807434 76.32133484 C-26.72945954 76.46159755 -16.00992843 76.54111083 -5.29057026 76.60025311 C2.63417291 76.6448183 10.55718441 76.72192478 18.48115319 76.84183758 C24.05146501 76.92329127 29.62130282 76.96639812 35.19218475 76.98155528 C38.52008541 76.99171849 41.84530558 77.02410032 45.17267418 77.08786583 C48.88959331 77.15568866 52.60167913 77.16086886 56.3190918 77.15112305 C57.96751068 77.20269562 57.96751068 77.20269562 59.64923096 77.25531006 C62.74273383 77.20907708 65.09685088 77.07759822 68 76 C70.75083016 72.9670735 72.37078857 69.73017145 74 66 C74.83144531 64.51306641 74.83144531 64.51306641 75.6796875 62.99609375 C80.08787866 53.56025973 80.64237663 43.62977723 78.1484375 33.5625 C73.86715495 22.14574653 66.04893766 14.84153843 55.25 9.6875 C45.01151801 7.52166727 35.36593095 8.86365818 26.53515625 14.6015625 C24.63270597 16.01251859 22.79569671 17.45642117 21 19 C22.25517145 22.76551435 23.86901565 23.68312979 27 26.0625 C31.90011481 29.80022962 31.90011481 29.80022962 33 32 C33.13357453 35.67329964 33.1671568 38.49852959 32 42 C27.40498082 42.96737246 25.02226924 43.41648006 20.625 41.625 C14.39917679 37.48847332 9.00042085 32.11910099 3.85546875 26.734375 C-5.19511854 17.29474754 -14.55776289 9.28761942 -28.3125 8.6875 C-39.34998149 9.00606908 -48.78632734 13.7886942 -55.8125 22.25 Z M105.765625 20.5546875 C103.68539021 23.2954348 101.80332497 26.07065521 100 29 C99.61585938 29.62390625 99.23171875 30.2478125 98.8359375 30.890625 C95.18372829 38.46810579 95.78102875 49.441881 97.9140625 57.41796875 C99.12086346 60.42718534 100.4168603 63.16875713 102 66 C102.3526593 66.80366879 102.7053186 67.60733757 103.06866455 68.43535995 C105.64124453 73.80475402 105.64124453 73.80475402 110.4468689 76.93923187 C113.53517262 77.30519118 116.49185859 77.35163767 119.6015625 77.29394531 C121.34406281 77.3202301 121.34406281 77.3202301 123.12176514 77.3470459 C126.9577015 77.39102366 130.7890178 77.36194358 134.625 77.328125 C137.29253868 77.33486199 139.95993769 77.34455253 142.62744141 77.3571167 C148.21632845 77.37528782 153.80389224 77.3513976 159.39257812 77.30371094 C165.84542938 77.24928485 172.29512148 77.26691531 178.74789619 77.32197499 C184.2973838 77.36742364 189.84592275 77.37372746 195.39553642 77.3475883 C198.70613903 77.33203211 202.01493921 77.3337668 205.32550049 77.36295319 C209.01864977 77.38836725 212.70573982 77.3496479 216.3984375 77.29394531 C217.4895282 77.31418762 218.5806189 77.33442993 219.70477295 77.35528564 C222.78160417 77.26932177 225.12372615 77.10405918 228 76 C230.7375585 72.96215784 232.36618072 69.72328066 234 66 C234.83144531 64.51306641 234.83144531 64.51306641 235.6796875 62.99609375 C240.08787866 53.56025973 240.64237663 43.62977723 238.1484375 33.5625 C233.86715495 22.14574653 226.04893766 14.84153843 215.25 9.6875 C205.01151801 7.52166727 195.36593095 8.86365818 186.53515625 14.6015625 C184.63270597 16.01251859 182.79569671 17.45642117 181 19 C182.25517145 22.76551435 183.86901565 23.68312979 187 26.0625 C191.90011481 29.80022962 191.90011481 29.80022962 193 32 C193.45405405 38.24324324 193.45405405 38.24324324 191.875 40.875 C189.10843406 42.53493957 187.24618262 42.93757341 184 43 C175.01695464 39.19948081 168.21500941 31.27425013 161.5625 24.375 C152.52711887 15.3014949 143.25103349 9.973793 130.4375 8.625 C120.71415947 9.68572806 112.28856665 13.09663883 105.765625 20.5546875 Z M271 16 C270.175 16.556875 269.35 17.11375 268.5 17.6875 C260.8697156 24.74551307 257.06248592 33.44902999 256.546875 43.7277832 C256.35934737 52.06787939 257.9218031 58.62130886 262 66 C262.3526593 66.80480175 262.7053186 67.6096035 263.06866455 68.43879318 C265.64177195 73.80619107 265.64177195 73.80619107 270.4468689 76.93909454 C273.53519498 77.30520852 276.49181882 77.3516384 279.6015625 77.29394531 C281.34406281 77.3202301 281.34406281 77.3202301 283.12176514 77.3470459 C286.9577015 77.39102366 290.7890178 77.36194358 294.625 77.328125 C297.29253868 77.33486199 299.95993769 77.34455253 302.62744141 77.3571167 C308.21632845 77.37528782 313.80389224 77.3513976 319.39257812 77.30371094 C325.84542938 77.24928485 332.29512148 77.26691531 338.74789619 77.32197499 C344.2973838 77.36742364 349.84592275 77.37372746 355.39553642 77.3475883 C358.70613903 77.33203211 362.01493921 77.3337668 365.32550049 77.36295319 C369.01864977 77.38836725 372.70573982 77.3496479 376.3984375 77.29394531 C377.4895282 77.31418762 378.5806189 77.33442993 379.70477295 77.35528564 C382.78160417 77.26932177 385.12372615 77.10405918 388 76 C390.7375585 72.96215784 392.36618072 69.72328066 394 66 C394.83144531 64.51306641 394.83144531 64.51306641 395.6796875 62.99609375 C400.08787866 53.56025973 400.64237663 43.62977723 398.1484375 33.5625 C393.86715495 22.14574653 386.04893766 14.84153843 375.25 9.6875 C365.01151801 7.52166727 355.36593095 8.86365818 346.53515625 14.6015625 C344.63270597 16.01251859 342.79569671 17.45642117 341 19 C342.25517145 22.76551435 343.86901565 23.68312979 347 26.0625 C351.90011481 29.80022962 351.90011481 29.80022962 353 32 C353.13357453 35.67329964 353.1671568 38.49852959 352 42 C347.40498082 42.96737246 345.02226924 43.41648006 340.625 41.625 C334.43157832 37.51000136 329.01336802 32.19060089 323.9609375 26.76953125 C314.78296134 17.00647673 305.21568273 9.69258866 291.3125 8.75 C283.74497114 8.86444278 276.97633765 11.41350832 271 16 Z " fill="#000000" transform="translate(88,68)"/>
<path d="M0 0 C0.66 -0.0103125 1.32 -0.020625 2 -0.03125 C5.11791222 0.79694543 6.07891973 1.86893397 8 4.5 C8.6306891 7.97542785 8.6049806 11.42817048 8.609375 14.953125 C8.62591125 15.96848328 8.64244751 16.98384155 8.65948486 18.02996826 C8.7080339 21.27003995 8.7293516 24.50964205 8.75 27.75 C8.77815383 29.94794038 8.80808042 32.14585882 8.83984375 34.34375 C8.91379443 39.72908122 8.9653965 45.11428 9 50.5 C9.62648438 49.86191406 10.25296875 49.22382813 10.8984375 48.56640625 C11.71570313 47.74011719 12.53296875 46.91382813 13.375 46.0625 C14.18710937 45.23878906 14.99921875 44.41507812 15.8359375 43.56640625 C19.13621789 40.41505548 21.44527073 40.13890541 26.0234375 40.23046875 C28 40.5 28 40.5 30.5 42 C32.19418171 44.82363618 32.75216215 47.07870292 32.56982422 50.3815918 C31.87704229 52.95711401 30.86870269 54.18243674 29.0703125 56.14453125 C28.43665771 56.83724121 27.80300293 57.52995117 27.15014648 58.24365234 C23.22043867 62.36745836 19.22464632 66.41897234 15.1875 70.4375 C13.90069336 71.73010742 13.90069336 71.73010742 12.58789062 73.04882812 C11.76869141 73.86673828 10.94949219 74.68464844 10.10546875 75.52734375 C8.99401489 76.63710571 8.99401489 76.63710571 7.86010742 77.76928711 C4.85692703 80.56355746 2.30411897 81.0321053 -1.81079102 80.96362305 C-4.50526632 80.39299646 -5.63504309 79.44276368 -7.65234375 77.58203125 C-8.6897168 76.62901123 -8.6897168 76.62901123 -9.74804688 75.65673828 C-13.86220138 71.71653436 -17.91871955 67.72490028 -21.9375 63.6875 C-22.79923828 62.82962891 -23.66097656 61.97175781 -24.54882812 61.08789062 C-25.77569336 59.8590918 -25.77569336 59.8590918 -27.02734375 58.60546875 C-27.76718506 57.86449951 -28.50702637 57.12353027 -29.26928711 56.36010742 C-32.17824637 53.23366355 -32.35466617 50.73330867 -32.26953125 46.4765625 C-32 44.5 -32 44.5 -30.5 42 C-27.69540435 40.31724261 -25.44228228 39.75901444 -22.16015625 39.90625 C-17.87025931 41.08538985 -15.01619273 44.37680265 -12 47.5 C-11.0012123 48.50121084 -10.00140622 49.5014082 -9 50.5 C-8.99635437 49.93259094 -8.99270874 49.36518188 -8.98895264 48.78057861 C-8.94714554 42.87543768 -8.87781314 36.9710753 -8.79248047 31.06640625 C-8.7642529 28.86270941 -8.7430473 26.658911 -8.72900391 24.45507812 C-8.70759953 21.28723068 -8.66096102 18.12060692 -8.609375 14.953125 C-8.60814636 13.96757629 -8.60691772 12.98202759 -8.60565186 11.96661377 C-8.45920125 5.12891115 -8.45920125 5.12891115 -6.08691406 1.87988281 C-3.83245773 0.38921983 -2.68032277 -0.04188004 0 0 Z " fill="#000000" transform="translate(256,223.5)"/>
<path d="M0 0 C2.5 1.5 2.5 1.5 4 4 C4.791013 8.02098277 4.62153384 10.96411027 2.5 14.5 C-1.03588973 16.62153384 -3.97901723 16.791013 -8 16 C-10.5 14.5 -10.5 14.5 -12 12 C-12.791013 7.97901723 -12.62153384 5.03588973 -10.5 1.5 C-6.96411027 -0.62153384 -4.02098277 -0.791013 0 0 Z " fill="#000000" transform="translate(260,192)"/>
</svg>
