<?xml version="1.0" encoding="UTF-8"?>
<svg version="1.1" xmlns="http://www.w3.org/2000/svg" width="512" height="512">
<path d="M0 0 C24.94361609 10.36391871 44.57350123 7.79162738 68.8394165 -2.17285156 C72.56031602 -3.71216032 76.26963598 -5.27560785 79.96826172 -6.86767578 C108.90481369 -19.25871388 138.23080059 -20.7183689 167.76904297 -9.29394531 C194.49918318 1.54896871 215.35405363 22.34682687 226.94921875 48.625 C234.20437114 66.72165852 236.89407481 84.88378689 236.69921875 104.3046875 C236.69273819 105.54892487 236.69273819 105.54892487 236.68612671 106.81829834 C236.39936884 154.55584773 229.28542575 202.02039851 218.69921875 248.4921875 C218.28373779 250.34058228 218.28373779 250.34058228 217.85986328 252.22631836 C215.50517565 262.25360718 212.95720392 271.76872053 204.44921875 278.2421875 C199.50946322 281.1072457 195.18897664 282.30350693 189.49136734 282.31474972 C188.34303429 282.32181531 187.19470124 282.3288809 186.01157022 282.3361606 C184.75963742 282.33374552 183.50770463 282.33133043 182.21783447 282.32884216 C180.86684554 282.3332969 179.51585921 282.33861172 178.1648767 282.34471089 C174.45800251 282.35887304 170.75121223 282.36055452 167.04431486 282.36011398 C163.04417409 282.36176375 159.04406773 282.37483323 155.04394531 282.38630676 C146.30010686 282.40914297 137.5562927 282.4170758 128.81242847 282.42213321 C123.35116274 282.42539165 117.88990403 282.43191501 112.42864227 282.4391346 C97.30305839 282.45869827 82.17748105 282.475104 67.0518837 282.47801113 C65.60040848 282.47829249 65.60040848 282.47829249 64.11961053 282.47857952 C62.15801732 282.47894577 60.1964241 282.47930947 58.23483089 282.47967064 C56.77425854 282.47994485 56.77425854 282.47994485 55.28417969 282.48022461 C53.82182139 282.48049543 53.82182139 282.48049543 52.3299205 282.48077173 C36.53280575 282.48431342 20.73582731 282.5113365 4.93875983 282.5487225 C-11.28620376 282.58681342 -27.51109972 282.60616866 -43.73610902 282.60647064 C-52.84334404 282.60705502 -61.95041643 282.61553408 -71.05760956 282.64446831 C-78.81231699 282.66899262 -86.56680245 282.67625798 -94.32153818 282.66122078 C-98.27630158 282.65405628 -102.23062674 282.65488905 -106.18534088 282.67763138 C-109.81024693 282.69827694 -113.43437939 282.69557013 -117.05927756 282.67475653 C-118.98226595 282.66962949 -120.90527229 282.68899841 -122.82815909 282.70941824 C-132.36777892 282.61730684 -139.44902023 280.31024683 -146.48828125 273.7421875 C-149.4018273 270.0981363 -150.80901379 266.25439903 -152.12890625 261.8359375 C-152.34217056 261.13550827 -152.55543488 260.43507904 -152.77516174 259.71342468 C-155.11444772 251.85227291 -156.915669 243.88749556 -158.61328125 235.8671875 C-158.78186646 235.07777771 -158.95045166 234.28836792 -159.12414551 233.47503662 C-167.85449181 192.41420044 -173.81759791 150.28593572 -173.91601562 108.24926758 C-173.92573121 105.75503283 -173.95690038 103.26162173 -173.98828125 100.76757812 C-174.21511305 66.206447 -162.71163805 36.51505292 -138.4453125 11.78125 C-97.7524227 -27.07125785 -47.18332046 -19.67481581 0 0 Z M-133.86328125 33.7421875 C-148.01313119 51.44072997 -155.80343953 73.11857453 -155.84375 95.84765625 C-155.84798477 96.58258301 -155.85221954 97.31750977 -155.85658264 98.07470703 C-155.86647086 100.46392541 -155.86649527 102.8529522 -155.86328125 105.2421875 C-155.862677 106.06691559 -155.86207275 106.89164368 -155.8614502 107.74136353 C-155.83140073 122.91615987 -155.18031728 137.948001 -153.67578125 153.0546875 C-153.546875 154.35374023 -153.41796875 155.65279297 -153.28515625 156.99121094 C-150.13964502 188.01319523 -145.03026095 218.74657132 -137.67578125 249.0546875 C-137.45583496 250.06015625 -137.23588867 251.065625 -137.00927734 252.1015625 C-136.77934082 253.07609375 -136.5494043 254.050625 -136.3125 255.0546875 C-136.11744873 255.9209375 -135.92239746 256.7871875 -135.72143555 257.6796875 C-134.19832687 261.1391321 -132.9961645 262.11974189 -129.67578125 264.0546875 C-125.42964432 264.66618654 -121.20520452 264.59367012 -116.92175293 264.56262207 C-114.95440603 264.57198201 -114.95440603 264.57198201 -112.94731474 264.58153105 C-109.30822018 264.59824083 -105.66954481 264.5899708 -102.03044868 264.57758617 C-98.10535821 264.56854464 -94.18034037 264.58250093 -90.25526428 264.59350586 C-82.56661222 264.61130531 -74.87811623 264.60744478 -67.18945801 264.5958553 C-60.94151345 264.58682684 -54.69361267 264.58559442 -48.44566345 264.58995056 C-47.55689356 264.59056349 -46.66812366 264.59117643 -45.75242135 264.59180793 C-43.94698066 264.59308682 -42.14153999 264.59438367 -40.33609933 264.5956983 C-23.40094468 264.60710827 -6.4658766 264.59398386 10.46926385 264.57249683 C25.00478046 264.55462547 39.54016929 264.55772946 54.07568359 264.57617188 C70.94966025 264.59757123 87.82356101 264.60600959 104.69754934 264.59372282 C106.49639987 264.5924486 108.2952504 264.59119112 110.09410095 264.58995056 C110.97920185 264.58933346 111.86430275 264.58871636 112.77622488 264.58808056 C119.01766961 264.58462485 125.25906626 264.59046075 131.50050354 264.59986877 C139.10532401 264.61107976 146.70997931 264.60806775 154.31478083 264.5867458 C158.19593818 264.57622315 162.07681999 264.572134 165.95797539 264.58534241 C170.16228764 264.59943434 174.36590237 264.58262459 178.57019043 264.56262207 C179.80121003 264.57154496 181.03222962 264.58046784 182.30055285 264.58966112 C188.71946044 264.58520759 188.71946044 264.58520759 194.54691315 262.19722748 C196.76712859 259.52076017 197.48795898 257.37689445 198.31640625 254 C198.62545898 252.76491699 198.93451172 251.52983398 199.25292969 250.25732422 C199.56973575 248.89843213 199.88512265 247.53920853 200.19921875 246.1796875 C200.540428 244.75661031 200.88190527 243.33359736 201.22363281 241.91064453 C213.35046733 190.61183843 228.80087778 123.96932897 214.32421875 72.0546875 C214.14761719 71.39017578 213.97101563 70.72566406 213.7890625 70.04101562 C207.59901361 47.27539139 193.57351354 25.54775446 173.32421875 13.0546875 C153.3354319 1.68382073 128.90015614 -3.16170801 106.26171875 2.6796875 C103.93420271 3.42605298 101.62078218 4.21791467 99.32421875 5.0546875 C98.09574219 5.47878906 96.86726562 5.90289063 95.6015625 6.33984375 C88.76431193 8.76395986 82.11739649 11.56466594 75.47924805 14.4855957 C50.13722685 25.6209677 24.88146631 29.16284982 -1.54296875 19.2890625 C-5.76634298 17.64321608 -9.94811152 15.90479792 -14.12158203 14.13671875 C-56.90812137 -3.98887314 -100.59880468 -4.4409693 -133.86328125 33.7421875 Z " fill="#000000" transform="translate(224.67578125,16.9453125)"/>
<path d="M0 0 C1.00604247 -0.00467997 2.01208494 -0.00935994 3.04861355 -0.01418173 C6.39395571 -0.02607461 9.73888387 -0.01669674 13.08422852 -0.00723267 C15.49309527 -0.01130089 17.90196016 -0.01664418 20.31082153 -0.02316284 C26.15893438 -0.03539683 32.00691738 -0.03364143 37.85503411 -0.02492492 C42.61063092 -0.01813204 47.36619538 -0.01723856 52.12179565 -0.02049637 C52.80029239 -0.02095607 53.47878913 -0.02141577 54.17784637 -0.0218894 C55.55647573 -0.02284863 56.93510507 -0.02382128 58.31373441 -0.02480717 C71.2216925 -0.03334867 84.12958653 -0.02354645 97.03753412 -0.00740607 C108.09772733 0.00599599 119.15782607 0.00366755 130.21801758 -0.01016235 C143.08180959 -0.02624014 155.94554554 -0.03252481 168.8093462 -0.02332556 C170.18272208 -0.02236998 171.55609798 -0.02142687 172.92947388 -0.02049637 C173.605088 -0.02003354 174.28070213 -0.01957072 174.97678941 -0.01909386 C179.72313664 -0.01651056 184.46944811 -0.02086069 189.21578979 -0.02793503 C195.61150447 -0.03661714 202.00704116 -0.03055976 208.40273666 -0.01325226 C210.74642517 -0.00929411 213.09012872 -0.01040991 215.43381119 -0.01704025 C218.63983113 -0.0252722 221.84528535 -0.0149138 225.05126953 0 C225.9724932 -0.00669217 226.89371687 -0.01338433 227.84285641 -0.02027929 C237.13897847 0.06325035 245.07733452 1.93406783 251.83813477 8.51766968 C257.62743227 14.910019 258.30761501 20.80929628 259.27368164 29.19540405 C262.76277763 60.89430799 262.76277763 60.89430799 279.72094727 87.03329468 C283.49884467 89.85445183 287.70233681 91.59544206 292.01000977 93.45126343 C299.69361639 96.96709555 305.07830154 101.28046249 308.19360352 109.30282593 C310.10915643 115.4190427 309.96355716 121.52578929 309.90063477 127.88095093 C309.91223633 129.05270874 309.92383789 130.22446655 309.93579102 131.43173218 C309.90021041 141.99917308 308.12212056 150.68301032 300.52563477 158.38095093 C292.80528041 163.90799784 285.06712055 164.09484297 275.87524414 164.01586914 C274.40530179 164.02163858 272.93536667 164.02958521 271.46544647 164.03950536 C267.44818726 164.06028944 263.43152544 164.05010243 259.41426468 164.03457427 C255.07333676 164.02322986 250.73250932 164.04073875 246.39160156 164.05447388 C237.89647835 164.07667793 229.40157634 164.07191775 220.90644455 164.05741067 C214.00076232 164.04610727 207.09514196 164.0445923 200.18945312 164.05002975 C198.71377342 164.051179 198.71377342 164.051179 197.20828199 164.05235147 C195.20958263 164.05395013 193.21088328 164.0555712 191.21218395 164.05721442 C172.48133962 164.07146363 153.75061775 164.0550922 135.01979351 164.02821259 C118.95657512 164.00587457 102.8935374 164.00975494 86.83032227 164.0328064 C68.1653674 164.05957903 49.50051979 164.07009041 30.8355484 164.05474508 C28.84430442 164.05315237 26.85306042 164.05158052 24.86181641 164.05002975 C23.88215015 164.04925838 22.90248389 164.048487 21.89313078 164.04769225 C14.99773802 164.04337964 8.10241345 164.05065233 1.20703125 164.06242752 C-7.19904221 164.0764673 -15.6048823 164.0726215 -24.01092911 164.0460238 C-28.29783213 164.03290548 -32.58434641 164.02769915 -36.87124634 164.04426956 C-40.79947317 164.05922365 -44.72695275 164.05089205 -48.65511227 164.0243818 C-50.07220189 164.01881981 -51.4893553 164.02158589 -52.90640354 164.03376074 C-61.44451745 164.10146167 -68.37615304 163.46260262 -75.47436523 158.38095093 C-84.03395062 149.70704805 -84.98344121 139.74441148 -84.91186523 128.00595093 C-84.9318457 126.85095093 -84.95182617 125.69595093 -84.97241211 124.50595093 C-84.96727245 115.398477 -83.62638345 106.83422133 -77.66186523 99.63095093 C-73.69898667 96.02833405 -68.87635322 94.13336053 -64.03588867 91.99838257 C-52.19135977 86.68545923 -46.74459987 78.15332832 -41.84936523 66.44345093 C-37.59403735 54.77208538 -35.57135746 42.65045154 -34.47436523 30.31845093 C-33.46577254 19.56988945 -31.51727919 12.51784863 -23.27905273 5.07235718 C-16.03946166 0.70641994 -8.28815792 -0.06020875 0 0 Z M-15.47436523 23.38095093 C-16.33449415 25.90153252 -16.33449415 25.90153252 -16.44311523 28.59970093 C-16.53625 29.60396118 -16.62938477 30.60822144 -16.7253418 31.64291382 C-16.8486084 33.24574219 -16.8486084 33.24574219 -16.97436523 34.88095093 C-19.3677091 58.89637726 -24.52080445 85.60375755 -44.20092773 101.82235718 C-49.62846422 105.54329714 -55.70735509 108.16746696 -61.71655273 110.80282593 C-64.76606728 112.54787391 -65.26492934 113.19567283 -66.47436523 116.38095093 C-66.8944027 120.18294341 -66.79870063 123.99561817 -66.78686523 127.81845093 C-66.80297852 128.85550171 -66.8190918 129.89255249 -66.83569336 130.96102905 C-66.94680155 138.20834504 -66.94680155 138.20834504 -63.47436523 144.38095093 C-60.80980457 145.71323126 -58.79007071 145.51010688 -55.80459785 145.515172 C-54.59086089 145.51962985 -53.37712393 145.52408769 -52.12660706 145.52868062 C-50.76752034 145.52859132 -49.40843362 145.52840145 -48.04934692 145.52812195 C-46.61504004 145.53141962 -45.18073409 145.53514498 -43.74642932 145.53926343 C-39.79092139 145.54930232 -35.83542863 145.55300324 -31.87990975 145.55565274 C-27.61942665 145.55955013 -23.35895563 145.56912876 -19.09848022 145.5778656 C-8.80332496 145.59764466 1.49183131 145.60769744 11.78700083 145.61659339 C16.63099239 145.6209734 21.47498285 145.6263409 26.31897354 145.63158226 C42.41376201 145.64859497 58.50854979 145.66309068 74.60334587 145.670331 C78.7817065 145.672241 82.96006713 145.67416132 87.13842773 145.67611694 C88.69625828 145.67684255 88.69625828 145.67684255 90.28556015 145.67758282 C107.1215996 145.68588886 123.95756813 145.71123526 140.79357658 145.74369762 C158.06477018 145.77672862 175.33592769 145.79477612 192.60715306 145.79797524 C202.31003473 145.80014388 212.01281295 145.80894413 221.71566391 145.83443642 C229.97639141 145.85608929 238.23699034 145.86422059 246.497743 145.85446963 C250.71495787 145.84990932 254.93190715 145.85191101 259.149086 145.87123108 C263.00688289 145.88875267 266.86421829 145.88795562 270.72201933 145.87233379 C272.12041194 145.86994086 273.5188356 145.87436781 274.91718052 145.88616244 C276.81279241 145.9011658 278.70856081 145.88927992 280.6041851 145.87593555 C281.65872348 145.87691236 282.71326185 145.87788917 283.79975593 145.87889558 C287.21732525 145.2545977 288.37186876 144.04586328 290.52563477 141.38095093 C292.50905592 137.41410862 291.75437182 132.43001354 291.77563477 128.06845093 C291.80657227 126.4993396 291.80657227 126.4993396 291.83813477 124.89852905 C291.84329102 123.88597046 291.84844727 122.87341187 291.85375977 121.83016968 C291.86777832 120.44317871 291.86777832 120.44317871 291.88208008 119.02816772 C291.44876628 115.81007079 290.4623844 113.97232921 288.52563477 111.38095093 C286.02838282 110.17138973 283.67993234 109.1937247 281.08813477 108.25595093 C265.60040915 101.99819561 257.84271544 90.99870092 251.06860352 76.19735718 C245.19388849 61.98090178 242.98538092 47.45086438 241.82788086 32.20248413 C241.72942871 31.13215942 241.63097656 30.06183472 241.52954102 28.95907593 C241.45550049 28.00420288 241.38145996 27.04932983 241.30517578 26.06552124 C240.19106873 22.22877801 238.69366482 20.82822758 235.52563477 18.38095093 C232.22526561 17.64427884 228.98931943 17.70600669 225.61889648 17.74603271 C224.61359831 17.73823276 223.60830013 17.73043281 222.57253838 17.72239649 C219.19976159 17.70243308 215.82810767 17.71825887 212.45532227 17.73397827 C210.03907613 17.72720413 207.62283516 17.71830215 205.206604 17.70742798 C199.32266191 17.6869754 193.43901204 17.68999657 187.55507803 17.70449118 C182.77308122 17.71578354 177.99117379 17.71731437 173.20916748 17.7118721 C172.52854968 17.71110594 171.84793188 17.71033977 171.1466893 17.70955039 C169.7640236 17.70795176 168.38135792 17.70633069 166.99869227 17.70468743 C154.03363689 17.69042995 141.06875827 17.70682255 128.10373187 17.73368926 C116.97930368 17.75602812 105.85513637 17.75214799 94.73071289 17.72909546 C81.81204241 17.70233734 68.89352686 17.69180324 55.97483253 17.70715678 C54.59725573 17.70874952 53.2196789 17.71032138 51.84210205 17.7118721 C51.16430942 17.71264348 50.4865168 17.71341486 49.788185 17.71420961 C45.01197076 17.7185266 40.23585479 17.71124013 35.45965576 17.69947433 C29.03111733 17.68398622 22.60295593 17.69501438 16.17446136 17.72394562 C13.81255666 17.73056741 11.45061056 17.72864025 9.08872223 17.71763229 C5.86937496 17.70400929 2.65161839 17.72105509 -0.56762695 17.74603271 C-1.50682543 17.73487911 -2.4460239 17.7237255 -3.41368294 17.7122339 C-9.13961267 17.79866595 -11.88559566 18.5084878 -15.47436523 23.38095093 Z " fill="#000000" transform="translate(143.474365234375,348.6190490722656)"/>
<path d="M0 0 C0.85084712 -0.00384115 1.70169425 -0.00768229 2.57832462 -0.01163983 C3.98855727 -0.01034011 3.98855727 -0.01034011 5.42727947 -0.00901413 C6.42184727 -0.01198525 7.41641507 -0.01495637 8.44112128 -0.01801753 C11.79521424 -0.02673371 15.14927164 -0.02821524 18.50337505 -0.02970505 C20.89946857 -0.03433115 23.29556134 -0.03935553 25.69165325 -0.04475021 C32.216455 -0.05789608 38.74124931 -0.06435984 45.26606107 -0.06876087 C49.33894338 -0.07152178 53.41182331 -0.07575887 57.48470402 -0.08026505 C68.75759545 -0.09245925 80.03048498 -0.1027581 91.30338287 -0.10614014 C92.02515197 -0.1063597 92.74692106 -0.10657927 93.49056194 -0.10680549 C94.57583266 -0.10713291 94.57583266 -0.10713291 95.68302804 -0.10746694 C97.14918538 -0.1079104 98.61534272 -0.10835697 100.08150005 -0.10880661 C100.8087675 -0.10902804 101.53603495 -0.10924947 102.28534081 -0.10947761 C114.07034213 -0.11342582 125.85528163 -0.13087985 137.64025906 -0.15416613 C149.73487172 -0.17787164 161.82945334 -0.19034163 173.92408961 -0.19150805 C180.71672982 -0.1924253 187.50928949 -0.19818985 194.30190754 -0.21632767 C200.69007942 -0.23332516 207.07813912 -0.23498724 213.46632862 -0.22618866 C215.81373027 -0.22541571 218.16113998 -0.22979479 220.50852108 -0.23964691 C223.70794324 -0.25228972 226.90681678 -0.24653117 230.10623455 -0.23606491 C231.50642896 -0.24814952 231.50642896 -0.24814952 232.93491012 -0.26047826 C237.7453763 -0.22356046 241.08015848 -0.05901562 244.95723248 3.13142776 C246.10086359 5.41869 246.2222518 6.95995204 246.33223248 9.50642776 C246.38121685 10.27728714 246.43020123 11.04814651 246.48066998 11.84236526 C245.95723248 14.13142776 245.95723248 14.13142776 244.04368877 16.24274826 C239.68359575 18.91079781 236.07076009 18.68705754 231.05049419 18.63936234 C229.54254693 18.64872228 229.54254693 18.64872228 228.00413609 18.65827131 C224.63149299 18.67424141 221.25956859 18.6615809 217.88691998 18.64900589 C215.47067626 18.6544252 213.05443585 18.66154678 210.63820171 18.67024612 C204.75429565 18.68660809 198.87057662 18.68419119 192.98667574 18.67259556 C188.20468852 18.6635617 183.4227585 18.66233702 178.64076519 18.66669083 C177.61983849 18.66761022 177.61983849 18.66761022 176.57828701 18.6685482 C175.19562131 18.6698271 173.81295564 18.67112395 172.43028998 18.67243856 C159.46525929 18.68384453 146.50034172 18.67073044 133.53532958 18.6492371 C122.41093326 18.63136606 111.2867039 18.63447016 100.1623106 18.65291214 C87.24365585 18.67431861 74.32510025 18.68274589 61.40643024 18.67046309 C60.02885343 18.66918889 58.6512766 18.66793141 57.27369976 18.66669083 C56.59590713 18.66607372 55.91811451 18.66545662 55.21978271 18.66482082 C50.44358208 18.66136724 45.66744436 18.66719642 40.89125347 18.67660904 C34.46276555 18.68899943 28.03451893 18.68017688 21.60605907 18.65703201 C19.24415137 18.65173457 16.88221717 18.65327628 14.52031994 18.66208267 C11.30117575 18.67298039 8.08304972 18.6593434 4.86397076 18.63936234 C3.45517304 18.65274667 3.45517304 18.65274667 2.01791477 18.66640139 C-2.19971663 18.61546977 -4.45895983 18.49027186 -8.12263203 16.23835373 C-10.31973009 13.82752233 -10.69894085 12.84938188 -10.60526752 9.63142776 C-10.42696405 6.34632123 -10.19840139 5.33893958 -8.16776752 2.63142776 C-5.1962828 0.53390913 -3.5839544 0.00605547 0 0 Z " fill="#000000" transform="translate(138.04276752471924,442.8685722351074)"/>
<path d="M0 0 C4.63235294 2.26470588 4.63235294 2.26470588 6 5 C6.70436592 11.45668759 5.12949172 15.24224212 2.30859375 21.00390625 C-3.28487019 33.81043413 -3.16700786 47.78850095 -2.78515625 61.46875 C-2.77097656 62.49484375 -2.75679687 63.5209375 -2.7421875 64.578125 C-2.7201123 65.50012695 -2.69803711 66.42212891 -2.67529297 67.37207031 C-3.18469572 71.4947855 -5.10962018 74.10962018 -8 77 C-12.33641175 78.15637647 -15.06197655 78.23509439 -19 76 C-22.39417954 72.5551687 -22.38568612 69.71145326 -22.3984375 64.98828125 C-22.40266724 64.3071376 -22.40689697 63.62599396 -22.41125488 62.92420959 C-22.41764581 60.71982619 -22.39882749 58.51675156 -22.375 56.3125 C-22.37034729 55.56357483 -22.36569458 54.81464966 -22.36090088 54.04302979 C-22.22586512 35.62227219 -21.14135012 15.26111146 -8 1 C-5.17998673 -0.41000664 -3.12992745 -0.24548451 0 0 Z " fill="#000000" transform="translate(107,68)"/>
<path d="M0 0 C2.13142985 3.71026678 2.36546661 5.71904109 1.6875 9.9375 C0.10784305 12.8313619 -1.18207262 14.56784238 -4.38354492 15.61474609 C-6.97790776 16.12383454 -9.5682793 16.51532235 -12.1875 16.875 C-20.36099169 18.18073688 -26.91448905 20.22691848 -34.421875 23.72265625 C-38.52680779 25.44783746 -40.94117939 25.81176412 -45.3125 24.9375 C-48.3125 22.875 -48.3125 22.875 -50.3125 19.9375 C-50.9375 16.4375 -50.9375 16.4375 -50.3125 12.9375 C-43.81236587 3.83731221 -29.75034486 0.39972376 -19.33203125 -1.6484375 C-5.65882313 -3.52341817 -5.65882313 -3.52341817 0 0 Z " fill="#000000" transform="translate(169.3125,36.0625)"/>
<path d="M0 0 C3.04111526 2.43813551 3.8961099 3.61906965 4.9375 7.4375 C5.00779003 11.44403151 4.53249114 12.94354518 2 16 C-1.61803373 18.35694024 -5.63126614 18.65147471 -9.8125 19.25 C-16.75120133 20.32905297 -22.87249124 22.20959169 -29.26489258 25.10644531 C-33.72031166 27.09322945 -33.72031166 27.09322945 -37 26 C-38.20227899 23.68612486 -39.22074739 21.47102687 -40.1875 19.0625 C-40.46013672 18.41603516 -40.73277344 17.76957031 -41.01367188 17.10351562 C-43 12.30944549 -43 12.30944549 -43 10 C-30.66082578 4.13351464 -13.94744657 -3.06438244 0 0 Z " fill="#000000" transform="translate(354,34)"/>
</svg>
