<?xml version="1.0" encoding="UTF-8"?>
<svg version="1.1" xmlns="http://www.w3.org/2000/svg" width="512" height="512">
<path d="M0 0 C4.11218571 1.95788195 7.56790025 4.2078252 11.03515625 7.14453125 C15.12991782 10.39068026 19.39232186 11.29413223 24.41650391 12.47729492 C34.11293539 14.86227515 44.03580934 19.09940134 50.34765625 27.08203125 C50.34765625 27.74203125 50.34765625 28.40203125 50.34765625 29.08203125 C51.31703125 28.75203125 52.28640625 28.42203125 53.28515625 28.08203125 C60.97045728 25.95236952 66.85659269 26.86140849 74.0859375 30.109375 C76.22586016 31.02965262 78.03779392 31.77748551 80.34765625 32.08203125 C82.11522661 31.13511856 83.88513369 30.18267091 85.56640625 29.08984375 C92.61635292 25.10105813 104.97732839 25.88489599 112.61328125 27.9765625 C115.22265625 29.08203125 115.22265625 29.08203125 117.40234375 30.20703125 C120.35201074 31.53378909 122.69785752 31.32036996 125.68530273 30.22460938 C126.97029663 29.67450195 126.97029663 29.67450195 128.28125 29.11328125 C134.72083804 26.69268897 140.58786958 26.48633582 147.41015625 26.58203125 C148.51681641 26.5665625 149.62347656 26.55109375 150.76367188 26.53515625 C158.15504553 26.570083 163.69375273 27.94474421 170.34765625 31.08203125 C173.17952324 32.381215 173.17952324 32.381215 175.25 31.33984375 C176.25740234 30.77910156 176.25740234 30.77910156 177.28515625 30.20703125 C182.46927348 27.35027301 186.90352924 26.90689091 192.7890625 26.84375 C193.87343849 26.83164238 193.87343849 26.83164238 194.97972107 26.81929016 C196.510301 26.80548316 198.04091129 26.79474592 199.5715332 26.78686523 C201.11817616 26.77540144 202.66478133 26.75503925 204.21118164 26.7253418 C212.81513637 26.5603597 220.15653899 26.60791322 228.16381836 30.21801758 C231.18009982 31.41137924 233.52357563 31.40478852 236.54248047 30.22241211 C237.36248535 29.85510986 238.18249023 29.48780762 239.02734375 29.109375 C246.02062562 26.4790556 252.85464512 26.51246302 260.20947266 26.61547852 C262.47632602 26.64457836 264.74084974 26.63601913 267.0078125 26.62304688 C275.75580773 26.63641422 283.1259732 27.22253815 290.97265625 31.51953125 C293.62566166 32.42048844 293.62566166 32.42048844 296.84765625 30.26953125 C297.6675 29.70298828 297.6675 29.70298828 298.50390625 29.125 C304.09641316 25.96144207 311.39103518 26.86086573 317.59765625 26.83203125 C318.69207031 26.81140625 319.78648437 26.79078125 320.9140625 26.76953125 C328.73462375 26.73206748 335.08289823 27.74656852 341.97265625 31.51953125 C344.63334363 32.42002201 344.63334363 32.42002201 347.91015625 30.26953125 C348.74740234 29.70298828 348.74740234 29.70298828 349.6015625 29.125 C356.02521653 25.28805229 366.10862473 26.4072618 373.34765625 27.08203125 C376.95751274 28.03199348 380.02708171 29.42174398 383.34765625 31.08203125 C385.33732007 31.89489654 385.33732007 31.89489654 387.34765625 32.08203125 C389.11522661 31.13511856 390.88513369 30.18267091 392.56640625 29.08984375 C397.5719009 26.25778756 403.97791387 26.37487728 409.48828125 27.53125 C411.12276077 27.99966791 412.73809009 28.53409383 414.34765625 29.08203125 C414.75177734 28.18291016 414.75177734 28.18291016 415.1640625 27.265625 C419.02866786 20.13587453 427.07447896 16.74484142 434.34765625 14.08203125 C437.21054676 13.24551741 440.09265857 12.48224631 442.97265625 11.70703125 C449.20977909 10.01684459 453.59132663 7.98094403 458.51953125 3.6640625 C463.68014886 -0.80185659 469.18766286 -1.4829514 475.76171875 -1.2578125 C479.61519205 -0.75138927 481.57114735 0.37324208 484.34765625 3.08203125 C488.68992501 9.29359608 488.94641693 15.2563381 488.78515625 22.64453125 C488.76533691 24.23744995 488.76533691 24.23744995 488.74511719 25.86254883 C488.53508216 35.0725849 487.63981579 43.95916317 484.38305664 52.65869141 C481.00808522 62.16240308 480.62869733 71.20675397 480.36306763 81.21362305 C480.23038773 86.09840536 480.03439111 90.98063119 479.83984375 95.86328125 C479.80224442 96.82810425 479.76464508 97.79292725 479.72590637 98.7869873 C479.38559316 107.08530922 478.76867331 115.32080847 477.91015625 123.58203125 C477.74471313 125.24878906 477.74471313 125.24878906 477.57592773 126.94921875 C475.31730869 147.40463651 475.31730869 147.40463651 469.34765625 154.08203125 C467.00318138 155.86087101 464.52789009 157.31544959 461.97265625 158.76953125 C452.40770166 164.48567854 443.965627 171.24358717 435.41015625 178.3515625 C415.51491253 194.82378804 396.01100596 207.08203125 369.34765625 207.08203125 C369.34765625 229.52203125 369.34765625 251.96203125 369.34765625 275.08203125 C399.39189681 271.61538811 421.31689319 266.29519339 446.78515625 251.68359375 C451.69115956 248.98145911 454.8767827 248.38731715 460.34765625 249.08203125 C465.82659365 251.06828554 468.42638484 254.01780231 471.34765625 259.08203125 C473.19323037 271.16898393 470.42156965 284.3416814 468.89761353 296.34677124 C466.49320966 315.35908761 464.58946811 334.25834006 464.01806641 353.41845703 C463.70114569 363.03606195 463.32291517 372.19924365 456.23780251 379.40593779 C447.63267915 387.03655946 437.95564913 386.79480584 427.11572266 386.71694946 C425.36529544 386.72271618 423.61487429 386.73066099 421.86446571 386.74058568 C417.07193208 386.76140667 412.27989799 386.75116544 407.48736286 386.73565459 C402.31207758 386.72432557 397.13687722 386.74181151 391.96160889 386.7555542 C381.83018136 386.77777452 371.69893916 386.77299074 361.56750441 386.75849099 C353.33268686 386.74719404 345.09792122 386.74566984 336.86309814 386.75111008 C335.69058711 386.75187624 334.51807607 386.75264241 333.31003439 386.75343179 C330.92801903 386.75503043 328.54600368 386.7566515 326.16398835 386.75829475 C303.83356331 386.77254872 281.50324093 386.756165 259.17283273 386.72929291 C240.01686311 386.70695449 220.861045 386.71083471 201.70507812 386.73388672 C179.45396366 386.76065088 157.20293915 386.77117546 134.95181084 386.7558254 C132.57861202 386.75423267 130.2054132 386.75266082 127.83221436 386.75111008 C126.6645886 386.7503387 125.49696285 386.74956732 124.29395449 386.74877257 C116.07007284 386.74445743 107.8462483 386.75173813 99.62237549 386.76350784 C89.59869314 386.77753818 79.57520653 386.7737215 69.55154657 386.74710412 C64.43835586 386.73397329 59.32549139 386.72880125 54.21230316 386.74534988 C49.52914711 386.76027738 44.84661892 386.75201497 40.16351962 386.72546212 C38.47186805 386.71988904 36.78016316 386.72269124 35.08854604 386.73484106 C25.03170156 386.80151741 16.36072964 386.41935053 8.45750904 379.40430033 C2.05505145 372.89874699 0.92923547 364.22317604 0.5390625 355.4765625 C0.48761078 354.57086517 0.43615906 353.66516785 0.38314819 352.73202515 C0.2732035 350.79251492 0.16822944 348.85271751 0.06784058 346.91268921 C-0.20128192 341.76154827 -0.51448859 336.61319771 -0.83203125 331.46484375 C-0.89606644 330.4237999 -0.96010162 329.38275604 -1.02607727 328.31016541 C-1.66546531 318.26817888 -2.62227014 308.27131425 -3.71484375 298.26953125 C-3.79693085 297.51394928 -3.87901794 296.75836731 -3.96359253 295.97988892 C-4.67695662 289.45398159 -5.40730265 282.93156301 -6.25341797 276.42138672 C-6.35069687 275.65377518 -6.44797577 274.88616364 -6.54820251 274.09529114 C-6.73436369 272.63351568 -6.92709536 271.17255558 -7.12770081 269.71269226 C-7.81357895 264.27950286 -7.68193876 259.75265689 -4.65234375 255.08203125 C-1.00867966 251.00271167 2.88827947 248.97570668 8.34765625 248.64453125 C14.63387027 248.73548933 19.09662844 251.9112183 24.34765625 255.08203125 C46.89592024 268.30642779 69.37340162 272.34789918 95.34765625 275.08203125 C95.34765625 252.64203125 95.34765625 230.20203125 95.34765625 207.08203125 C91.71765625 207.08203125 88.08765625 207.08203125 84.34765625 207.08203125 C61.00637236 203.02267753 44.17367294 190.57607346 26.40234375 175.80859375 C18.03877589 168.88169381 9.59374407 162.78183476 0.34765625 157.08203125 C-6.12708634 153.03434786 -8.4957803 149.27793588 -10.4921875 142.03515625 C-13.82508054 127.11175459 -14.52845126 111.79221836 -15.0078125 96.5546875 C-15.07442535 94.63174195 -15.14140603 92.7088091 -15.20874023 90.78588867 C-15.34120145 86.99313382 -15.4384823 83.20169823 -15.51586914 79.4074707 C-15.85267031 67.82317592 -17.7332521 57.62462541 -21.28613281 46.59033203 C-23.74396539 38.8536541 -23.89073268 31.19299362 -23.96484375 23.14453125 C-23.99384766 22.09845703 -24.02285156 21.05238281 -24.05273438 19.97460938 C-24.10590319 13.46756397 -23.48033728 8.47594588 -19.65234375 3.08203125 C-14.16842375 -2.2681346 -7.01344063 -2.42733218 0 0 Z M-5.65234375 19.08203125 C-6.41393849 32.4310946 -3.82774894 44.50165312 0.6953125 57.01953125 C1.72893711 60.28751805 2.26528163 63.6378657 2.8203125 67.015625 C3.2128888 69.28746336 3.2128888 69.28746336 5.34765625 71.08203125 C8.93580818 71.13403345 12.46974066 71.02640409 16.05078125 70.828125 C21.79982725 70.65903541 21.79982725 70.65903541 24.73046875 72.921875 C25.26414062 73.63472656 25.7978125 74.34757812 26.34765625 75.08203125 C30.18803523 79.26534974 30.18803523 79.26534974 35.34765625 81.08203125 C35.52089568 75.04987234 35.64781566 69.0191651 35.73217773 62.98510742 C35.76734769 60.93341853 35.81509365 58.88190468 35.87573242 56.83081055 C35.96080647 53.87895555 36.00037776 50.929421 36.03125 47.9765625 C36.067379 47.06179642 36.103508 46.14703033 36.14073181 45.20454407 C36.20878827 40.39675838 36.20878827 40.39675838 33.8531189 36.40246582 C30.21174321 33.72785519 26.45595853 32.17253766 22.09765625 30.95703125 C20.97488281 30.63089844 19.85210937 30.30476563 18.6953125 29.96875 C16.58828516 29.41064591 14.47146913 28.8871964 12.34375 28.4140625 C6.13086781 26.98829677 2.43095095 25.05132717 -2.09375 20.5078125 C-3.54623188 18.85704104 -3.54623188 18.85704104 -5.65234375 19.08203125 Z M467.22265625 19.91015625 C460.51633747 25.55950088 455.04635963 28.09417063 446.45092773 29.76025391 C439.83661701 31.06253786 434.19238882 33.23729868 429.34765625 38.08203125 C429.05661916 39.97999863 429.05661916 39.97999863 429.12060547 42.16455078 C429.12075653 43.0052713 429.12090759 43.84599182 429.12106323 44.71218872 C429.1313858 45.62056488 429.14170837 46.52894104 429.15234375 47.46484375 C429.15517365 48.39424774 429.15800354 49.32365173 429.16091919 50.28121948 C429.17213556 53.25661975 429.19724265 56.2317216 429.22265625 59.20703125 C429.23268417 61.22134983 429.24181035 63.23567311 429.25 65.25 C429.27207964 70.19412581 429.30661932 75.1380279 429.34765625 80.08203125 C433.44492645 79.50525037 433.44492645 79.50525037 436.47265625 76.70703125 C437.09140625 75.84078125 437.71015625 74.97453125 438.34765625 74.08203125 C440.15667501 71.77964374 441.0635257 71.16519141 443.91015625 70.33203125 C447.75452167 70.05244104 451.26813043 70.41075894 455.078125 70.92578125 C457.51376405 71.23812896 457.51376405 71.23812896 460.34765625 70.08203125 C462.02370881 67.42684145 462.66526164 64.96722856 463.16015625 61.89453125 C464.21606393 56.18070822 465.87439499 50.69327754 467.58325195 45.14770508 C469.62764653 38.43417707 470.49885197 32.24810722 470.41015625 25.20703125 C470.40564453 24.51867187 470.40113281 23.8303125 470.39648438 23.12109375 C470.38481961 21.4413679 470.36688896 19.7616875 470.34765625 18.08203125 C469.00680993 17.97333668 469.00680993 17.97333668 467.22265625 19.91015625 Z M56.53515625 46.83203125 C51.71273441 51.79223657 53.05034265 59.19315473 52.99755859 65.70556641 C52.98099489 67.20312028 52.95369854 68.70059496 52.91552734 70.19775391 C52.86060987 72.36532253 52.83886792 74.53104719 52.82421875 76.69921875 C52.80439941 77.99456543 52.78458008 79.28991211 52.76416016 80.62451172 C53.49329051 84.94499042 54.99972172 86.35934765 58.34765625 89.08203125 C60.21858306 90.32104836 60.21858306 90.32104836 62.34765625 90.08203125 C64.88755235 88.58797472 67.2530328 87.1766547 69.34765625 85.08203125 C69.48581 82.53523831 69.5607631 80.01747336 69.5859375 77.46875 C69.59400925 76.70279007 69.60208099 75.93683014 69.61039734 75.1476593 C69.62425375 73.52269769 69.63496892 71.89770679 69.64282227 70.27270508 C69.66001476 67.7899631 69.70388154 65.30855974 69.74804688 62.82617188 C69.75817533 61.24870773 69.76669096 59.67123224 69.7734375 58.09375 C69.79094559 57.35194992 69.80845367 56.61014984 69.82649231 55.84587097 C69.81191836 52.37273033 69.62695304 50.4515288 67.50463867 47.64379883 C63.54905957 44.77975361 60.73945184 44.21602511 56.53515625 46.83203125 Z M89.34765625 48.08203125 C86.35119825 53.89443773 86.90136838 60.31620339 86.8671875 66.69165039 C86.84779686 68.87867213 86.78571558 71.06190813 86.72265625 73.24804688 C86.61446258 80.46801263 86.69826159 86.11698207 91.85742188 91.70581055 C92.34919922 92.15996338 92.84097656 92.61411621 93.34765625 93.08203125 C94.00765625 93.74203125 94.66765625 94.40203125 95.34765625 95.08203125 C101.92555785 94.82903503 105.91179406 92.53343677 110.49023438 87.92578125 C112.81842389 84.36127659 112.92642637 81.45327867 112.87890625 77.33203125 C112.88464661 76.22843262 112.88464661 76.22843262 112.89050293 75.10253906 C112.89321528 73.55272039 112.88590144 72.00285541 112.86914062 70.453125 C112.84771758 68.08879982 112.86896136 65.72751259 112.89453125 63.36328125 C112.89188785 61.85285792 112.88676261 60.34243646 112.87890625 58.83203125 C112.88700317 58.12981445 112.8951001 57.42759766 112.90344238 56.70410156 C112.81231037 51.90351146 111.74349563 49.4556756 108.34765625 46.08203125 C105.67109824 44.74375224 103.52331573 44.87624569 100.53515625 44.83203125 C99.49746094 44.80625 98.45976563 44.78046875 97.390625 44.75390625 C93.87072172 45.13345936 92.1027361 45.87027431 89.34765625 48.08203125 Z M131.34765625 49.08203125 C129.06369297 53.64995781 130.03608503 60.35669327 129.99755859 65.4296875 C129.98102972 67.02423733 129.95377974 68.618714 129.91552734 70.21289062 C129.86051518 72.5186178 129.83884808 74.82260955 129.82421875 77.12890625 C129.80154938 77.83537292 129.77888 78.5418396 129.75552368 79.26971436 C129.77964811 84.97313921 131.49009126 87.20439568 135.34765625 91.08203125 C140.42530949 95.16599321 145.89253832 95.54447562 152.22265625 95.61328125 C155.16227321 95.11354637 156.93310739 94.39797104 159.54296875 93.04882812 C160.25727051 92.68237183 160.97157227 92.31591553 161.70751953 91.93835449 C162.24876465 91.65576782 162.79000977 91.37318115 163.34765625 91.08203125 C163.44656702 85.3162944 163.5191447 79.55105185 163.56738281 73.78466797 C163.58749257 71.82331744 163.61478443 69.86202681 163.64941406 67.90087891 C163.69796046 65.0809043 163.72063111 62.2617226 163.73828125 59.44140625 C163.75892639 58.56522644 163.77957153 57.68904663 163.80084229 56.78631592 C163.8416235 51.81032004 163.8416235 51.81032004 161.44824219 47.55957031 C156.82911434 44.31050456 152.53872938 44.82482502 147.03515625 44.76953125 C145.60913086 44.72602539 145.60913086 44.72602539 144.15429688 44.68164062 C138.63220978 44.63147491 135.26091568 44.73306871 131.34765625 49.08203125 Z M182.34765625 49.08203125 C180.28107771 55.28176688 180.9177453 62.45279745 180.83276367 68.95874023 C180.80117115 70.82399537 180.75346535 72.68905109 180.68920898 74.5534668 C179.99448941 85.17852425 179.99448941 85.17852425 183.03881836 95.06713867 C189.19943044 101.37292401 196.44067553 103.58301626 205.03515625 104.45703125 C211.2854587 104.37401015 216.98065313 101.31567823 221.45800781 97.09057617 C224.12762994 92.84022042 223.92325987 89.28829882 223.87890625 84.36328125 C223.88273315 83.42778442 223.88656006 82.4922876 223.89050293 81.52844238 C223.89321913 79.55492066 223.88587844 77.58136277 223.86914062 75.60791016 C223.84772671 72.5919548 223.86895209 69.57838151 223.89453125 66.5625 C223.89188792 64.64192184 223.88676284 62.72134516 223.87890625 60.80078125 C223.88700317 59.90170044 223.8951001 59.00261963 223.90344238 58.07629395 C223.84094111 53.89070524 223.70743086 51.65612401 221.43945312 48.03710938 C216.76003421 43.66353483 210.70784081 44.82138585 204.65405273 44.78686523 C202.55320573 44.76967891 200.45394424 44.72579526 198.35351562 44.68164062 C197.0117303 44.67151073 195.66993161 44.66299555 194.328125 44.65625 C193.11020264 44.64166748 191.89228027 44.62708496 190.63745117 44.61206055 C186.72128138 45.17151337 185.09850179 46.28633325 182.34765625 49.08203125 Z M242.34765625 49.08203125 C241.2139592 51.34942536 241.19831626 52.65739642 241.15478516 55.17700195 C241.13872223 56.02160477 241.1226593 56.86620758 241.10610962 57.73640442 C241.0616408 61.60087277 241.02059405 65.46516959 240.99755859 69.32983398 C240.98099973 71.36771058 240.95371067 73.40552911 240.91552734 75.44311523 C240.86074385 78.38165405 240.83888249 81.3188317 240.82421875 84.2578125 C240.80154938 85.16630447 240.77888 86.07479645 240.75552368 87.01081848 C240.77047495 91.49120592 240.83795056 93.43363919 243.68505859 97.05541992 C250.26080668 102.06048914 254.93403939 104.83655188 263.34765625 104.08203125 C271.06975266 102.74810334 275.90484479 99.61822428 281.34765625 94.08203125 C282.00765625 93.42203125 282.66765625 92.76203125 283.34765625 92.08203125 C283.56012318 89.12732442 283.65161135 86.26883076 283.6484375 83.3125 C283.65486519 82.0027697 283.65486519 82.0027697 283.66142273 80.6665802 C283.66717243 78.81638456 283.6676616 76.9661663 283.66333008 75.1159668 C283.66018031 72.29110799 283.68358525 69.46730656 283.70898438 66.64257812 C283.71125839 64.8450534 283.71196039 63.04752587 283.7109375 61.25 C283.72014725 60.40712936 283.72935699 59.56425873 283.73884583 58.69584656 C283.70206985 54.00793588 283.41934294 50.86814748 280.34765625 47.08203125 C275.58271517 43.90540386 270.15010252 44.71012129 264.57861328 44.71142578 C262.48647187 44.70706008 260.39645464 44.67075504 258.3046875 44.6328125 C256.9674551 44.62694226 255.63021272 44.62297425 254.29296875 44.62109375 C253.08141113 44.61287598 251.86985352 44.6046582 250.62158203 44.59619141 C246.74328656 45.17171773 245.11255591 46.35899518 242.34765625 49.08203125 Z M303.34765625 47.08203125 C301.28728322 50.1725908 301.09966383 50.79129287 301.12060547 54.27807617 C301.12075653 55.11872116 301.12090759 55.95936615 301.12106323 56.82548523 C301.1313858 57.7287001 301.14170837 58.63191498 301.15234375 59.5625 C301.15517365 60.49048904 301.15800354 61.41847809 301.16091919 62.37458801 C301.17211789 65.33970004 301.1972219 68.30451046 301.22265625 71.26953125 C301.23268645 73.27929251 301.24181223 75.28905851 301.25 77.29882812 C301.27205621 82.22667878 301.30658396 87.15430387 301.34765625 92.08203125 C302.61430223 92.57706819 303.88292107 93.06705904 305.15234375 93.55493164 C305.85858887 93.82833878 306.56483398 94.10174591 307.29248047 94.38343811 C313.18790666 96.38740504 320.12687318 96.01342001 325.78515625 93.45703125 C329.43657625 91.54554964 332.1982139 88.5672236 334.34765625 85.08203125 C334.82718811 82.25325704 335.03003957 80.04595302 334.9765625 77.234375 C334.97897446 76.50005753 334.98138641 75.76574005 334.98387146 75.00917053 C334.98289684 73.46528696 334.9695953 71.92136676 334.94458008 70.37768555 C334.9101932 68.02206265 334.9239555 65.67018121 334.94335938 63.31445312 C334.93646184 61.80857788 334.92679027 60.30271225 334.9140625 58.796875 C334.91902237 58.09779526 334.92398224 57.39871552 334.92909241 56.67845154 C334.81450033 51.8957172 333.72675622 49.44612879 330.34765625 46.08203125 C326.6060796 44.21124293 322.08972937 44.89727597 317.97265625 44.89453125 C317.01359375 44.88228516 316.05453125 44.87003906 315.06640625 44.85742188 C314.14085937 44.85548828 313.2153125 44.85355469 312.26171875 44.8515625 C310.99255615 44.84539917 310.99255615 44.84539917 309.69775391 44.83911133 C307.09540283 45.10810565 305.54059068 45.66690233 303.34765625 47.08203125 Z M353.34765625 49.08203125 C351.06444319 53.64845737 351.99426184 60.3056699 351.94262695 65.37475586 C351.92109819 66.96254291 351.88705535 68.55021292 351.84008789 70.13745117 C351.14887207 80.45708922 351.14887207 80.45708922 355.15234375 89.5390625 C358.84247569 92.93107827 362.83261792 94.95934645 367.91015625 95.20703125 C372.17880156 93.23688726 375.2611183 89.25510715 377.34765625 85.08203125 C377.58361164 80.58743862 377.57609494 76.08892258 377.58789062 71.58886719 C377.59755931 69.3544337 377.62856327 67.12093483 377.66015625 64.88671875 C377.66669034 63.45703669 377.67193921 62.02734807 377.67578125 60.59765625 C377.68512695 59.30118164 377.69447266 58.00470703 377.70410156 56.66894531 C377.31908303 52.7944985 376.36268268 50.38945393 374.34765625 47.08203125 C368.45815724 42.69973736 358.02986172 43.59254898 353.34765625 49.08203125 Z M396.34765625 48.08203125 C394.00564169 52.76606038 395.03574195 59.76147685 394.99755859 64.96679688 C394.98099141 66.62351522 394.95369085 68.28016186 394.91552734 69.93652344 C394.86075395 72.32654843 394.83888751 74.71490068 394.82421875 77.10546875 C394.80154938 77.84413177 394.77888 78.5827948 394.75552368 79.34384155 C394.77133953 83.19491577 395.00276152 84.73364498 397.75927734 87.51806641 C400.85589381 89.5367516 400.85589381 89.5367516 404.34765625 90.08203125 C408.56038829 87.80029195 408.56038829 87.80029195 411.34765625 84.08203125 C411.58335585 79.56909809 411.5760792 75.05229669 411.58789062 70.53393555 C411.59757436 68.2885198 411.62858582 66.04402813 411.66015625 63.79882812 C411.66668877 62.36589084 411.67193827 60.93294702 411.67578125 59.5 C411.68512695 58.19828857 411.69447266 56.89657715 411.70410156 55.55541992 C411.32326899 51.84438905 410.60795136 50.01266872 408.34765625 47.08203125 C403.52920604 43.86973111 400.79353179 44.95790249 396.34765625 48.08203125 Z M3.34765625 88.08203125 C2.99859678 98.92873099 3.41716589 109.48827034 4.72265625 120.26953125 C4.84874268 121.31939209 4.9748291 122.36925293 5.10473633 123.45092773 C5.47511413 126.33654746 5.89714925 129.20795373 6.34765625 132.08203125 C6.45013672 132.85587158 6.55261719 133.62971191 6.65820312 134.42700195 C7.36265418 138.420289 8.2373588 139.98660374 11.33203125 142.6640625 C12.57412316 143.4292634 13.83038191 144.17179999 15.09765625 144.89453125 C16.47183737 145.74372205 17.84286614 146.59803211 19.2109375 147.45703125 C19.90525879 147.88886719 20.59958008 148.32070313 21.31494141 148.765625 C24.45029234 150.79610929 27.36892484 153.06415553 30.28515625 155.39453125 C30.85049072 155.8438501 31.4158252 156.29316895 31.99829102 156.75610352 C35.15482479 159.2819506 38.2783376 161.84650224 41.39453125 164.421875 C55.58485003 176.13106442 71.7720271 189.2995186 91.11328125 189.12109375 C91.91024414 189.1154541 92.70720703 189.10981445 93.52832031 189.10400391 C94.12870117 189.09675293 94.72908203 189.08950195 95.34765625 189.08203125 C95.34908127 188.52937088 95.35050629 187.97671051 95.35197449 187.40730286 C95.37168212 181.64790403 95.42597766 175.88956355 95.50024414 170.13061523 C95.52342147 167.98225501 95.53781922 165.83378121 95.54321289 163.68530273 C95.55250416 160.59416952 95.59349976 157.50482213 95.640625 154.4140625 C95.63669235 153.45554886 95.6327597 152.49703522 95.62870789 151.50947571 C95.72939954 146.89317255 95.84291753 144.74739955 98.7043457 140.9753418 C101.34765625 139.08203125 101.34765625 139.08203125 104.34765625 138.45703125 C108.51563151 139.32535943 109.76792696 140.69628688 112.34765625 144.08203125 C113.08949442 147.450606 113.06912764 150.75610069 113.0546875 154.1953125 C113.06980881 155.16486374 113.08493011 156.13441498 113.10050964 157.13334656 C113.14339116 160.22064462 113.15222524 163.30696503 113.16015625 166.39453125 C113.18330015 168.49156246 113.20866526 170.58857041 113.23632812 172.68554688 C113.2991853 177.81779478 113.331517 182.94943238 113.34765625 188.08203125 C120.78564883 187.05669381 127.94642102 185.88012638 135.09765625 183.58203125 C135.90928223 183.33211426 136.7209082 183.08219727 137.55712891 182.82470703 C141.75150546 181.53219622 145.93694626 180.21177948 150.12207031 178.88964844 C173.33398722 171.5675511 196.1814963 165.01430147 220.73828125 164.87890625 C221.59716446 164.87189194 222.45604767 164.86487762 223.34095764 164.85765076 C226.09324463 164.84026632 228.84531639 164.83379966 231.59765625 164.83203125 C232.53862152 164.83135651 233.47958679 164.83068176 234.44906616 164.82998657 C248.30052354 164.84577835 261.74213941 165.26372508 275.34765625 168.08203125 C276.10868652 168.22705078 276.8697168 168.37207031 277.65380859 168.52148438 C292.32213202 171.36110953 306.49609482 176.16289056 320.671875 180.80444336 C335.71113245 186.0328394 335.71113245 186.0328394 351.34765625 188.08203125 C351.35176514 186.77532471 351.35587402 185.46861816 351.36010742 184.12231445 C351.38190429 179.2670973 351.43620027 174.41268991 351.50024414 169.55786133 C351.52341921 167.45800547 351.53781869 165.35803345 351.54321289 163.25805664 C351.55250588 160.236406 351.59350471 157.21658108 351.640625 154.1953125 C351.63669235 153.25867264 351.6327597 152.32203278 351.62870789 151.35700989 C351.73056563 146.79106239 351.86342684 144.71755413 354.7043457 140.98901367 C357.34765625 139.08203125 357.34765625 139.08203125 360.34765625 138.45703125 C364.523767 139.32705432 365.76868638 140.68232218 368.34765625 144.08203125 C369.09199649 147.52292165 369.06909048 150.90359007 369.0546875 154.4140625 C369.06980881 155.40580978 369.08493011 156.39755707 369.10050964 157.4193573 C369.14339827 160.5779797 369.152226 163.73564664 369.16015625 166.89453125 C369.18329957 169.03973896 369.20866456 171.18492394 369.23632812 173.33007812 C369.29919151 178.58073822 369.33411669 183.83102477 369.34765625 189.08203125 C370.79091964 189.09218986 372.23420367 189.09944493 373.67749023 189.10546875 C374.88307838 189.11199463 374.88307838 189.11199463 376.11302185 189.11865234 C394.78529501 188.81265192 411.90986742 173.79575107 425.20507812 162.390625 C429.53756264 158.70056108 433.99249872 155.19703722 438.53515625 151.76953125 C439.21175293 151.2583374 439.88834961 150.74714355 440.58544922 150.22045898 C445.01817358 146.92756257 449.51095344 144.10055663 454.52734375 141.75390625 C459.6096493 137.08603764 459.23103548 126.18495836 459.97265625 119.70703125 C460.10454346 118.56830566 460.23643066 117.42958008 460.37231445 116.25634766 C461.39818228 106.82791276 461.67804391 97.55314413 461.34765625 88.08203125 C453.34777255 87.97008903 453.34777255 87.97008903 446.53515625 91.45703125 C445.45234375 92.75640625 445.45234375 92.75640625 444.34765625 94.08203125 C438.52174983 97.21905778 432.3123576 98.55401951 425.72265625 97.76953125 C422.8527792 98.14714665 422.1892283 98.95576812 420.09765625 100.89453125 C415.30676612 105.30006718 410.23967464 106.77217214 403.84765625 107.45703125 C397.91478891 106.82136689 392.62330977 104.82108387 387.34765625 102.08203125 C386.92355469 102.55253906 386.49945313 103.02304688 386.0625 103.5078125 C380.49094132 109.42223633 375.81278886 112.1808046 367.53515625 112.51953125 C358.32779412 112.26632879 351.47585303 108.66062003 344.34765625 103.08203125 C340.14038175 105.13605442 336.08456785 107.449618 332.00390625 109.7421875 C323.67934375 113.94119476 311.39962884 113.37245238 302.5703125 111.1171875 C300.58969842 110.39006465 298.62630081 109.61190928 296.6953125 108.76171875 C294.36764634 107.84448559 294.36764634 107.84448559 292.1875 108.8203125 C290.15251421 110.15055791 290.15251421 110.15055791 287.84765625 112.39453125 C277.9172086 120.95351043 264.79256576 121.77341511 252.34765625 121.08203125 C245.76073765 120.04291842 241.14022856 117.66447215 236.13671875 113.2890625 C234.15470044 111.7091737 234.15470044 111.7091737 230.34765625 112.08203125 C228.49239906 113.27962386 228.49239906 113.27962386 226.72265625 114.89453125 C218.2462612 121.48555166 208.78728236 121.91534952 198.34765625 121.08203125 C189.47785283 119.78716944 180.43460565 116.76093959 174.37890625 109.828125 C172.47817446 107.78390365 172.47817446 107.78390365 169.859375 108.234375 C167.60645379 108.99469211 165.38474602 109.8057515 163.16015625 110.64453125 C153.29172046 113.63317297 140.78521181 113.83974875 131.40625 109.3046875 C128.21408078 107.40876916 125.27316463 105.37155955 122.34765625 103.08203125 C119.48897583 104.47903345 116.72993198 105.99538838 113.97265625 107.58203125 C106.05084313 111.93453473 97.94791919 113.9894964 88.96875 111.39453125 C84.20223253 109.22382121 81.40345725 106.28375763 78.34765625 102.08203125 C75.59369599 102.70545522 73.41710778 103.49016654 70.78515625 104.64453125 C64.74679266 106.89631433 58.6810526 107.26017414 52.5625 105.09765625 C48.90986947 103.3547221 46.02757298 101.89354476 43.41015625 98.76953125 C40.26082982 96.19280963 37.17726241 96.98427157 33.23046875 97.12109375 C27.36952405 97.04167716 22.81469159 95.45126423 18.53515625 91.45703125 C13.82481574 87.94736577 9.08545396 88.18416034 3.34765625 88.08203125 Z M156.1328125 195.13671875 C154.55608765 195.65443848 154.55608765 195.65443848 152.94750977 196.18261719 C151.00192898 196.8255767 149.06027232 197.48067064 147.12475586 198.15332031 C135.96889201 201.87355797 125.11314021 203.63088876 113.34765625 206.08203125 C113.34765625 228.19203125 113.34765625 250.30203125 113.34765625 273.08203125 C125.70403115 270.43676534 125.70403115 270.43676534 137.53515625 266.58203125 C138.45022949 266.24381348 139.36530273 265.9055957 140.30810547 265.55712891 C146.76592292 263.14017431 153.13941634 260.537285 159.50756836 257.89453125 C215.90353376 234.4985301 263.13109548 240.27398348 318.69677734 263.203125 C329.43154221 267.5982174 339.81551949 271.43458314 351.34765625 273.08203125 C351.34765625 250.97203125 351.34765625 228.86203125 351.34765625 206.08203125 C343.42765625 204.43203125 335.50765625 202.78203125 327.34765625 201.08203125 C321.33367402 199.26275097 315.38376629 197.44000626 309.43945312 195.4329834 C288.01700927 188.22565444 266.40313414 182.07522662 243.6328125 181.84375 C242.82806992 181.83391083 242.02332733 181.82407166 241.19419861 181.81393433 C211.09457988 181.52207896 184.77953006 185.64002532 156.1328125 195.13671875 Z M156.72265625 277.70703125 C142.46267597 283.61091547 128.5012972 288.05130306 113.34765625 291.08203125 C113.34765625 302.30203125 113.34765625 313.52203125 113.34765625 325.08203125 C118.72848385 321.49481285 123.49254028 318.22500083 128.41015625 314.20703125 C134.69008269 309.46308682 134.69008269 309.46308682 138.84765625 309.26953125 C142.34765625 310.08203125 142.34765625 310.08203125 144.84765625 311.64453125 C146.9407724 315.045845 146.8991331 317.15275868 146.34765625 321.08203125 C143.77048327 324.80396217 140.93093851 327.37043766 137.28515625 330.01953125 C136.24359375 330.78265625 135.20203125 331.54578125 134.12890625 332.33203125 C133.2471875 332.97205078 133.2471875 332.97205078 132.34765625 333.625 C130.03738579 335.30806813 127.7390534 337.00677236 125.44140625 338.70703125 C122.08769973 341.18729398 118.73367694 343.66709544 115.375 346.140625 C114.67109131 346.65939209 113.96718262 347.17815918 113.24194336 347.71264648 C109.56509659 350.37064797 107.2273907 351.66526199 102.57763672 351.53271484 C98.12279935 350.63238314 94.8914296 347.67468203 91.41015625 344.89453125 C90.59619385 344.26828857 89.78223145 343.6420459 88.94360352 342.99682617 C87.2497892 341.69171318 85.56191838 340.37885253 83.87988281 339.05859375 C81.40884488 337.12979283 78.91257672 335.2406908 76.40234375 333.36328125 C74.86297524 332.20743869 73.3239 331.05120541 71.78515625 329.89453125 C71.06529541 329.35481689 70.34543457 328.81510254 69.60375977 328.2590332 C68.94045654 327.75331787 68.27715332 327.24760254 67.59375 326.7265625 C67.01294678 326.28675049 66.43214355 325.84693848 65.83374023 325.39379883 C63.091247 322.97299775 62.36682279 321.25772452 61.97265625 317.64453125 C62.34765625 314.08203125 62.34765625 314.08203125 63.84765625 311.64453125 C67.36435989 309.44659147 70.37363663 309.24369596 74.34765625 310.08203125 C77.93338184 312.02849503 81.04085857 314.47755158 84.22265625 317.01953125 C85.90703549 318.32098137 87.59190674 319.62179503 89.27734375 320.921875 C90.37925049 321.79380493 90.37925049 321.79380493 91.50341797 322.68334961 C93.29955114 324.13470981 93.29955114 324.13470981 95.34765625 325.08203125 C95.34765625 314.52203125 95.34765625 303.96203125 95.34765625 293.08203125 C91.16078125 292.69015625 86.97390625 292.29828125 82.66015625 291.89453125 C58.72130374 289.43304575 37.71901293 283.48419003 16.69921875 271.83984375 C13.68321952 269.927208 13.68321952 269.927208 11.34765625 270.08203125 C11.80542028 277.50704778 12.52388544 284.86179146 13.46875 292.23828125 C13.57338562 293.05943924 13.67802124 293.88059723 13.78582764 294.72663879 C14.0057562 296.45225035 14.22568625 298.17786171 14.44561768 299.9034729 C16.58750688 316.80044913 18.08179438 333.59067118 18.62670898 350.6171875 C18.65505325 351.35535202 18.68339752 352.09351654 18.71260071 352.85404968 C18.78743594 354.83044153 18.84579264 356.80743836 18.90283203 358.78442383 C19.37846984 362.31046108 20.22484303 364.25432933 22.34765625 367.08203125 C25.2653773 368.54089177 27.81903419 368.21023558 31.07940483 368.21345901 C31.78287759 368.21551165 32.48635034 368.21756428 33.21114045 368.21967912 C35.59218336 368.22537892 37.97316896 368.22388822 40.35421753 368.22247314 C42.0690105 368.22505507 43.78380287 368.22806774 45.4985944 368.23147655 C50.22941096 368.23956999 54.96021237 368.24133742 59.69103503 368.24207401 C64.78587933 368.24392049 69.88071569 368.25146572 74.97555542 368.25820923 C86.12410927 368.27180934 97.27265953 368.27781978 108.4212203 368.28221989 C115.37727148 368.28497927 122.33332126 368.28921604 129.28937149 368.29372406 C148.53413493 368.30591853 167.77889725 368.31621775 187.02366447 368.31959915 C188.25611427 368.31981872 189.48856406 368.32003828 190.75836081 368.3202645 C191.99382114 368.32048278 193.22928146 368.32070106 194.50217998 368.32092595 C197.00584785 368.32136942 199.50951572 368.32181599 202.01318359 368.32226562 C203.87605684 368.32259777 203.87605684 368.32259777 205.7765639 368.32293662 C225.91051458 368.32688659 246.0444291 368.34434587 266.17836581 368.36762515 C286.83055652 368.39131168 307.48272907 368.40379976 328.13493359 368.40496707 C339.73809662 368.40588531 351.34121255 368.41167506 362.94436264 368.42978668 C372.82269585 368.44515126 382.7009674 368.45032973 392.57931028 368.44204858 C397.62277982 368.43812921 402.66612505 368.43913409 407.70957947 368.45310593 C412.32226955 368.46576801 416.93474096 368.46471561 421.54743041 368.45251521 C423.2203803 368.45054479 424.89334528 368.45369808 426.56627391 368.46235958 C428.83252709 368.47335454 431.09799509 368.46603463 433.36422539 368.45396805 C435.25588474 368.45486368 435.25588474 368.45486368 437.18575943 368.45577741 C440.58990332 368.05339688 441.97309649 367.51240271 444.34765625 365.08203125 C445.42166124 361.86001628 445.54961223 359.35232622 445.671875 355.9609375 C446.59373551 334.58909387 448.74117866 313.47598833 451.31518555 292.24047852 C451.51447411 290.59075294 451.51447411 290.59075294 451.7177887 288.90769958 C451.96979552 286.8322215 452.22501964 284.75713064 452.48399353 282.68251038 C452.65458031 281.28916725 452.65458031 281.28916725 452.82861328 279.86767578 C452.92917023 279.06057159 453.02972717 278.25346741 453.1333313 277.42190552 C453.35859362 274.96262342 453.38403615 272.55021745 453.34765625 270.08203125 C450.11176447 271.27804875 447.04694271 272.70671109 443.96875 274.25390625 C419.69583803 286.3927225 396.16378059 290.77335829 369.34765625 293.08203125 C369.34765625 303.64203125 369.34765625 314.20203125 369.34765625 325.08203125 C374.72848385 321.49481285 379.49254028 318.22500083 384.41015625 314.20703125 C390.69008269 309.46308682 390.69008269 309.46308682 394.84765625 309.26953125 C398.34765625 310.08203125 398.34765625 310.08203125 400.84765625 311.64453125 C402.9407724 315.045845 402.8991331 317.15275868 402.34765625 321.08203125 C399.33459005 325.61654672 395.44106197 328.49642827 391.09765625 331.64453125 C389.67298888 332.69375492 388.24851573 333.74324234 386.82421875 334.79296875 C386.09106445 335.33018555 385.35791016 335.86740234 384.60253906 336.42089844 C380.17163614 339.68506729 375.79061052 343.01631195 371.40136719 346.33618164 C366.21093297 350.24088171 362.94792689 351.97942304 356.34765625 351.08203125 C353.13671875 349.38671875 353.13671875 349.38671875 349.97265625 346.95703125 C349.39394775 346.52052246 348.81523926 346.08401367 348.21899414 345.63427734 C346.24594397 344.13655172 344.29724581 342.61014991 342.34765625 341.08203125 C340.7716067 339.86748536 339.19475108 338.65398492 337.6171875 337.44140625 C333.8022471 334.49875883 330.0004852 331.54026361 326.21826172 328.55566406 C324.61396648 327.29182615 322.99938062 326.04107009 321.3828125 324.79296875 C318.53124318 322.39568015 318.38435059 321.47833014 318.03515625 317.70703125 C318.34765625 314.08203125 318.34765625 314.08203125 319.84765625 311.64453125 C323.36435989 309.44659147 326.37363663 309.24369596 330.34765625 310.08203125 C333.93338184 312.02849503 337.04085857 314.47755158 340.22265625 317.01953125 C341.90703549 318.32098137 343.59190674 319.62179503 345.27734375 320.921875 C346.37925049 321.79380493 346.37925049 321.79380493 347.50341797 322.68334961 C349.29955114 324.13470981 349.29955114 324.13470981 351.34765625 325.08203125 C351.34765625 313.86203125 351.34765625 302.64203125 351.34765625 291.08203125 C348.33640625 290.42203125 345.32515625 289.76203125 342.22265625 289.08203125 C326.22999131 285.36803532 311.24303513 279.35146087 296.16015625 272.95703125 C246.81432121 252.09241948 205.26555869 257.56990659 156.72265625 277.70703125 Z " fill="#000000" transform="translate(23.65234375,125.91796875)"/>
<path d="M0 0 C0.82781322 -0.00235223 1.65562643 -0.00470446 2.50852489 -0.00712797 C5.31255677 -0.01384239 8.11654256 -0.01335902 10.92058182 -0.01294994 C12.93918467 -0.01624705 14.95778687 -0.01997229 16.97638822 -0.02409142 C22.54705799 -0.03413696 28.11771699 -0.03783231 33.68839455 -0.04048073 C39.68717154 -0.04437622 45.68593993 -0.05395503 51.68471146 -0.0626936 C65.49762841 -0.08154361 79.31054602 -0.09171708 93.12347218 -0.10015428 C99.94656956 -0.10435846 106.76966606 -0.10958075 113.59276269 -0.11483881 C136.9404205 -0.13273013 160.28807855 -0.14772709 183.63574219 -0.155159 C185.10195421 -0.15563376 186.56816623 -0.15610965 188.03437825 -0.15658666 C189.12506259 -0.15694122 189.12506259 -0.15694122 190.23778096 -0.15730295 C193.92186318 -0.15850417 197.6059454 -0.15971961 201.29002762 -0.16094494 C202.38671151 -0.16130516 202.38671151 -0.16130516 203.50555063 -0.16167267 C227.21615642 -0.16956753 250.92671221 -0.19300262 274.63729617 -0.22550088 C299.69447068 -0.25978223 324.75161593 -0.27950856 349.80881429 -0.28280324 C352.55840382 -0.28322079 355.30799334 -0.28370036 358.05758286 -0.28422642 C359.07315215 -0.28441121 359.07315215 -0.28441121 360.109238 -0.28459973 C371.01491196 -0.28693385 381.92052795 -0.30260564 392.82618124 -0.32306826 C403.78392485 -0.34330276 414.74160816 -0.34848084 425.69936845 -0.33929763 C431.6382785 -0.33473807 437.57699995 -0.3367351 443.5158844 -0.35605907 C448.94906842 -0.37358544 454.38192479 -0.37277905 459.81511179 -0.35716178 C461.78419409 -0.35476963 463.75329846 -0.3591917 465.72234687 -0.37099043 C468.39294703 -0.386006 471.06237064 -0.37650894 473.73294067 -0.36076355 C474.50273616 -0.37098576 475.27253165 -0.38120796 476.06565428 -0.39173993 C481.23122862 -0.3249781 484.13224617 0.88957887 488.11815262 4.13422108 C492.0020567 8.54297706 493.23937814 10.86841157 493.29515457 16.69452381 C493.30798981 17.86011326 493.32082504 19.02570271 493.33404922 20.22661304 C493.34512962 22.12800793 493.34512962 22.12800793 493.35643387 24.06781483 C493.36450562 25.37065922 493.37257736 26.67350361 493.38089371 28.01582813 C493.3959317 30.78242329 493.40576072 33.54899272 493.41331863 36.31561756 C493.42431102 39.83247372 493.45862026 43.34868446 493.49849033 46.86531448 C493.53120752 50.24528635 493.53545914 53.62519701 493.54393387 57.00531483 C493.56144196 58.25469334 493.57895004 59.50407185 493.59698868 60.79131031 C493.5675467 72.80693101 490.21149146 81.54652132 483.11815262 91.13422108 C482.25190262 92.43359608 482.25190262 92.43359608 481.36815262 93.75922108 C474.29713496 101.22307305 463.59326838 107.588966 453.10692215 108.26361561 C452.41195633 108.26474354 451.71699051 108.26587147 451.00096512 108.26703358 C449.84274246 108.26896717 449.84274246 108.26896717 448.66112137 108.27093983 C447.46422684 108.26513905 447.46422684 108.26513905 446.24315262 108.25922108 C445.05785965 108.26502186 445.05785965 108.26502186 443.84862137 108.27093983 C440.36874362 108.26514968 437.21916548 108.15316839 433.78612137 107.50922108 C430.76069161 107.08397766 429.83627235 107.41035458 427.30565262 109.00922108 C421.22251466 112.34513544 415.68270397 112.42689168 408.93065262 111.38422108 C404.99968342 110.90719102 404.49496098 110.85946498 401.11815262 113.32172108 C400.65795731 113.78320545 400.19776199 114.24468983 399.72362137 114.72015858 C394.11682421 119.65850546 386.84444052 120.62700474 379.64940262 120.43500233 C377.11815262 120.13422108 377.11815262 120.13422108 373.43065262 118.69672108 C370.19446478 117.7551641 370.19446478 117.7551641 368.16112137 119.45453358 C366.78166003 120.71530322 365.42504907 122.00147003 364.09080887 123.31000233 C357.81564091 129.11297943 349.05959929 129.41891412 340.89549637 129.36859608 C335.82802747 128.94096157 330.99049359 127.54067002 326.11815262 126.13422108 C325.85389481 126.74008045 325.58963699 127.34593983 325.31737137 127.97015858 C324.0550642 130.24806793 323.03429073 131.26693775 320.93065262 132.75922108 C320.38022293 133.1639867 319.82979324 133.56875233 319.26268387 133.98578358 C313.51812876 137.06210271 307.67396922 137.52069795 301.30565262 137.50922108 C300.1202388 137.51006702 300.1202388 137.51006702 298.91087723 137.51093006 C292.62365192 137.3928389 287.6994177 136.07235005 282.11815262 133.13422108 C281.12815262 132.80422108 280.13815262 132.47422108 279.11815262 132.13422108 C277.36668726 133.08956582 275.61508796 134.05117072 273.93455887 135.12640858 C266.52792083 139.23589807 253.68393764 138.3599711 245.78612137 136.23968983 C243.18065262 135.13422108 243.18065262 135.13422108 241.02830887 134.00922108 C238.86222219 132.85657931 238.86222219 132.85657931 235.11815262 133.13422108 C233.7459004 133.76281923 232.39332148 134.43504026 231.05565262 135.13422108 C222.54752196 138.65613273 211.3271027 138.92097826 202.62205887 135.93500233 C199.74315262 134.50922108 199.74315262 134.50922108 197.34471512 133.03265858 C195.13409212 131.87408404 195.13409212 131.87408404 192.82909012 132.79828358 C191.93448074 133.23914295 191.03987137 133.68000233 190.11815262 134.13422108 C184.36709695 136.70741446 179.47204054 137.62591455 173.18065262 137.50922108 C172.38940994 137.49906971 171.59816727 137.48891834 170.78294754 137.47845936 C161.93901161 137.24320464 156.00485057 135.48223081 149.33299637 129.53656483 C148.11815262 128.13422108 148.11815262 128.13422108 148.11815262 126.13422108 C147.36791824 126.35078358 146.61768387 126.56734608 145.84471512 126.79047108 C135.32159656 129.65318343 124.02942492 130.99437636 113.85252762 126.02875233 C110.15691493 123.80454098 106.99917995 121.37537683 104.11815262 118.13422108 C103.16940262 118.46422108 102.22065262 118.79422108 101.24315262 119.13422108 C92.62777751 121.54861047 84.09128525 120.47252432 76.29393387 116.11468983 C74.00604583 114.63559514 72.04512433 113.06119279 70.11815262 111.13422108 C67.51433833 111.19222649 67.51433833 111.19222649 64.55565262 111.63422108 C57.42017451 112.35118299 51.84467052 111.4690961 45.36815262 108.44672108 C41.63444908 106.93887926 40.91872784 107.32692648 37.11815262 108.13422108 C22.2249938 109.33020431 10.26656836 107.28954888 -1.88184738 98.13422108 C-2.74809738 97.55672108 -3.61434738 96.97922108 -4.50684738 96.38422108 C-11.90682046 89.37372027 -18.46555463 78.82378913 -19.0290184 68.41574574 C-19.04378471 66.85737492 -19.04378471 66.85737492 -19.05884933 65.26752186 C-19.07168457 64.08594501 -19.08451981 62.90436817 -19.09774399 61.68698597 C-19.10513092 60.41402668 -19.11251785 59.14106739 -19.12012863 57.82953358 C-19.12820038 56.51766071 -19.13627213 55.20578785 -19.14458847 53.85416126 C-19.15958601 51.07853801 -19.16943873 48.30294007 -19.1770134 45.52728748 C-19.18808139 41.98085766 -19.22249761 38.43505464 -19.2621851 34.8888464 C-19.29468714 31.49410098 -19.29913198 28.09942254 -19.30762863 24.70453358 C-19.32513672 23.43562275 -19.34264481 22.16671192 -19.36068344 20.85934925 C-19.33373447 9.9171394 -19.33373447 9.9171394 -14.88184738 5.13422108 C-9.74543269 0.60928433 -6.69385607 -0.01274598 0 0 Z M-0.88184738 18.13422108 C-0.88184738 26.05422108 -0.88184738 33.97422108 -0.88184738 42.13422108 C4.06776861 43.03532151 4.06776861 43.03532151 9.01878738 43.92865467 C13.4791393 44.75285631 17.77591305 45.82184907 22.11815262 47.13422108 C22.48166824 46.51933826 22.84518387 45.90445545 23.21971512 45.27093983 C23.72244949 44.46269764 24.22518387 43.65445545 24.74315262 42.82172108 C25.23041824 42.02121326 25.71768387 41.22070545 26.21971512 40.39593983 C29.35371292 36.6622264 32.63987783 35.34440233 37.41502762 34.66547108 C47.64265063 34.5729134 54.09771037 36.94650432 62.11815262 43.13422108 C62.69565262 42.18547108 63.27315262 41.23672108 63.86815262 40.25922108 C66.07763252 37.19049899 66.75513388 36.41192712 70.11815262 35.13422108 C78.88613402 33.92967411 86.455388 35.75444987 93.60252762 40.93500233 C98.27422334 44.86624954 101.48221208 48.63312777 104.11815262 54.13422108 C105.10815262 53.05140858 105.10815262 53.05140858 106.11815262 51.94672108 C111.49038227 46.57449142 117.5235141 43.09365684 125.18065262 42.82172108 C131.15991796 42.88121625 138.41239462 44.52198006 142.81346512 48.77093983 C143.24401199 49.22082264 143.67455887 49.67070545 144.11815262 50.13422108 C144.77815262 50.13422108 145.43815262 50.13422108 146.11815262 50.13422108 C146.52034012 50.96953358 146.52034012 50.96953358 146.93065262 51.82172108 C148.21937909 54.33134631 149.6474174 56.72756344 151.11815262 59.13422108 C153.63711311 58.01468308 155.51549917 56.81440556 157.68065262 55.07172108 C162.57580394 51.18070336 168.13064593 51.56750234 174.11815262 52.13422108 C180.86939027 53.97121295 185.03740798 58.66957174 189.11815262 64.13422108 C189.44815262 64.79422108 189.77815262 65.45422108 190.11815262 66.13422108 C190.77815262 66.13422108 191.43815262 66.13422108 192.11815262 66.13422108 C192.46877762 65.26797108 192.81940262 64.40172108 193.18065262 63.50922108 C195.97388126 58.643597 199.63819701 55.60878927 204.43065262 52.75922108 C211.04346079 51.22135871 217.26718722 51.31720254 223.23924637 54.74359608 C229.4044807 59.30663854 233.03781889 65.23427352 236.11815262 72.13422108 C236.77815262 72.13422108 237.43815262 72.13422108 238.11815262 72.13422108 C238.55514481 71.28150623 238.55514481 71.28150623 239.00096512 70.41156483 C242.91812977 63.03300625 246.94239066 56.28642187 254.84862137 52.79437733 C260.649569 51.10701046 266.75086458 51.22311548 272.36815262 53.50922108 C277.38421076 56.34889035 280.18301475 61.32793282 283.11815262 66.13422108 C285.42965659 63.88099032 287.42360443 61.72695199 289.36815262 59.13422108 C293.02796263 54.76462973 297.20266855 52.5027979 302.86815262 51.78656483 C308.33912262 51.61559701 312.4806099 51.96711873 317.11815262 55.13422108 C318.4701312 56.4486447 319.80841264 57.77770467 321.11815262 59.13422108 C321.77815262 59.13422108 322.43815262 59.13422108 323.11815262 59.13422108 C324.15984448 57.53252379 324.15984448 57.53252379 325.18065262 55.50922108 C328.83963158 49.42171626 334.11320891 46.31473468 340.61815262 43.75922108 C348.87792917 42.28426098 355.73109529 42.79698099 363.11815262 47.13422108 C365.42752311 49.27830859 367.32865473 51.54454121 369.11815262 54.13422108 C369.54741043 53.55543201 369.97666824 52.97664295 370.41893387 52.38031483 C376.46838501 44.38391389 382.92751411 37.33220193 393.11815262 35.13422108 C398.50543323 34.60922372 402.71129458 34.43079206 407.61815262 36.88422108 C409.81832497 38.86437619 411.39718673 40.75288456 413.11815262 43.13422108 C413.63764481 42.7242992 414.15713699 42.31437733 414.69237137 41.89203358 C415.73844559 41.08379139 415.73844559 41.08379139 416.80565262 40.25922108 C417.49014481 39.7255492 418.17463699 39.19187733 418.87987137 38.64203358 C425.49802778 34.18372926 432.37447306 34.43755786 440.11815262 35.13422108 C444.90773236 36.42340949 447.43763666 39.30532329 450.05565262 43.38422108 C450.75977855 44.62493173 451.4533451 45.87200588 452.11815262 47.13422108 C453.27573074 46.85707264 454.43330887 46.5799242 455.62596512 46.29437733 C457.1650026 45.92838671 458.70406651 45.56250717 460.24315262 45.19672108 C461.38397293 44.92311756 461.38397293 44.92311756 462.54784012 44.6439867 C463.29549637 44.46674061 464.04315262 44.28949451 464.81346512 44.10687733 C465.83464432 43.86336536 465.83464432 43.86336536 466.8764534 43.61493397 C469.60562676 43.02968649 472.36491145 42.59309461 475.11815262 42.13422108 C475.11815262 34.21422108 475.11815262 26.29422108 475.11815262 18.13422108 C318.03815262 18.13422108 160.95815262 18.13422108 -0.88184738 18.13422108 Z M39.11815262 52.13422108 C38.89247755 57.92439852 39.47616875 62.52883775 41.30565262 68.00922108 C41.53196365 68.7039452 41.75827469 69.39866932 41.99144363 70.11444569 C44.66434977 78.08502029 48.03210338 87.99002187 55.11815262 93.13422108 C57.74380226 93.37447502 57.74380226 93.37447502 60.11815262 93.13422108 C58.64579303 71.59521462 58.64579303 71.59521462 47.05565262 54.07172108 C44.00284697 52.05816842 42.68257938 51.61004067 39.11815262 52.13422108 Z M77.11815262 52.13422108 C74.35955595 66.69074457 73.39549907 82.75659219 81.11815262 96.13422108 C84.16067989 99.51220648 87.37381112 101.90164221 91.93065262 102.50922108 C95.25409109 102.36021595 95.25409109 102.36021595 98.05565262 100.19672108 C100.93924139 95.91502866 100.04200653 93.04724386 99.11815262 88.13422108 C98.3696664 85.11958527 97.44185095 82.19527795 96.43065262 79.25922108 C96.16301102 78.47764637 95.89536942 77.69607166 95.61961746 76.89081287 C92.11982573 66.97268604 88.18682397 58.11872717 79.11815262 52.13422108 C78.45815262 52.13422108 77.79815262 52.13422108 77.11815262 52.13422108 Z M426.11815262 55.07172108 C425.47877762 55.61699451 424.83940262 56.16226795 424.18065262 56.72406483 C418.38941812 63.49147332 416.27938295 70.20795647 415.30565262 78.94672108 C415.18512527 79.87420155 415.06459793 80.80168201 414.94041824 81.75726795 C414.45545318 85.60096252 414.11815262 89.25156427 414.11815262 93.13422108 C416.3603992 93.72385786 416.3603992 93.72385786 419.11815262 93.13422108 C428.46196839 84.80603746 434.36845715 69.1528787 435.29002762 56.83734608 C435.30257726 55.26864143 435.22486542 53.6993422 435.11815262 52.13422108 C431.00793928 51.79883909 429.19526785 52.33581822 426.11815262 55.07172108 Z M389.79002762 56.29437733 C383.79686999 62.88965126 380.56230846 71.00641758 377.74315262 79.32172108 C377.36706863 80.42519886 377.36706863 80.42519886 376.98338699 81.55096912 C375.37944021 86.55771804 373.915365 91.83664212 374.11815262 97.13422108 C375.99456432 100.34435155 375.99456432 100.34435155 379.11815262 102.13422108 C382.9285211 102.8638661 384.7009632 102.33855875 388.18065262 100.63422108 C396.0624954 93.92626977 398.02588364 85.32585477 398.95799637 75.41156483 C399.50141839 67.68436871 398.70654103 60.72161216 397.11815262 53.13422108 C393.64406354 53.13422108 392.33830426 54.01732815 389.79002762 56.29437733 Z M-0.88184738 60.13422108 C-1.51247774 67.3864702 0.39561971 73.62263549 4.88377762 79.41156483 C9.85580462 84.66742802 16.61543989 89.8711851 24.16112137 90.23187733 C24.86881668 90.22027576 25.57651199 90.2086742 26.30565262 90.19672108 C27.56377762 90.17609608 28.82190262 90.15547108 30.11815262 90.13422108 C26.75582794 77.93305805 23.60063813 68.79406268 12.11815262 62.13422108 C7.6407814 60.53515993 3.86348813 59.9027413 -0.88184738 60.13422108 Z M122.05565262 61.57172108 C116.30243179 69.1808196 116.70583234 77.80802981 117.04442215 86.97308826 C117.11920895 89.1651835 117.14907723 91.35514006 117.17674637 93.54828358 C117.21714107 94.97283806 117.26002961 96.39732445 117.30565262 97.82172108 C117.34045731 99.10433826 117.37526199 100.38695545 117.41112137 101.70843983 C118.31136534 106.07039542 119.50102146 107.56160908 123.11815262 110.13422108 C126.77937518 110.88545402 126.77937518 110.88545402 130.68065262 110.69672108 C132.63164871 110.69865467 132.63164871 110.69865467 134.62205887 110.70062733 C138.10130143 110.38419569 138.10130143 110.38419569 140.52049637 108.53656483 C145.65646208 100.81378021 142.18144379 89.16660997 140.63475418 80.62445545 C138.98155431 72.65534453 136.28022347 66.18133576 129.86424637 61.02484608 C126.87707952 59.5011905 124.75531085 59.6901411 122.05565262 61.57172108 Z M340.85643387 64.08343983 C332.60437905 73.81901012 330.72379956 90.60419301 331.29784012 103.02093983 C332.2612487 106.67730478 332.9677191 108.03905472 336.11815262 110.13422108 C339.67241328 110.8062679 339.67241328 110.8062679 343.55565262 110.69672108 C345.50278152 110.72959217 345.50278152 110.72959217 347.48924637 110.76312733 C352.01005111 109.97965094 353.44760875 108.82880808 356.11815262 105.13422108 C356.94034441 102.02401016 356.94034441 102.02401016 356.93065262 98.57172108 C356.97319168 97.26074451 357.01573074 95.94976795 357.05955887 94.59906483 C357.06874344 93.88734119 357.07792801 93.17561756 357.0873909 92.44232655 C357.12068955 89.94387097 357.19626589 87.44818318 357.27049637 84.95062733 C357.30596063 83.1785478 357.33854255 81.40640809 357.36815262 79.63422108 C357.38982498 78.79818348 357.41149734 77.96214588 357.43382645 77.10077381 C357.4615946 71.66965004 356.6723092 67.95045308 354.11815262 63.13422108 C352.31319831 61.13243245 352.31319831 61.13243245 350.11815262 60.13422108 C345.34365532 60.13422108 344.21489366 60.95511004 340.85643387 64.08343983 Z M452.11815262 69.13422108 C449.5214108 72.99184803 447.96703692 76.94325652 446.43065262 81.32172108 C445.77516434 83.16830311 445.77516434 83.16830311 445.10643387 85.05218983 C444.01637096 87.91220073 444.01637096 87.91220073 444.11815262 90.13422108 C452.32263962 90.74196085 458.50856606 88.49433536 465.36815262 84.00922108 C470.59488348 78.54491154 475.30809944 71.72097732 475.18065262 63.94672108 C475.16002762 62.68859608 475.13940262 61.43047108 475.11815262 60.13422108 C466.56771877 59.20984985 458.00140421 63.1038882 452.11815262 69.13422108 Z M168.11815262 69.13422108 C165.47401445 72.02243354 164.4511605 74.75088247 163.49315262 78.50922108 C163.25338699 79.42445545 163.01362137 80.33968983 162.76659012 81.28265858 C161.17307693 88.29027681 160.83799593 95.02742856 160.74315262 102.19672108 C160.70576981 103.27244373 160.66838699 104.34816639 160.62987137 105.4564867 C160.54691992 111.75684358 160.54691992 111.75684358 163.20409012 117.34125233 C168.54904315 120.62990305 174.07361427 119.97093522 180.11815262 119.13422108 C183.78481929 117.80088774 183.78481929 117.80088774 185.11815262 114.13422108 C187.44434716 99.134277 180.98538696 84.58756834 173.11815262 72.13422108 C171.65274734 70.30019583 171.65274734 70.30019583 170.11815262 69.13422108 C169.45815262 69.13422108 168.79815262 69.13422108 168.11815262 69.13422108 Z M210.11815262 69.13422108 C203.67048965 82.09214568 201.64317733 97.75321203 203.11815262 112.13422108 C204.79001051 115.65003987 205.8417228 116.94993453 209.11815262 119.13422108 C212.14788715 119.52862696 212.14788715 119.52862696 215.49315262 119.50922108 C217.17537918 119.55176014 217.17537918 119.55176014 218.89159012 119.59515858 C222.75311757 119.0435118 224.35942813 117.83275522 227.11815262 115.13422108 C230.6168603 108.13680571 227.65053166 99.20264042 225.39354324 92.20697498 C222.61175016 84.16621358 218.8447714 75.49713083 213.11815262 69.13422108 C212.12815262 69.13422108 211.13815262 69.13422108 210.11815262 69.13422108 Z M261.11815262 69.13422108 C251.67173877 80.46342531 245.14815266 95.92249138 245.71971512 110.84906483 C246.29443542 114.14525478 247.63791382 115.94577508 250.11815262 118.13422108 C252.91547067 119.5328801 255.31099821 119.37959375 258.43065262 119.44672108 C260.12641434 119.5027953 260.12641434 119.5027953 261.85643387 119.56000233 C265.77952711 119.04788596 267.36165144 117.92084795 270.11815262 115.13422108 C274.27725013 102.65692855 270.56443292 84.06049874 266.31346512 72.07562733 C265.27614138 69.94293565 265.27614138 69.94293565 262.98534012 69.34906483 C262.36916824 69.27816639 261.75299637 69.20726795 261.11815262 69.13422108 Z M301.30565262 71.75922108 C296.88765057 77.17731811 294.58072882 83.66178628 292.11815262 90.13422108 C291.77397293 91.00433826 291.42979324 91.87445545 291.07518387 92.77093983 C288.62666325 99.72565801 288.21570603 106.83177059 289.11815262 114.13422108 C290.45148595 117.80088774 290.45148595 117.80088774 294.11815262 119.13422108 C300.15852657 119.97035876 305.68868173 120.63631329 311.02440262 117.33734608 C314.21263927 112.45981986 313.77772954 107.9602013 313.61815262 102.25922108 C313.60115311 101.14257069 313.58415359 100.0259203 313.56663895 98.87543201 C313.28258834 83.18601073 313.28258834 83.18601073 307.11815262 69.13422108 C303.84248386 68.79306195 303.84248386 68.79306195 301.30565262 71.75922108 Z " fill="#000000" transform="translate(18.881847381591797,-0.13422107696533203)"/>
</svg>
