<?xml version="1.0" encoding="UTF-8"?>
<svg version="1.1" xmlns="http://www.w3.org/2000/svg" width="512" height="512">
<path d="M0 0 C0.99 0.495 0.99 0.495 2 1 C4.24785222 -0.1252311 4.24785222 -0.1252311 6.6875 -1.75 C18.34489394 -8.98967837 30.48153191 -10.72813124 44.01953125 -8.50390625 C56.68151012 -4.97450427 66.91164607 3.02448423 74 14 C74.61875 13.14728516 74.61875 13.14728516 75.25 12.27734375 C83.4211007 1.35214438 92.52072423 -5.8201291 106 -9 C108.94351021 -9.28921479 111.85622129 -9.33442156 114.8125 -9.3125 C115.60785156 -9.30686035 116.40320313 -9.3012207 117.22265625 -9.29541016 C127.87492962 -9.0756635 135.10914173 -5.71066666 144 0 C144.99 0.495 144.99 0.495 146 1 C148.07551551 -0.09965837 148.07551551 -0.09965837 150.375 -1.6875 C162.23927302 -8.94823199 174.3646424 -10.80495625 187.9921875 -8.4921875 C200.66609052 -5.05720444 210.93085177 3.05422209 218 14 C218.4125 13.43152344 218.825 12.86304687 219.25 12.27734375 C226.79832121 2.18483392 235.87255889 -6.07117418 248.62890625 -8.71484375 C262.65233537 -10.4013517 275.95810385 -8.66713826 287.5234375 -0.171875 C288.01070313 0.21484375 288.49796875 0.6015625 289 1 C291.26766183 -0.12571279 293.52238653 -1.27113998 295.76953125 -2.4375 C296.77371094 -2.953125 297.77789062 -3.46875 298.8125 -4 C299.80894531 -4.515625 300.80539062 -5.03125 301.83203125 -5.5625 C313.47651043 -10.84630806 327.11641705 -10.58317297 339.0703125 -6.3203125 C352.11400309 -0.44195594 360.75999959 9.84828844 366 23 C369.89281758 35.63294165 368.28653586 48.25927997 362.8125 60.1875 C359.30063128 66.78555639 354.26157937 72.84731015 348 77 C347.34 77 346.68 77 346 77 C346.03480469 77.99 346.06960938 78.98 346.10546875 80 C346.51100116 96.17623724 346.51100116 96.17623724 341.640625 101.48046875 C339.41753538 103.43426658 337.20728323 104.90828985 334.50286865 106.10482788 C330.80669358 108.90357161 330.0947309 112.15984993 328.82910156 116.51025391 C328.57424107 117.35620935 328.31938057 118.2021648 328.05679703 119.07375526 C325.52909037 127.90653234 324.51381985 136.71045807 323.734375 145.8359375 C323.57019302 147.57468593 323.40415312 149.31325978 323.23638916 151.05166626 C322.8046584 155.5759274 322.39750305 160.10205086 321.99609375 164.62908936 C321.5878902 169.18381891 321.15629174 173.73632241 320.7265625 178.2890625 C320.07724866 185.1938235 319.44135977 192.09965247 318.81835938 199.00683594 C318.33819591 204.32974355 317.84608006 209.65088866 317.32226562 214.96972656 C317.22592834 215.94890045 317.12959106 216.92807434 317.03033447 217.93692017 C316.86305747 219.62077896 316.69326295 221.30439126 316.5199585 222.98764038 C316.08719103 227.35629917 315.92950959 231.61736653 316 236 C316.54188965 236.08975098 317.0837793 236.17950195 317.64208984 236.27197266 C327.53544384 237.94482236 337.31075769 239.797809 346.875 242.875 C347.59220215 243.09494629 348.3094043 243.31489258 349.04833984 243.54150391 C355.31063299 245.66243633 360.07244953 249.08706499 363.7421875 254.6328125 C364.11601562 255.45523437 364.48984375 256.27765625 364.875 257.125 C365.26429688 257.95257813 365.65359375 258.78015625 366.0546875 259.6328125 C367.60669835 263.51925288 368.12872614 266.8682395 368.16113281 271.05297852 C368.17074036 272.05825089 368.1803479 273.06352325 368.19024658 274.09925842 C368.1966214 275.7226841 368.1966214 275.7226841 368.203125 277.37890625 C368.20882507 278.50135239 368.21452515 279.62379852 368.22039795 280.78025818 C368.22984426 283.15826476 368.23638047 285.53628442 368.24023438 287.91430664 C368.24989825 291.52448935 368.28090869 295.1340925 368.3125 298.74414062 C368.31903468 301.05989247 368.32428332 303.37564837 368.328125 305.69140625 C368.3404718 306.75952042 368.3528186 307.82763458 368.36553955 308.92811584 C368.32985749 321.14281576 365.36647148 332.17372781 356.890625 341.26171875 C348.66334791 348.93578238 339.69277793 353.24313978 328.26881886 353.25726891 C327.62613185 353.26077498 326.98344485 353.26428105 326.32128248 353.26789337 C324.17697598 353.27716541 322.03294358 353.27229506 319.8886261 353.26742554 C318.33196025 353.27116393 316.77529627 353.2757662 315.21863526 353.28115618 C310.94780158 353.29337843 306.67704628 353.29312662 302.4061991 353.29076743 C297.79731201 353.29035906 293.18844998 353.30140036 288.57957458 353.31088257 C279.55203426 353.32748968 270.52452006 353.332992 261.49696574 353.33410732 C254.15741438 353.33505801 246.81787162 353.33916933 239.47832298 353.34550858 C218.66287787 353.3631208 197.84745337 353.37234757 177.03200076 353.37084763 C175.91002693 353.37076772 174.78805311 353.3706878 173.63208008 353.37060547 C172.50873393 353.37052371 171.38538778 353.37044195 170.22800084 353.37035771 C152.02677857 353.36954498 133.82563909 353.38867925 115.62444077 353.4168822 C96.92923016 353.44562169 78.2340599 353.45942188 59.53882664 353.45769465 C49.04546976 353.45703108 38.55219965 353.46250885 28.05886269 353.48405075 C19.12361763 353.50227661 10.18849868 353.50659838 1.25324307 353.4930319 C-3.30320505 353.48650915 -7.85941134 353.48635995 -12.41583633 353.5037384 C-16.59273721 353.51950505 -20.76920525 353.51656907 -24.9460958 353.49917014 C-26.45147564 353.49610811 -27.95688807 353.49970243 -29.46222945 353.51089029 C-44.25404153 353.61348202 -54.88328134 350.63798685 -65.7109375 340.37890625 C-72.45920169 333.23670785 -76.08245868 323.7603522 -76.16113281 314.0012207 C-76.17554413 312.54864616 -76.17554413 312.54864616 -76.19024658 311.06672668 C-76.1966214 309.51195869 -76.1966214 309.51195869 -76.203125 307.92578125 C-76.20882507 306.84677048 -76.21452515 305.7677597 -76.22039795 304.65605164 C-76.22983297 302.3739825 -76.23637597 300.09189983 -76.24023438 297.80981445 C-76.24991661 294.34236453 -76.28094538 290.87551348 -76.3125 287.40820312 C-76.31903309 285.18489933 -76.32428236 282.96159132 -76.328125 280.73828125 C-76.3404718 279.71189041 -76.3528186 278.68549957 -76.36553955 277.62800598 C-76.34010362 269.28685599 -75.03532479 261.21762603 -70.25 254.1875 C-69.57710937 253.15689453 -69.57710937 253.15689453 -68.890625 252.10546875 C-64.05758768 246.72322264 -58.36525953 244.01885489 -51.5625 241.875 C-50.78769287 241.62347168 -50.01288574 241.37194336 -49.21459961 241.11279297 C-40.86845012 238.49502517 -31.7831758 236 -23 236 C-23.07091354 235.39647202 -23.14182709 234.79294403 -23.21488953 234.17112732 C-24.85340818 220.10570444 -26.30631639 206.03321009 -27.59503555 191.93202591 C-28.07788044 186.66674183 -28.57201087 181.40249813 -29.06442451 176.13810158 C-29.48424142 171.63708784 -29.89651814 167.13559632 -30.29418945 162.63256836 C-32.69251843 134.83650585 -32.69251843 134.83650585 -40 108 C-40 107.34 -40 106.68 -40 106 C-41.051875 105.9071875 -41.051875 105.9071875 -42.125 105.8125 C-45.91979777 104.74005715 -48.43784687 102.92291607 -51 100 C-55.01796338 92.76766592 -54.2823708 85.03188061 -54 77 C-54.58136719 76.72929687 -55.16273437 76.45859375 -55.76171875 76.1796875 C-65.02948363 71.29510636 -70.5821319 62.62770226 -74.1015625 52.98046875 C-77.83180124 39.68059884 -76.56585228 26.65981094 -70.375 14.3125 C-64.11354551 3.60942261 -54.57958452 -4.12838672 -42.75 -7.875 C-27.16271175 -11.56846181 -13.43314714 -8.04062929 0 0 Z M233.75 12.6875 C225.74494 21.10799225 223.61728524 30.1042195 223.72265625 41.390625 C224.43240235 50.62732078 229.11299793 58.32909655 235.72898674 64.65253258 C241.01060468 68.98294036 244.89030757 69.86442648 251.62548828 69.74462891 C253.01729813 69.7555809 253.01729813 69.7555809 254.43722534 69.76675415 C257.48234926 69.78287225 260.52531315 69.75583338 263.5703125 69.7265625 C265.69684854 69.72552431 267.82338651 69.72656353 269.94992065 69.72958374 C274.39675725 69.72940473 278.84286539 69.70863275 283.28955078 69.67236328 C288.98373424 69.62693368 294.67685701 69.62591483 300.37117195 69.63939857 C304.75846759 69.64608638 309.14552218 69.63280368 313.53277206 69.61314011 C315.63227959 69.60545411 317.73181397 69.60313221 319.83133316 69.6063118 C322.76584091 69.60705506 325.69899659 69.58176456 328.63330078 69.54931641 C329.49683167 69.55427124 330.36036255 69.55922607 331.25006104 69.56433105 C337.66841574 69.45127725 341.2457763 67.59092981 345.9765625 63.140625 C354.0338324 53.89958559 356.51645364 46.06353534 356.27734375 33.83203125 C355.66624378 25.38852328 351.8840592 18.05329099 346 12 C337.369071 5.05430714 328.19171208 1.20803527 317 2 C310.35692257 3.17861051 304.92244576 5.82032625 299 9 C299 13.15858758 299.66302731 14.84046426 301.4375 18.5 C304.21316656 24.25693806 305.13938652 28.26391663 305.125 34.6875 C305.12886719 36.42580078 305.12886719 36.42580078 305.1328125 38.19921875 C305 41 305 41 304 42 C301.66702567 42.04092937 299.33294775 42.04241723 297 42 C296.90203125 41.40574219 296.8040625 40.81148437 296.703125 40.19921875 C294.21337982 26.39830367 289.81046477 15.89701587 278.27734375 7.47265625 C263.74210644 -1.926631 246.01490753 1.29701365 233.75 12.6875 Z M10 10 C11.0033896 12.51522326 12.01147831 15.02811104 13.03515625 17.53515625 C13.37417969 18.36917969 13.71320313 19.20320313 14.0625 20.0625 C14.40410156 20.89910156 14.74570313 21.73570313 15.09765625 22.59765625 C16.74270858 26.97734102 17.11360377 30.54845299 17.0625 35.25 C17.05347656 36.32765625 17.04445313 37.4053125 17.03515625 38.515625 C17.02355469 39.33546875 17.01195313 40.1553125 17 41 C14.36245743 42.31877129 12.72064006 43.1314852 9.7734375 42.59375 C7.01230853 40.112383 7.05535085 37.0091992 6.625 33.5 C5.1481758 24.03182195 1.78413768 16.37950103 -5.9375 10.3125 C-16.11690489 3.83469689 -26.07906982 1.74701421 -38 3 C-46.61883143 5.97301264 -53.82699529 10.57634749 -58.6875 18.375 C-59.26886719 19.29023437 -59.85023437 20.20546875 -60.44921875 21.1484375 C-65.03591629 29.58241534 -65.18725107 38.7370514 -63.41796875 48.0703125 C-61.10422745 55.4869627 -56.59140988 60.72359913 -51 66 C-50.48463684 66.5291954 -49.96927368 67.05839081 -49.43829346 67.60362244 C-45.67288649 69.76001989 -42.03674046 69.44238462 -37.76855469 69.43579102 C-36.83472458 69.44586685 -35.90089447 69.45594269 -34.93876648 69.46632385 C-31.84968101 69.49483396 -28.76108388 69.50068246 -25.671875 69.50390625 C-23.52199096 69.51354697 -21.3721089 69.52363942 -19.222229 69.53416443 C-14.71304769 69.55213469 -10.20403882 69.5576847 -5.69482422 69.5559082 C0.07341156 69.55560371 5.84053633 69.59652016 11.60850906 69.64822483 C16.05075114 69.68164506 20.49272658 69.68766398 24.93508148 69.68607903 C27.06089855 69.68961188 29.18672306 69.70284083 31.31241608 69.72607613 C34.29271744 69.7555967 37.27063371 69.74680022 40.25097656 69.72875977 C41.12295181 69.74561829 41.99492706 69.76247681 42.89332581 69.77984619 C49.46755654 69.67913076 53.28472315 67.51964613 58 63 C65.65076439 54.54667723 68.77935314 45.8759227 68.37109375 34.45703125 C67.25228371 24.03443245 62.75811239 16.94338899 55 10 C41.44550215 -0.26147722 23.65198825 -0.9215906 10 10 Z M89.75 12.6875 C81.85152198 20.98011365 79.59348306 30.0444928 79.7890625 41.19921875 C80.30844713 50.55776039 84.15218888 57.35418101 90.875 63.796875 C96.30957503 68.55212815 99.66627084 69.16061094 106.91259766 69.20874023 C108.29827438 69.22341591 108.29827438 69.22341591 109.71194458 69.23838806 C112.7793025 69.2683817 115.84661657 69.28974156 118.9140625 69.30859375 C120.48502245 69.31845149 120.48502245 69.31845149 122.08771896 69.32850838 C127.63414916 69.36112353 133.18056 69.38556598 138.72705078 69.4050293 C143.31522663 69.42282678 147.9027861 69.45761951 152.49072266 69.50756836 C158.03036348 69.56781088 163.56943364 69.5985114 169.10938644 69.60820198 C171.2184856 69.61675317 173.32756966 69.6355629 175.43648148 69.6649456 C178.39533795 69.7039415 181.35198183 69.70488376 184.31103516 69.69702148 C185.17680176 69.71702209 186.04256836 69.73702271 186.93457031 69.75762939 C194.67881446 69.66562151 198.92441831 66.11912975 204.20703125 60.76171875 C211.49222268 51.34946413 213.14397511 42.89202035 212 31 C209.99409865 20.75653045 203.61948333 12.877083 195.0625 7.0625 C186.07799615 2.03545618 176.87716472 0.53186439 166.9375 3.1875 C162.13780932 4.74984063 158.1074216 7.0972691 154 10 C155.54233037 13.98435344 157.2920785 17.84868147 159.09765625 21.71875 C160.87836503 26.22062848 161.13685394 30.43729905 161.125 35.25 C161.12886719 36.83554688 161.12886719 36.83554688 161.1328125 38.453125 C161 41 161 41 160 42 C157.66702567 42.04092937 155.33294775 42.04241723 153 42 C152.90203125 41.40574219 152.8040625 40.81148437 152.703125 40.19921875 C150.35960727 27.20885755 146.35958095 16.09386377 135.19140625 8.31640625 C119.71312246 -0.98160023 102.99574158 0.38610773 89.75 12.6875 Z M74 61 C72.60316301 62.71157494 71.23308065 64.44501347 69.875 66.1875 C67.11681868 69.67267799 64.98517975 72.27394614 61 74.25 C59.19853786 75.23088994 59.19853786 75.23088994 58 77 C57.38240265 80.78057808 57.2407652 84.50069487 57.15625 88.3203125 C56.91432615 94.01761926 55.89242055 98.15872595 51.6875 102.25 C49 104 49 104 46.02636719 105.62670898 C42.29377637 108.5538238 41.15469661 111.30888439 39.890625 115.72265625 C39.64411194 116.56917252 39.39759888 117.41568878 39.14361572 118.28785706 C35.12249064 133.66902812 34.39898412 149.91523726 32.99609375 165.69775391 C32.58756822 170.24584265 32.15614662 174.79175121 31.7265625 179.33789062 C31.07719464 186.23434557 30.44145488 193.13188516 29.81835938 200.03076172 C29.34045718 205.32107125 28.84913239 210.60930152 28.32226562 215.89501953 C28.22592834 216.86512466 28.12959106 217.8352298 28.03033447 218.83473206 C27.86392133 220.49309826 27.69427265 222.15114622 27.5199585 223.80870056 C27.01193078 228.89306543 26.93835781 233.88967337 27 239 C29.18344328 239.74079589 31.36813258 240.47544263 33.55859375 241.1953125 C35.58626745 241.86363375 37.60665327 242.55401837 39.625 243.25 C46.78432077 244.84096017 53.82105273 242.01319818 60.6953125 240.03515625 C71.84168232 237.18164209 82.99543762 236.59761822 94.4375 236.625 C95.17790527 236.62454681 95.91831055 236.62409363 96.68115234 236.62362671 C111.26587134 236.64972692 125.24542536 238.09806685 139.15625 242.69921875 C143.52779913 244.02478798 146.48708757 244.07830651 151 243 C151.79019531 242.81953125 152.58039063 242.6390625 153.39453125 242.453125 C156.1030246 241.82716209 158.8015669 241.16792899 161.5 240.5 C163.32214957 240.04897288 165.14505555 239.60098934 166.96875 239.15625 C168.16661133 238.85944336 168.16661133 238.85944336 169.38867188 238.55664062 C177.99129283 236.72287326 186.5653891 236.7579583 195.3125 236.75 C196.07566528 236.74899292 196.83883057 236.74798584 197.62512207 236.74694824 C213.11648684 236.760798 227.12586079 238.35376994 241.88671875 243.328125 C247.90879409 244.62774477 253.64365569 242.64806356 259.4375 240.9375 C260.67371094 240.57527344 261.90992188 240.21304688 263.18359375 239.83984375 C264.11300781 239.56269531 265.04242188 239.28554688 266 239 C264.73687189 225.48182381 263.46807186 211.96419299 262.19211006 198.44722176 C261.59975112 192.17014852 261.00931732 185.89290681 260.42333984 179.61523438 C259.85733853 173.55234562 259.28620621 167.4899598 258.71157455 161.42788315 C258.49367902 159.11971957 258.27760537 156.81138322 258.06341934 154.50287247 C257.76216757 151.25940841 257.45433217 148.0166297 257.14501953 144.77392578 C257.0587027 143.82805099 256.97238586 142.88217621 256.88345337 141.90763855 C256.29598608 135.84146689 255.30921783 129.95112715 254 124 C253.83543871 123.2481801 253.67087742 122.49636021 253.50132942 121.72175789 C251.1751611 111.281473 251.1751611 111.281473 243.875 103.875 C243.02679688 103.43929687 242.17859375 103.00359375 241.3046875 102.5546875 C238.14190475 100.42114931 237.28442756 98.58133548 236 95 C235.82865099 92.9277154 235.84134455 90.91231358 235.88989258 88.83398438 C236.10865341 81.62452099 236.10865341 81.62452099 232.9296875 75.4296875 C230.33885175 73.47083602 230.33885175 73.47083602 227.58984375 71.78125 C223.55704638 69.00756131 221.38835859 65.19419069 219 61 C215.36190638 64.52784836 212.06919236 68.22272436 208.84375 72.1328125 C207 74 207 74 204.3203125 75.29296875 C201.63688059 76.85833394 201.63688059 76.85833394 201.3984375 80.29296875 C201.39070312 81.57816406 201.38296875 82.86335938 201.375 84.1875 C200.98290474 96.75558033 200.98290474 96.75558033 196.57421875 101.55078125 C191.56514017 105.96324501 187.26642607 106.15809258 180.8918457 106.19287109 C179.65225349 106.20513733 179.65225349 106.20513733 178.38761902 106.21765137 C175.65034708 106.24248002 172.913127 106.25901657 170.17578125 106.2734375 C169.23971731 106.27876118 168.30365337 106.28408485 167.33922386 106.28956985 C162.38281448 106.31629283 157.42643018 106.33566885 152.4699707 106.35009766 C148.37371443 106.36342754 144.2779574 106.3912638 140.18188477 106.43212891 C135.23113602 106.48151873 130.28083955 106.50622673 125.32985497 106.51332474 C123.44685111 106.52002608 121.5638569 106.53521902 119.68099403 106.55921555 C117.0385083 106.59096674 114.39775471 106.59088908 111.75512695 106.58349609 C110.98443878 106.59990143 110.21375061 106.61630676 109.41970825 106.63320923 C103.54840749 106.56633027 99.55936376 104.6817205 95 101 C90.91670277 95.73122938 91 90.57901161 91 84.125 C90.74523415 79.02951683 90.74523415 79.02951683 88.14453125 74.84765625 C86.58469023 73.73721666 84.98914805 72.67536721 83.36328125 71.6640625 C79.96631191 69.2721469 78.20754539 66.23977692 76.09375 62.72265625 C75.55234375 61.86994141 75.55234375 61.86994141 75 61 C74.67 61 74.34 61 74 61 Z M-42 80 C-43.19384462 90.95995686 -43.19384462 90.95995686 -39.97802734 94.71765137 C-36.35804766 96.27642685 -33.22750946 96.56218664 -29.3515625 96.51757812 C-28.59808533 96.5245874 -27.84460815 96.53159668 -27.06829834 96.53881836 C-24.58681989 96.55637048 -22.1064893 96.54478631 -19.625 96.53125 C-17.89534283 96.53394573 -16.16568715 96.53782884 -14.43603516 96.54284668 C-10.81463158 96.54873793 -7.19362319 96.54019101 -3.57226562 96.52148438 C1.0650071 96.49869479 5.70135377 96.51181991 10.33859253 96.53577423 C13.90916903 96.55024245 17.4795267 96.54562158 21.05010986 96.53526306 C22.75970571 96.53259859 24.46932155 96.5358557 26.17889404 96.54518127 C28.57031724 96.55536409 30.96025005 96.53982349 33.3515625 96.51757812 C34.4068515 96.52972351 34.4068515 96.52972351 35.48345947 96.54211426 C38.66124892 96.48747115 41.05738043 95.97529179 43.97802734 94.71765137 C47.19384462 90.95995686 47.19384462 90.95995686 46 80 C16.96 80 -12.08 80 -42 80 Z M102 80 C100.80615538 90.95995686 100.80615538 90.95995686 104.02197266 94.71765137 C107.64195234 96.27642685 110.77249054 96.56218664 114.6484375 96.51757812 C115.40191467 96.5245874 116.15539185 96.53159668 116.93170166 96.53881836 C119.41318011 96.55637048 121.8935107 96.54478631 124.375 96.53125 C126.10465717 96.53394573 127.83431285 96.53782884 129.56396484 96.54284668 C133.18536842 96.54873793 136.80637681 96.54019101 140.42773438 96.52148438 C145.0650071 96.49869479 149.70135377 96.51181991 154.33859253 96.53577423 C157.90916903 96.55024245 161.4795267 96.54562158 165.05010986 96.53526306 C166.75970571 96.53259859 168.46932155 96.5358557 170.17889404 96.54518127 C172.57031724 96.55536409 174.96025005 96.53982349 177.3515625 96.51757812 C178.4068515 96.52972351 178.4068515 96.52972351 179.48345947 96.54211426 C182.66124892 96.48747115 185.05738043 95.97529179 187.97802734 94.71765137 C191.19384462 90.95995686 191.19384462 90.95995686 190 80 C160.96 80 131.92 80 102 80 Z M246 80 C244.80615538 90.95995686 244.80615538 90.95995686 248.02197266 94.71765137 C251.64195234 96.27642685 254.77249054 96.56218664 258.6484375 96.51757812 C259.40191467 96.5245874 260.15539185 96.53159668 260.93170166 96.53881836 C263.41318011 96.55637048 265.8935107 96.54478631 268.375 96.53125 C270.10465717 96.53394573 271.83431285 96.53782884 273.56396484 96.54284668 C277.18536842 96.54873793 280.80637681 96.54019101 284.42773438 96.52148438 C289.0650071 96.49869479 293.70135377 96.51181991 298.33859253 96.53577423 C301.90916903 96.55024245 305.4795267 96.54562158 309.05010986 96.53526306 C310.75970571 96.53259859 312.46932155 96.5358557 314.17889404 96.54518127 C316.57031724 96.55536409 318.96025005 96.53982349 321.3515625 96.51757812 C322.4068515 96.52972351 322.4068515 96.52972351 323.48345947 96.54211426 C326.66124892 96.48747115 329.05738043 95.97529179 331.97802734 94.71765137 C335.19384462 90.95995686 335.19384462 90.95995686 334 80 C304.96 80 275.92 80 246 80 Z M-28 107 C-26.63943624 115.1704481 -26.63943624 115.1704481 -23 122 C-21.43452952 122.09326716 -19.86487228 122.11745582 -18.29663086 122.11352539 C-16.79518776 122.11341209 -16.79518776 122.11341209 -15.26341248 122.11329651 C-14.1748848 122.10813522 -13.08635712 122.10297394 -11.96484375 122.09765625 C-10.85645645 122.0962413 -9.74806915 122.09482635 -8.60609436 122.09336853 C-5.04986931 122.08775033 -1.49370617 122.07519475 2.0625 122.0625 C4.46679597 122.05748734 6.87109292 122.05292403 9.27539062 122.04882812 C15.18361504 122.03777499 21.0918031 122.02101917 27 122 C27.45375 120.824375 27.9075 119.64875 28.375 118.4375 C28.75785156 117.44556641 28.75785156 117.44556641 29.1484375 116.43359375 C30.23343413 113.33289238 31.09752681 110.15865617 32 107 C12.2 107 -7.6 107 -28 107 Z M260 107 C261.36056376 115.1704481 261.36056376 115.1704481 265 122 C266.56547048 122.09326716 268.13512772 122.11745582 269.70336914 122.11352539 C271.20481224 122.11341209 271.20481224 122.11341209 272.73658752 122.11329651 C273.8251152 122.10813522 274.91364288 122.10297394 276.03515625 122.09765625 C277.14354355 122.0962413 278.25193085 122.09482635 279.39390564 122.09336853 C282.95013069 122.08775033 286.50629383 122.07519475 290.0625 122.0625 C292.46679597 122.05748734 294.87109292 122.05292403 297.27539062 122.04882812 C303.18361504 122.03777499 309.0918031 122.02101917 315 122 C315.45375 120.824375 315.9075 119.64875 316.375 118.4375 C316.75785156 117.44556641 316.75785156 117.44556641 317.1484375 116.43359375 C318.23343413 113.33289238 319.09752681 110.15865617 320 107 C300.2 107 280.4 107 260 107 Z M-21 133 C-20.67 138.28 -20.34 143.56 -20 149 C-14.43939235 148.38154736 -9.07996237 147.45208651 -3.6328125 146.1875 C-2.49161453 145.92682739 -2.49161453 145.92682739 -1.32736206 145.66088867 C0.2646149 145.29632535 1.8561547 144.92984814 3.44726562 144.56152344 C5.88820196 143.99694645 8.3306802 143.43945203 10.7734375 142.8828125 C12.32561604 142.5264561 13.87770281 142.1696997 15.4296875 141.8125 C16.5249324 141.56246216 16.5249324 141.56246216 17.64230347 141.30737305 C21.42152676 140.4482122 21.42152676 140.4482122 25 139 C25 137.02 25 135.04 25 133 C9.82 133 -5.36 133 -21 133 Z M267 133 C267.33 138.94 267.66 144.88 268 151 C270.49433594 150.44570312 272.98867188 149.89140625 275.55859375 149.3203125 C288.0390625 146.546875 300.51953125 143.7734375 313 141 C313 138.36 313 135.72 313 133 C297.82 133 282.64 133 267 133 Z M5.37182617 154.73535156 C3.50141685 155.16122037 1.63032003 155.58408103 -0.24145508 156.00390625 C-2.9321445 156.60758505 -5.62052578 157.22070486 -8.30859375 157.8359375 C-9.14821152 158.02247894 -9.98782928 158.20902039 -10.85289001 158.4012146 C-15.36064774 159.34663642 -15.36064774 159.34663642 -19 162 C-18.81864449 164.76713403 -18.5356614 167.3919776 -18.125 170.125 C-17.96837891 171.25615234 -17.96837891 171.25615234 -17.80859375 172.41015625 C-17.54895402 174.27484156 -17.27574971 176.13762887 -17 178 C-8.164028 176.63702593 0.5328522 174.8531584 9.25 172.875 C10.48363281 172.59785156 11.71726562 172.32070313 12.98828125 172.03515625 C15.99286263 171.35970772 18.99673613 170.68127817 22 170 C22.59448142 165.13222258 23.13169116 160.35007249 23.0625 155.4375 C23.05347656 154.59058594 23.04445312 153.74367187 23.03515625 152.87109375 C23.02355469 152.25363281 23.01195312 151.63617188 23 151 C17.35741753 151 10.88159712 153.47680643 5.37182617 154.73535156 Z M300.15625 154.71484375 C299.39074829 154.89004044 298.62524658 155.06523712 297.83654785 155.2457428 C296.21896622 155.61663611 294.6017456 155.98910696 292.98486328 156.36303711 C290.51026361 156.93512721 288.03454562 157.50215333 285.55859375 158.06835938 C283.98691068 158.4293895 282.41529382 158.79070797 280.84375 159.15234375 C280.10306274 159.3221727 279.36237549 159.49200165 278.59924316 159.66697693 C275.68290205 160.34281249 272.84202309 161.05265897 270 162 C269.97222486 163.33320679 269.95326659 164.66659713 269.9375 166 C269.92589844 166.7425 269.91429687 167.485 269.90234375 168.25 C270.0311329 171.87670253 270.51613021 175.40336158 271 179 C280.90628062 177.07406333 290.79872303 175.11699208 300.625 172.8125 C301.34034912 172.64588867 302.05569824 172.47927734 302.79272461 172.30761719 C306.49367308 171.43574699 306.49367308 171.43574699 310 170 C311.0149136 164.31648386 311.12001711 158.76082132 311 153 C307.23754557 153 303.79930475 153.86958748 300.15625 154.71484375 Z M8.828125 183.53125 C8.1457074 183.68662231 7.46328979 183.84199463 6.76019287 184.0020752 C4.5891812 184.49734364 2.4195991 184.99858368 0.25 185.5 C-1.22516999 185.83763491 -2.7004295 186.17487896 -4.17578125 186.51171875 C-7.78490248 187.33661932 -11.39276622 188.16687967 -15 189 C-15.97415159 193.28307306 -15.80924958 196.46378185 -15.0625 200.8125 C-14.86785156 201.97394531 -14.67320313 203.13539063 -14.47265625 204.33203125 C-14.23869141 205.65267578 -14.23869141 205.65267578 -14 207 C-2.82659524 205.45006601 8.05805524 202.69089423 19 200 C19.61614412 195.45896931 20.12625462 191.09033267 20.0625 186.5 C20.05347656 185.6440625 20.04445312 184.788125 20.03515625 183.90625 C20.02355469 183.2771875 20.01195312 182.648125 20 182 C15.96907975 182 12.74901807 182.6313729 8.828125 183.53125 Z M299.40234375 183.6796875 C298.65287979 183.85251251 297.90341583 184.02533752 297.13124084 184.20339966 C295.5464141 184.57030575 293.96190307 184.93857778 292.37768555 185.30810547 C289.94552428 185.87313583 287.5109479 186.42683095 285.07617188 186.98046875 C283.5388992 187.33783992 282.00178413 187.6958899 280.46484375 188.0546875 C279.73257065 188.21935516 279.00029755 188.38402283 278.24583435 188.55368042 C276.48100913 188.97256064 274.73727381 189.47851328 273 190 C271.43097439 193.13805122 272.43863554 196.26618588 272.9375 199.625 C273.03740234 200.33140625 273.13730469 201.0378125 273.24023438 201.765625 C273.48791959 203.51121607 273.74323871 205.25572084 274 207 C281.1720947 206.30564279 288.01245688 204.66237462 295 202.9375 C296.15628906 202.65583984 297.31257813 202.37417969 298.50390625 202.08398438 C301.33690854 201.39329373 304.16859064 200.69719191 307 200 C307.66 194.06 308.32 188.12 309 182 C305.72214224 182 302.58301461 182.9448278 299.40234375 183.6796875 Z M7.95703125 213.27734375 C6.80138672 213.54353516 5.64574219 213.80972656 4.45507812 214.08398438 C2.65200195 214.50647461 2.65200195 214.50647461 0.8125 214.9375 C-0.40115234 215.21529297 -1.61480469 215.49308594 -2.86523438 215.77929688 C-8.32329989 216.58583613 -8.32329989 216.58583613 -13 219 C-12.93529835 221.68217769 -12.80879885 224.32572676 -12.625 227 C-12.58117187 227.75023437 -12.53734375 228.50046875 -12.4921875 229.2734375 C-12.57120946 232.9429882 -12.57120946 232.9429882 -11 236 C-9.07521187 236.15806531 -7.1450079 236.251135 -5.21484375 236.31640625 C-4.04501953 236.35830078 -2.87519531 236.40019531 -1.66992188 236.44335938 C0.17762695 236.50233398 0.17762695 236.50233398 2.0625 236.5625 C3.29806641 236.60568359 4.53363281 236.64886719 5.80664062 236.69335938 C8.87097335 236.79984198 11.93539073 236.90185424 15 237 C15.9486364 234.15409081 16.27750612 231.86609603 16.53515625 228.89453125 C16.62216797 227.91162109 16.70917969 226.92871094 16.79882812 225.91601562 C16.88583984 224.89185547 16.97285156 223.86769531 17.0625 222.8125 C17.15337891 221.77673828 17.24425781 220.74097656 17.33789062 219.67382812 C17.56183483 217.11614956 17.78240673 214.55822541 18 212 C14.32054353 212 11.51673419 212.45608158 7.95703125 213.27734375 Z M297.08984375 213.27734375 C295.93548828 213.54353516 294.78113281 213.80972656 293.59179688 214.08398438 C291.78291992 214.50647461 291.78291992 214.50647461 289.9375 214.9375 C288.72771484 215.21529297 287.51792969 215.49308594 286.27148438 215.77929688 C280.4864479 216.95250698 280.4864479 216.95250698 275 219 C275.1409349 221.43787385 275.28754542 223.87517853 275.4375 226.3125 C275.47681641 227.00279297 275.51613281 227.69308594 275.55664062 228.40429688 C275.74927415 231.47161535 276.02322717 234.06968152 277 237 C290.365 236.01 290.365 236.01 304 235 C304.66 227.41 305.32 219.82 306 212 C302.80622714 212 300.20079617 212.55885007 297.08984375 213.27734375 Z M-47.8125 252.75 C-48.91537354 253.07315186 -48.91537354 253.07315186 -50.04052734 253.40283203 C-55.60398845 255.27109107 -58.89281955 258.02754272 -62 263 C-64.65142923 269.53434133 -65.44946521 275.78134301 -65.3984375 282.77734375 C-65.40130768 283.66933975 -65.40417786 284.56133575 -65.40713501 285.48036194 C-65.40916068 287.35174196 -65.40373668 289.22314388 -65.39111328 291.09448242 C-65.37505718 293.92741203 -65.39100352 296.75891113 -65.41015625 299.59179688 C-65.42592475 312.00426575 -65.36304159 323.18224213 -56.953125 333.05859375 C-47.57649018 342.37896876 -36.58778355 342.29585878 -24.05862427 342.26069641 C-22.53266872 342.26371931 -21.00671468 342.26760948 -19.48076332 342.27228898 C-15.2995357 342.28255989 -11.11839392 342.28038947 -6.9371593 342.27610838 C-2.42308299 342.27363952 2.09097275 342.28265732 6.6050415 342.29014587 C15.44394841 342.30289039 24.28282494 342.30468687 33.12173949 342.30234561 C40.30682152 342.30056203 47.49189433 342.30231295 54.67697525 342.30657005 C55.69988776 342.30716524 56.72280027 342.30776043 57.77671013 342.30837366 C59.85481055 342.30958542 61.93291096 342.31079955 64.01101138 342.31201603 C83.49624953 342.3228906 102.98147038 342.32072946 122.46670951 342.31463119 C140.28768052 342.30946201 158.10859687 342.32071766 175.92955707 342.33972941 C194.23380467 342.35910685 212.5380264 342.36736397 230.84228432 342.36360615 C241.1164512 342.36169398 251.39057156 342.36418327 261.66473007 342.37832069 C270.41114961 342.39023425 279.15749398 342.39163964 287.90391456 342.37953053 C292.36489486 342.37364171 296.82573768 342.37254251 301.28670883 342.38453293 C305.37396835 342.39539105 309.46097556 342.39228926 313.54822327 342.37827124 C315.02325313 342.37562413 316.49830275 342.37799134 317.9733132 342.38600711 C328.13646397 342.43738437 338.07734228 342.0806195 346.40234375 335.5859375 C352.76625811 329.26870222 356.18198654 322.01871148 356.4140625 313.109375 C356.43360992 312.45166107 356.45315735 311.79394714 356.47329712 311.11630249 C356.53362325 308.99432862 356.58014766 306.87235313 356.625 304.75 C356.66076904 303.29149494 356.69690273 301.83299878 356.73339844 300.37451172 C356.80244027 297.52353966 356.86458654 294.67254 356.92089844 291.82128906 C356.98550375 288.70029412 357.06922117 285.58109734 357.1640625 282.4609375 C357.57041851 271.32789432 357.57041851 271.32789432 354 261 C338.87574834 246.33806171 310.28907026 246.59451247 290.64453125 246.78515625 C277.87098493 247.07748617 266.24810908 249.47799217 254.33203125 254.01171875 C247.78554597 255.95340782 242.62372201 254.80429335 236.3125 252.6875 C209.23779823 244.27904079 180.23812973 244.53585149 153.515625 254.01171875 C146.86074614 255.88247914 141.71969446 254.83648265 135.3125 252.6875 C108.2855106 244.29385859 78.2864718 244.16252182 51.67578125 254.109375 C44.15832932 255.93081925 37.14011091 253.64808722 29.875 251.5625 C4.32318152 244.63483169 -22.48334676 244.94324685 -47.8125 252.75 Z " fill="#000000" transform="translate(110,84)"/>
<path d="M0 0 C1.28584974 2.57169949 1.15950176 4.49837366 1.2109375 7.375 C1.23929688 8.44234375 1.26765625 9.5096875 1.296875 10.609375 C1.3489545 12.86962524 1.39322692 15.13006886 1.4296875 17.390625 C1.460625 18.45796875 1.4915625 19.5253125 1.5234375 20.625 C1.54325684 21.60726563 1.56307617 22.58953125 1.58349609 23.6015625 C1.72094238 24.39304687 1.85838867 25.18453125 2 26 C5.12911623 28.08607748 5.81127139 28.24924418 9.36474609 28.24482727 C10.70227936 28.2507338 10.70227936 28.2507338 12.0668335 28.25675964 C13.04251282 28.25106461 14.01819214 28.24536957 15.0234375 28.23950195 C16.05293518 28.24151611 17.08243286 28.24353027 18.14312744 28.24560547 C20.38083629 28.24915398 22.61855517 28.24838019 24.85626221 28.24382973 C28.39436464 28.23825072 31.93213752 28.24737141 35.47021484 28.2610321 C45.53028828 28.29822588 55.59025042 28.31667431 65.65039062 28.30541992 C71.80074337 28.29958168 77.95063281 28.31776682 84.10089111 28.35130882 C86.44849351 28.35928431 88.79614611 28.35795697 91.14373779 28.34728432 C94.42186192 28.33302097 97.69852017 28.34916235 100.9765625 28.37231445 C101.95224182 28.36054672 102.92792114 28.34877899 103.9331665 28.33665466 C106.39196213 28.37083931 108.6063093 28.43855456 111 29 C113.16943359 31.36735535 113.16943359 31.36735535 114 34 C113.3125 36.75 113.3125 36.75 112 39 C109.66410245 40.16794878 108.27839954 40.13557521 105.67526245 40.15390015 C104.31276619 40.16680084 104.31276619 40.16680084 102.92274475 40.17996216 C101.92327316 40.18422211 100.92380157 40.18848206 99.89404297 40.19287109 C98.31817162 40.20513733 98.31817162 40.20513733 96.71046448 40.21765137 C93.22104466 40.24253641 89.73166568 40.25903131 86.2421875 40.2734375 C85.05145756 40.27876118 83.86072762 40.28408485 82.63391495 40.28956985 C76.32886651 40.31631768 70.02383796 40.33568552 63.71875 40.35009766 C57.20857764 40.36672982 50.69891304 40.41149173 44.18893242 40.4624691 C39.18227566 40.49614648 34.17573918 40.50767584 29.16897964 40.51332474 C26.76963557 40.52003808 24.37029942 40.53526215 21.97106552 40.55921555 C18.60773321 40.59087238 15.24576673 40.59090206 11.88232422 40.58349609 C10.89499802 40.59990143 9.90767181 40.61630676 8.89042664 40.63320923 C2.44494225 40.57526094 -2.09106255 39.31992617 -7 35 C-11.89841462 28.72436863 -11.54389452 21.85442221 -11.375 14.1875 C-11.37371094 13.05634766 -11.37242188 11.92519531 -11.37109375 10.75976562 C-11.28171345 2.42257018 -11.28171345 2.42257018 -9 -1 C-5.20980534 -2.26339822 -3.62477616 -1.49719015 0 0 Z " fill="#000000" transform="translate(69,373)"/>
<path d="M0 0 C10.67610696 2.40071188 21.40579135 2.57367178 31.953125 -0.3359375 C35.265625 -0.7109375 35.265625 -0.7109375 37.953125 -0.3359375 C39.890625 1.3515625 39.890625 1.3515625 40.953125 3.6640625 C40.87897465 6.70422686 40.46175053 8.11474692 38.390625 10.3515625 C32.21965002 13.67439518 25.44897597 14.08098712 18.578125 14.1015625 C17.67964844 14.10470459 16.78117187 14.10784668 15.85546875 14.11108398 C8.35613291 13.9838357 1.27960241 12.76411142 -6.046875 11.2265625 C-19.58832479 8.38589984 -32.53037242 7.21089339 -46.35546875 7.98046875 C-47.40839111 8.03895996 -48.46131348 8.09745117 -49.54614258 8.15771484 C-51.59052541 8.28450075 -53.63367407 8.43367397 -55.67456055 8.60791016 C-56.59406494 8.67155762 -57.51356934 8.73520508 -58.4609375 8.80078125 C-59.2751416 8.86998779 -60.0893457 8.93919434 -60.92822266 9.01049805 C-63.046875 8.6640625 -63.046875 8.6640625 -64.84521484 6.81958008 C-66.046875 4.6640625 -66.046875 4.6640625 -65.859375 2.0390625 C-65.046875 -0.3359375 -65.046875 -0.3359375 -63.046875 -2.3359375 C-42.58886651 -7.25314429 -20.1592351 -4.82068665 0 0 Z " fill="#000000" transform="translate(365.046875,362.3359375)"/>
</svg>
