<?xml version="1.0" encoding="UTF-8"?>
<svg version="1.1" xmlns="http://www.w3.org/2000/svg" width="512" height="512">
<path d="M0 0 C5.31924647 1.98168006 6.94879114 5.71957951 9.5 10.5 C20.89250825 31.19810057 46.96804356 40.9716942 68.50390625 47.52734375 C86.80311081 52.82009176 106.15174124 55.71417843 125.1875 56.1875 C126.99154297 56.24744141 126.99154297 56.24744141 128.83203125 56.30859375 C169.31380624 57.01733749 218.23804358 49.49627033 249.33984375 21.140625 C253.65586082 16.57823909 257.13277548 11.41864803 259.8125 5.75 C261.5194718 2.56882528 262.83863473 1.51146999 266.1875 0.1875 C273.25096489 0.69892574 277.07536422 4.6633415 282.1875 9.1875 C283.11949219 10.01121094 283.11949219 10.01121094 284.0703125 10.8515625 C303.83012967 29.50850615 315.42468801 57.2261585 316.43359375 84.08984375 C317.25713029 116.5679158 307.83705009 145.52832703 285.234375 169.31640625 C274.30131431 180.6132701 274.30131431 180.6132701 268.1875 184.1875 C267.5275 184.1875 266.8675 184.1875 266.1875 184.1875 C266.19638245 185.06874039 266.20526489 185.94998077 266.2144165 186.85792542 C266.29508768 195.22668475 266.35572847 203.59531055 266.39474869 211.96437168 C266.41548487 216.2653998 266.44354143 220.56610247 266.48925781 224.86694336 C266.53322135 229.02967898 266.55674164 233.19210471 266.56700897 237.35505486 C266.57431097 238.93083502 266.58856525 240.50660126 266.61042023 242.08224678 C266.85116576 260.18481519 263.27137372 275.9777798 250.375 289.5625 C238.34240431 300.87024053 225.1474903 304.83200422 208.8605957 304.65795898 C193.49758325 304.13710828 181.09846295 297.2353322 170.546875 286.1796875 C167.83619812 282.74197477 165.7421667 279.26287058 163.75 275.375 C163.43200439 274.76019775 163.11400879 274.14539551 162.78637695 273.51196289 C155.40624057 258.00712431 156.75818808 241.1824072 156.82714844 224.44458008 C156.83575327 220.98997743 156.81399704 217.53653187 156.7890625 214.08203125 C156.80240631 213.03698929 156.81575012 211.99194733 156.82949829 210.91523743 C156.75715044 203.66329824 155.1704246 198.28829665 151.1875 192.1875 C149.02601615 189.9026254 149.02601615 189.9026254 146.625 188.625 C145.88121094 188.16996094 145.13742187 187.71492187 144.37109375 187.24609375 C138.67905779 184.4866273 132.05460401 184.27601621 125.93359375 185.71875 C118.44369338 188.33381958 114.69941355 192.21680138 111.2571106 199.29095459 C109.4106388 204.29126911 109.54054141 209.13846275 109.62109375 214.4140625 C109.61545914 215.56055267 109.60982452 216.70704285 109.60401917 217.88827515 C109.58766776 221.5301066 109.60300328 225.1707126 109.625 228.8125 C109.73411416 252.42859966 109.6278771 271.74084277 92.671875 289.86328125 C80.06994701 301.6528208 66.07321036 304.69555563 49.48046875 304.46484375 C37.31328055 304.03405199 24.61238271 298.09681346 16.1875 289.1875 C2.84324311 273.57948524 -0.14732414 258.56499115 -0.0078125 238.6796875 C-0.00407488 237.10214417 -0.00123146 235.5245985 0.00076294 233.947052 C0.00834053 229.82728484 0.02793738 225.70766231 0.0501709 221.58795166 C0.07075705 217.37115433 0.07979176 213.15433327 0.08984375 208.9375 C0.11118978 200.68743418 0.1452533 192.43748516 0.1875 184.1875 C-0.60347076 183.88261154 -1.39444153 183.57772308 -2.2093811 183.26359558 C-4.64256981 182.25774693 -6.01352968 181.39404166 -7.8984375 179.61328125 C-8.70039551 178.86510132 -8.70039551 178.86510132 -9.51855469 178.10180664 C-10.06930664 177.57321045 -10.62005859 177.04461426 -11.1875 176.5 C-11.7640332 175.95400146 -12.34056641 175.40800293 -12.93457031 174.84545898 C-14.06782636 173.76931366 -15.19815224 172.6900723 -16.32519531 171.60742188 C-17.49962426 170.48620081 -18.69536287 169.38730219 -19.8984375 168.296875 C-37.32288881 152.09949773 -48.70728807 124.44971866 -49.98095703 101.09912109 C-51.18911172 66.22439632 -41.79829315 37.90068865 -18.6484375 11.7421875 C-13.48820107 6.33524654 -7.75367191 0.38132813 0 0 Z M-4.8125 23.1875 C-21.12624995 38.16243156 -31.24989177 59.93356794 -33.03564453 81.93701172 C-33.77254843 99.72797716 -31.70806252 116.07221697 -23.8125 132.1875 C-23.38324219 133.0846875 -22.95398438 133.981875 -22.51171875 134.90625 C-15.38845032 148.87186923 -5.23449169 160.30756029 7.5390625 169.29296875 C14.85799369 174.52848737 14.85799369 174.52848737 16.1875 177.1875 C16.29339363 179.52871372 16.3336164 181.87297414 16.34521484 184.21655273 C16.35029556 184.94044693 16.35537628 185.66434113 16.36061096 186.41017151 C16.37132571 187.98597942 16.37994155 189.56180265 16.38673019 191.13763237 C16.39852786 193.64026147 16.4179879 196.14271867 16.43984985 198.64527893 C16.50140087 205.76240207 16.55529877 212.87951184 16.58886719 219.99682617 C16.609951 224.3500102 16.64537332 228.70288746 16.68962479 233.05589485 C16.70368936 234.70746277 16.71248541 236.35908505 16.71567917 238.01070976 C16.74642565 252.40227694 18.04374583 265.4555858 28.296875 276.44921875 C36.32246084 283.93515313 44.15395615 287.50227358 55.1875 288.1875 C65.02970836 287.66383544 74.3453855 283.67006812 81.59375 276.96875 C90.65747584 266.83870347 92.63322771 254.89344402 92.55859375 241.72265625 C92.57597233 239.35221207 92.59355675 236.98176939 92.61132812 234.61132812 C92.6213873 230.92746213 92.62499708 227.24369361 92.62329102 223.55981445 C92.62688549 219.96797602 92.65430965 216.37686394 92.68359375 212.78515625 C92.67541122 211.70041519 92.6672287 210.61567413 92.65879822 209.49806213 C92.77610265 197.2865703 96.23177895 187.22505306 104.84765625 178.5078125 C114.08630088 170.04782356 124.76276775 167.56000066 137.109375 167.87890625 C148.89143873 168.54171609 157.56818855 174.11324675 165.5 182.5 C170.6352817 188.80498476 173.28563771 197.16534715 173.34521484 205.22460938 C173.35547699 206.22665405 173.36573914 207.22869873 173.37631226 208.2611084 C173.38361359 209.34025513 173.39091492 210.41940186 173.3984375 211.53125 C173.4265254 213.83334021 173.45518997 216.13542344 173.484375 218.4375 C173.52546457 222.05338195 173.56236541 225.66913638 173.58886719 229.28515625 C173.616713 232.7841262 173.66260253 236.28251067 173.7109375 239.78125 C173.7158168 241.37567932 173.7158168 241.37567932 173.72079468 243.00231934 C173.92300732 255.54122393 176.54458264 267.07711808 185.296875 276.4453125 C194.46501953 285.01278549 203.38212489 287.76852206 215.7421875 287.52734375 C224.52115643 287.07661271 232.14147682 283.24638817 238.44140625 277.1953125 C248.14371979 266.0387372 249.62356486 254.0850008 249.56762505 239.83774376 C249.5584246 237.27714179 249.56883623 234.71725796 249.58424377 232.1566925 C249.62411817 224.88466307 249.62553822 217.61269688 249.62329102 210.34057617 C249.62323992 205.87444917 249.64239309 201.40871644 249.67262459 196.94269753 C249.68343028 194.42480979 249.67133812 191.90767941 249.65879822 189.38981628 C249.66770132 187.84540052 249.67777525 186.3009909 249.68920898 184.7565918 C249.67946548 184.06092102 249.66972198 183.36525024 249.65968323 182.64849854 C249.72986666 177.89458584 250.8668863 175.54814518 254.1875 172.1875 C256.34375 170.5546875 256.34375 170.5546875 258.6875 169.0625 C281.13505978 153.71233044 293.26521525 131.67571782 298.76953125 105.41015625 C301.96666628 80.75934877 296.68122005 55.56764813 282.1875 35.1875 C278.77053134 30.95269567 275.02543393 27.03954398 271.1875 23.1875 C268.74694498 25.61086801 266.32505254 28.04122934 263.96875 30.546875 C233.70163619 62.2651518 184.77974479 71.82018275 142.60717773 73.13916016 C95.69401844 74.07638198 40.71236057 66.98822488 5.13671875 33.2421875 C3.45864373 31.58207902 1.8179598 29.89418909 0.1875 28.1875 C-0.78917833 27.2058513 -1.76810206 26.22642775 -2.75 25.25 C-3.7709375 24.2290625 -3.7709375 24.2290625 -4.8125 23.1875 Z " fill="#000000" transform="translate(122.8125,191.8125)"/>
<path d="M0 0 C0.67612335 -0.00067474 1.3522467 -0.00134949 2.04885864 -0.00204468 C11.90711682 0.01362078 21.05683399 0.3971452 30.5625 3.25 C32.35494141 3.74306641 32.35494141 3.74306641 34.18359375 4.24609375 C45.92128769 7.77595176 57.78593217 13.11530871 67.3125 20.9375 C68.385 21.700625 69.4575 22.46375 70.5625 23.25 C74.22685589 22.25757028 76.84026832 20.42366839 79.8125 18.125 C103.41074646 1.39359926 134.72702333 -3.3791033 162.9765625 0.93359375 C167.2633837 1.75695359 171.41084856 2.91059206 175.5625 4.25 C176.23877441 4.45898926 176.91504883 4.66797852 177.61181641 4.88330078 C189.99166791 8.79319001 206.6553909 15.53792254 214.5625 26.25 C216.05208982 32.63395638 213.712494 36.92176729 210.46875 42.4453125 C207.27401117 47.1457684 203.51251007 51.18092934 199.5625 55.25 C199.02109375 55.86488281 198.4796875 56.47976562 197.921875 57.11328125 C172.00206552 85.58579924 122.61481299 93.13745121 86.5625 95.25 C38.22175276 97.15673997 -17.91323592 90.62689078 -55.22265625 56.71875 C-61.11479938 51.1488257 -65.73906453 45.479346 -69.4375 38.25 C-69.80359375 37.57324219 -70.1696875 36.89648438 -70.546875 36.19921875 C-72.10548411 32.78805232 -72.46795324 29.80798007 -71.4375 26.25 C-56.2276656 6.63043474 -23.14639004 0.02062865 0 0 Z M-43.375 27.3125 C-44.41454834 27.80484131 -44.41454834 27.80484131 -45.47509766 28.30712891 C-48.08586657 29.63202633 -50.07818171 30.65113618 -51.609375 33.203125 C-51.12023623 39.02832305 -43.84424354 44.01960616 -39.7265625 47.62109375 C-2.56215028 76.99625245 54.06062364 81.98612535 99.375 77.0625 C133.477543 72.99762289 169.43060684 63.44067392 193.41015625 37.23046875 C194.70629835 35.34182818 194.70629835 35.34182818 194.69140625 33.24609375 C192.86180454 30.01105405 189.74183332 28.84768876 186.5 27.3125 C185.42069214 26.79308838 185.42069214 26.79308838 184.31958008 26.26318359 C160.13117324 14.95014373 134.53696067 13.48204119 109.26953125 22.4140625 C97.54055486 27.11779171 86.88270099 33.12201436 77.77734375 41.98828125 C74.41555038 43.90337694 71.26915018 44.00742309 67.5625 43.25 C64.95684967 41.87703906 62.87920929 40.07779068 60.6875 38.125 C59.45739285 37.10318991 58.22431513 36.08494529 56.98828125 35.0703125 C56.39740723 34.57950195 55.8065332 34.08869141 55.19775391 33.58300781 C44.41004697 24.78920669 28.3815944 18.77096951 14.5625 17.25 C13.47453125 17.11851563 12.3865625 16.98703125 11.265625 16.8515625 C-8.1390115 15.00935017 -25.91718975 18.9025394 -43.375 27.3125 Z " fill="#000000" transform="translate(184.4375,15.75)"/>
<path d="M0 0 C1.10359863 -0.00717545 1.10359863 -0.00717545 2.22949219 -0.01449585 C3.77931873 -0.0178863 5.32921761 -0.00874342 6.87890625 0.01220703 C9.24381786 0.03899248 11.60398502 0.01243833 13.96875 -0.01953125 C15.47917708 -0.01622699 16.98960123 -0.0098204 18.5 0 C19.5533252 -0.01518173 19.5533252 -0.01518173 20.62792969 -0.03067017 C24.12982092 0.05242754 26.21698028 0.64363498 29.20385742 2.49145508 C32.27878166 7.25922032 31.8725371 11.53427118 31.73828125 17.08984375 C31.73120651 18.19257126 31.72413177 19.29529877 31.71684265 20.43144226 C31.68889489 23.94717767 31.62615165 27.46130993 31.5625 30.9765625 C31.53741781 33.36260718 31.51460451 35.74867687 31.49414062 38.13476562 C31.43906692 43.97840987 31.35543545 49.82112165 31.25 55.6640625 C32.22146973 55.64013428 33.19293945 55.61620605 34.19384766 55.59155273 C36.097229 55.56363647 36.097229 55.56363647 38.0390625 55.53515625 C39.29928223 55.51122803 40.55950195 55.4872998 41.85791016 55.46264648 C45.25 55.6640625 45.25 55.6640625 48.625 57.7265625 C50.75791742 61.58222092 51.13507119 63.31246247 50.25 67.6640625 C48.28229143 70.67545433 45.76536585 73.10620736 43.25 75.6640625 C41.83267024 77.18634117 40.4277179 78.71952489 39.02270508 80.25317383 C37.48271853 81.93291224 35.93580337 83.60599477 34.38671875 85.27734375 C31.35717058 88.54767563 28.33113854 91.82115627 25.3125 95.1015625 C24.45785156 96.02839844 23.60320312 96.95523438 22.72265625 97.91015625 C20.94152319 99.89388264 19.23951732 101.88478648 17.55859375 103.94921875 C14.56838749 107.46562036 14.07828811 107.59617003 9.4375 107.9765625 C5.12108205 107.89116574 3.32046972 106.81326221 0.25 103.6640625 C-1.39980984 101.83940868 -3.01433045 99.99058286 -4.61328125 98.12109375 C-7.18495912 95.16389927 -9.83585029 92.28781405 -12.5 89.4140625 C-13.26364868 88.58878052 -13.26364868 88.58878052 -14.04272461 87.74682617 C-16.13913316 85.48165427 -18.23684307 83.21769022 -20.33496094 80.95410156 C-21.85031389 79.31759609 -23.36291514 77.67858728 -24.875 76.0390625 C-26.20917969 74.59660156 -26.20917969 74.59660156 -27.5703125 73.125 C-30.26657585 70.0808317 -31.65823194 68.37198756 -32.1875 64.2890625 C-31.75 60.6640625 -31.75 60.6640625 -30.125 57.7265625 C-26.13221929 55.28652984 -24.15579338 55.4474968 -19.5390625 55.53515625 C-18.2701416 55.55376709 -17.0012207 55.57237793 -15.69384766 55.59155273 C-14.72237793 55.61548096 -13.7509082 55.63940918 -12.75 55.6640625 C-12.76110306 55.04876175 -12.77220612 54.433461 -12.78364563 53.79951477 C-12.89431497 47.39196294 -12.9696988 40.98468282 -13.0246582 34.57641602 C-13.04979315 32.18535331 -13.08390633 29.79436736 -13.12719727 27.40356445 C-13.18789061 23.96546486 -13.21622072 20.52838154 -13.23828125 17.08984375 C-13.26408768 16.02196121 -13.2898941 14.95407867 -13.31648254 13.85383606 C-13.31824676 9.17925966 -13.2782432 6.48311993 -10.70385742 2.49145508 C-7.07294371 0.24520422 -4.15245545 -0.05984996 0 0 Z M4.25 17.6640625 C4.24589111 19.12223389 4.24178223 20.58040527 4.23754883 22.08276367 C4.21576397 27.49702213 4.1614798 32.91055321 4.09741211 38.32446289 C4.07422668 40.66683985 4.05983514 43.00932114 4.05444336 45.35180664 C4.04515824 48.72087666 4.0041743 52.08830441 3.95703125 55.45703125 C3.96293022 57.02604439 3.96293022 57.02604439 3.96894836 58.62675476 C3.82122293 66.00162808 3.82122293 66.00162808 0.70581055 69.61450195 C-0.10460693 70.29085693 -0.91502441 70.96721191 -1.75 71.6640625 C-2.18019946 75.65418085 -2.18019946 75.65418085 0.18359375 77.953125 C1.42302734 79.10941406 1.42302734 79.10941406 2.6875 80.2890625 C7.17751479 84.51909209 7.17751479 84.51909209 8.25 86.6640625 C11.65414403 85.52934782 12.49276648 84.49180263 14.75 81.7890625 C16.83578225 79.30990903 18.92301287 76.9201049 21.25 74.6640625 C20.49468727 71.48332894 20.49468727 71.48332894 17.73168945 69.67700195 C14.03183634 65.18512912 14.52170047 61.11398527 14.54296875 55.45703125 C14.52784744 54.37649979 14.51272614 53.29596832 14.49714661 52.18269348 C14.45423242 48.73877148 14.44542756 45.29572537 14.4375 41.8515625 C14.41435875 39.51364853 14.3889942 37.17575543 14.36132812 34.83789062 C14.29843827 29.11320368 14.26613211 23.38906446 14.25 17.6640625 C10.95 17.6640625 7.65 17.6640625 4.25 17.6640625 Z " fill="#000000" transform="translate(246.75,125.3359375)"/>
</svg>
