<?xml version="1.0" encoding="UTF-8"?>
<svg version="1.1" xmlns="http://www.w3.org/2000/svg" width="512" height="512">
<path d="M0 0 C0.87716675 -0.00979385 1.7543335 -0.01958771 2.65808105 -0.02967834 C28.869735 -0.26194558 52.23796285 1.84032547 77.41259766 9.52880859 C86.32209837 12.18866159 95.4619012 14.82966275 104.7890625 15.23828125 C105.53800781 15.27824219 106.28695312 15.31820313 107.05859375 15.359375 C119.23155211 15.69368888 130.79886959 12.91221736 142.3515625 9.36328125 C159.69656438 4.21666858 177.24871005 0.12607781 195.4140625 0.03515625 C196.31922607 0.02945618 197.22438965 0.0237561 198.15698242 0.0178833 C200.06639456 0.00848319 201.97582256 0.00191931 203.88525391 -0.00195312 C206.75323165 -0.01159825 209.62047296 -0.04264474 212.48828125 -0.07421875 C239.17622434 -0.22949458 263.47402189 6.1928227 283.0078125 25.3359375 C304.55725866 47.36639809 313.14751896 80.67572241 312.8515625 110.86328125 C312.84253906 112.07242188 312.83351563 113.2815625 312.82421875 114.52734375 C312.80681641 115.86925781 312.80681641 115.86925781 312.7890625 117.23828125 C313.51496582 117.21209717 314.24086914 117.18591309 314.98876953 117.15893555 C318.29697791 117.05461315 321.6048397 116.98984253 324.9140625 116.92578125 C326.05617188 116.88388672 327.19828125 116.84199219 328.375 116.79882812 C337.87912633 116.66068675 337.87912633 116.66068675 341.53125 119.6328125 C344.62387216 123.20163426 345.18319339 125.3625671 345.1484375 130.1328125 C344.51324436 133.85421578 342.44927234 135.64140974 339.7890625 138.23828125 C337.07504956 139.59528772 334.94059934 139.35066735 331.90625 139.3359375 C330.73964844 139.33271484 329.57304687 139.32949219 328.37109375 139.32617188 C327.14777344 139.31779297 325.92445313 139.30941406 324.6640625 139.30078125 C323.43300781 139.29626953 322.20195312 139.29175781 320.93359375 139.28710938 C317.88536858 139.27529455 314.83723936 139.25882153 311.7890625 139.23828125 C311.72589844 140.10324219 311.66273438 140.96820313 311.59765625 141.859375 C310.70648025 151.02441661 308.79056481 159.62316204 306.2890625 168.48828125 C305.98025146 169.58325928 305.67144043 170.6782373 305.35327148 171.80639648 C302.88028744 180.34514027 302.88028744 180.34514027 300.7890625 184.23828125 C301.70421631 184.32746826 302.61937012 184.41665527 303.56225586 184.50854492 C309.03719421 185.2976056 314.18754779 187.16759243 319.41796875 188.9140625 C320.52583237 189.28049362 321.63369598 189.64692474 322.77513123 190.02445984 C325.11013648 190.79897675 327.44410835 191.57661526 329.77709961 192.35717773 C333.33937165 193.54671042 336.90667718 194.72014867 340.47460938 195.89257812 C342.74771983 196.64876636 345.02051723 197.40589638 347.29296875 198.1640625 C348.3556044 198.51213455 349.41824005 198.8602066 350.51307678 199.21882629 C356.15860762 201.12415984 361.48333807 202.93255682 365.7890625 207.23828125 C366.38239072 212.76470984 366.73515667 217.59838469 363.9140625 222.48828125 C358.73984194 225.38584476 353.53808038 224.89081424 347.84555054 223.5395813 C344.59259575 222.54573519 341.38553834 221.4614586 338.17578125 220.3359375 C336.41691338 219.7402018 336.41691338 219.7402018 334.62251282 219.13243103 C330.90218171 217.86938751 327.18931297 216.58591776 323.4765625 215.30078125 C319.74537678 214.02131496 316.01128869 212.75037978 312.27705383 211.47984314 C309.96043721 210.69008361 307.6454125 209.89563522 305.3321991 209.09596252 C303.75950005 208.55551552 303.75950005 208.55551552 302.1550293 208.00415039 C301.2369902 207.68660294 300.31895111 207.36905548 299.37309265 207.04188538 C296.85805356 206.25973669 294.37950242 205.7045608 291.7890625 205.23828125 C280.91397093 224.27613578 271.50530307 243.75940959 264.2890625 264.48828125 C263.97485352 265.3601709 263.66064453 266.23206055 263.33691406 267.13037109 C255.97228503 289.31702185 256.33522323 314.43234162 254.67022705 337.57080078 C248.28045458 426.28095501 248.28045458 426.28095501 233.74609375 439.70703125 C223.54145704 447.6914975 212.44137856 449.64703518 199.7890625 448.23828125 C191.33731969 446.18735043 184.3865379 441.87288762 178.7890625 435.23828125 C173.73848139 426.68473086 170.33120113 417.65860486 167.30368042 408.22027588 C158.4979874 380.93392927 147.66572663 352.92789341 129.7890625 330.23828125 C129.36367188 329.64917969 128.93828125 329.06007813 128.5 328.453125 C124.73944324 323.45184033 119.33659278 320.01204639 113.7890625 317.23828125 C106.88395104 316.52395937 103.25210848 318.09465356 97.7890625 322.23828125 C96.56316406 323.15287109 96.56316406 323.15287109 95.3125 324.0859375 C72.09257568 343.89116707 60.92827223 382.09331882 51.5234375 409.859375 C51.17482666 410.88708008 50.82621582 411.91478516 50.46704102 412.97363281 C49.83297707 414.86347782 49.20999082 416.75709824 48.60131836 418.65527344 C44.8898252 429.81390126 39.43269815 438.6821656 29.20703125 444.77734375 C20.00681963 449.28305614 9.60550425 449.93164698 -0.30859375 447.46875 C-2.7406208 446.54802784 -4.94582221 445.51046929 -7.2109375 444.23828125 C-8.2421875 443.68140625 -9.2734375 443.12453125 -10.3359375 442.55078125 C-22.10248923 433.08638095 -25.42933625 422.45582544 -27.7109375 407.92578125 C-27.86585159 406.9583197 -27.86585159 406.9583197 -28.02389526 405.97131348 C-31.51921757 384.04469259 -33.73587128 362.01337045 -35.20703125 339.86328125 C-35.29122818 338.59997986 -35.37542511 337.33667847 -35.46217346 336.03509521 C-35.87666583 329.75139985 -36.27268318 323.46724183 -36.64086914 317.18066406 C-38.67164285 283.92084196 -45.3907955 257.93291784 -60.2109375 228.23828125 C-61.27402651 226.08753062 -62.33653465 223.93649277 -63.3984375 221.78515625 C-65.302025 217.94332082 -67.20713659 214.10230838 -69.12890625 210.26953125 C-69.50813232 209.51220703 -69.8873584 208.75488281 -70.27807617 207.97460938 C-71.09019931 206.26293955 -71.09019931 206.26293955 -72.2109375 205.23828125 C-74.03915039 205.83515747 -74.03915039 205.83515747 -75.90429688 206.4440918 C-80.5037407 207.94542476 -85.10361701 209.44542899 -89.70361328 210.94506836 C-91.67996519 211.58957279 -93.65620561 212.23441927 -95.63232422 212.87963867 C-102.15528334 215.00928058 -108.68150973 217.12855794 -115.2109375 219.23828125 C-116.02350006 219.50182404 -116.83606262 219.76536682 -117.67324829 220.03689575 C-119.87810009 220.75016651 -122.08504401 221.45646464 -124.29296875 222.16015625 C-125.5147583 222.55170898 -126.73654785 222.94326172 -127.99536133 223.34667969 C-132.42936715 224.57612235 -135.65034262 224.91115591 -140.2109375 224.23828125 C-143.08123619 222.44434457 -144.70225388 221.25564849 -146.2109375 218.23828125 C-146.484375 216.03125 -146.484375 216.03125 -146.5859375 213.42578125 C-146.63492188 212.57371094 -146.68390625 211.72164062 -146.734375 210.84375 C-145.96499756 207.01408768 -144.18246992 205.74614303 -141.2109375 203.23828125 C-138.37008996 201.83869021 -135.4324812 200.86907224 -132.421875 199.8984375 C-131.56397369 199.60899765 -130.70607239 199.3195578 -129.82217407 199.02134705 C-127.0812017 198.10052038 -124.33388123 197.20056113 -121.5859375 196.30078125 C-119.79382668 195.70119569 -118.00215535 195.10029485 -116.2109375 194.49804688 C-104.58826267 190.60648019 -92.90939644 186.89478365 -81.2109375 183.23828125 C-81.4232048 182.63292542 -81.63547211 182.02756958 -81.85417175 181.40386963 C-92.2109375 151.80912669 -92.2109375 151.80912669 -92.2109375 139.23828125 C-93.34523193 139.27755737 -93.34523193 139.27755737 -94.50244141 139.31762695 C-97.94672665 139.42191123 -101.39067927 139.48670897 -104.8359375 139.55078125 C-106.62064453 139.61362305 -106.62064453 139.61362305 -108.44140625 139.67773438 C-118.33225263 139.81587469 -118.33225263 139.81587469 -121.984375 136.84375 C-125.0389699 133.26933807 -125.60493019 131.09502794 -125.5703125 126.34375 C-124.93511936 122.62234672 -122.87114734 120.83515276 -120.2109375 118.23828125 C-117.54915529 116.90739015 -115.52354354 117.12559132 -112.546875 117.140625 C-110.86464844 117.14545898 -110.86464844 117.14545898 -109.1484375 117.15039062 C-107.9728125 117.15876953 -106.7971875 117.16714844 -105.5859375 117.17578125 C-104.40257812 117.18029297 -103.21921875 117.18480469 -102 117.18945312 C-99.07026243 117.20126658 -96.14062478 117.21773867 -93.2109375 117.23828125 C-93.23172363 116.33875732 -93.25250977 115.4392334 -93.27392578 114.51245117 C-93.8722439 83.52475509 -86.12019249 50.83350773 -65.2109375 27.23828125 C-64.32535156 26.21154297 -64.32535156 26.21154297 -63.421875 25.1640625 C-47.56309309 7.98933911 -22.80046289 0.20940961 0 0 Z M-49.3203125 43.40625 C-66.70228807 63.5167915 -71.2109375 91.53127596 -71.2109375 117.23828125 C-43.1609375 117.23828125 -15.1109375 117.23828125 13.7890625 117.23828125 C14.1190625 107.66828125 14.4490625 98.09828125 14.7890625 88.23828125 C18.9273783 77.89249175 22.01649836 72.11572737 31.7890625 67.23828125 C36.9125732 65.12286395 41.70022281 64.82242344 47.1640625 64.61328125 C48.41123047 64.55527344 48.41123047 64.55527344 49.68359375 64.49609375 C51.71841406 64.40253879 53.75370666 64.31935412 55.7890625 64.23828125 C56.04300781 63.68398438 56.29695313 63.1296875 56.55859375 62.55859375 C56.90277344 61.83414063 57.24695313 61.1096875 57.6015625 60.36328125 C57.93800781 59.64398438 58.27445313 58.9246875 58.62109375 58.18359375 C59.7890625 56.23828125 59.7890625 56.23828125 62.7890625 54.23828125 C66.97395969 53.90078954 69.73904957 53.85023299 73.6640625 55.30078125 C75.7890625 57.23828125 75.7890625 57.23828125 77.7890625 64.23828125 C98.9090625 64.23828125 120.0290625 64.23828125 141.7890625 64.23828125 C142.4490625 61.92828125 143.1090625 59.61828125 143.7890625 57.23828125 C147.12659536 54.19523659 150.47069965 53.64642159 154.859375 53.8203125 C158.25989914 54.55686327 159.7559536 56.54740182 161.7890625 59.23828125 C162.48888128 60.89130148 163.16156534 62.55647581 163.7890625 64.23828125 C165.56410156 64.27695313 165.56410156 64.27695313 167.375 64.31640625 C179.03523203 64.68649402 189.22953412 65.47969407 197.7890625 74.23828125 C207.73877479 87.62466297 205.15683021 98.90354474 205.7890625 117.23828125 C233.8390625 117.23828125 261.8890625 117.23828125 290.7890625 117.23828125 C290.7890625 91.2402871 286.52286621 61.83506248 267.7890625 42.23828125 C267.14839844 41.54605469 266.50773437 40.85382812 265.84765625 40.140625 C249.51988489 24.06071355 227.47065865 21.71712693 205.72219849 21.81045532 C184.19690304 22.02880374 164.59355709 26.02966473 144.08032227 32.27124023 C118.27894258 40.06719413 94.24339462 38.12902336 68.7890625 30.30078125 C31.45677054 18.96273013 -19.38253983 12.63687254 -49.3203125 43.40625 Z M37.7890625 89.23828125 C35.31055886 92.61060062 35.52984462 95.9517558 35.5144043 100.03881836 C35.50929337 100.71412094 35.50418243 101.38942352 35.49891663 102.08518982 C35.48504431 104.31209231 35.48597555 106.5386845 35.48828125 108.765625 C35.48439303 110.31734837 35.4800581 111.86907069 35.47529602 113.42079163 C35.46783891 116.671432 35.46812138 119.92196376 35.47338867 123.17260742 C35.47918285 127.33333557 35.46225142 131.49361849 35.439044 135.65427303 C35.42429515 138.85851124 35.42343651 142.06264251 35.42655373 145.26690865 C35.4260411 146.80067387 35.42081427 148.33444518 35.41074181 149.86817741 C35.39837185 152.01519378 35.40517145 154.16134653 35.41674805 156.30834961 C35.41611862 157.52872421 35.4154892 158.74909882 35.4148407 160.00645447 C35.82895503 163.58279819 36.57050227 165.42208231 38.7890625 168.23828125 C43.98163209 171.20724404 43.98163209 171.20724404 55.7890625 170.23828125 C55.7890625 142.51828125 55.7890625 114.79828125 55.7890625 86.23828125 C43.67513852 85.12354045 43.67513852 85.12354045 37.7890625 89.23828125 Z M77.7890625 86.23828125 C77.7890625 96.46828125 77.7890625 106.69828125 77.7890625 117.23828125 C98.9090625 117.23828125 120.0290625 117.23828125 141.7890625 117.23828125 C141.7890625 107.00828125 141.7890625 96.77828125 141.7890625 86.23828125 C120.6690625 86.23828125 99.5490625 86.23828125 77.7890625 86.23828125 Z M163.7890625 86.23828125 C163.7890625 113.95828125 163.7890625 141.67828125 163.7890625 170.23828125 C175.90298648 171.35302205 175.90298648 171.35302205 181.7890625 167.23828125 C184.26756614 163.86596188 184.04828038 160.5248067 184.0637207 156.43774414 C184.06883163 155.76244156 184.07394257 155.08713898 184.07920837 154.39137268 C184.09308069 152.16447019 184.09214945 149.937878 184.08984375 147.7109375 C184.09373197 146.15921413 184.0980669 144.60749181 184.10282898 143.05577087 C184.11028609 139.8051305 184.11000362 136.55459874 184.10473633 133.30395508 C184.09894215 129.14322693 184.11587358 124.98294401 184.139081 120.82228947 C184.15382985 117.61805126 184.15468849 114.41391999 184.15157127 111.20965385 C184.1520839 109.67588863 184.15731073 108.14211732 184.16738319 106.60838509 C184.17975315 104.46136872 184.17295355 102.31521597 184.16137695 100.16821289 C184.16200638 98.94783829 184.1626358 97.72746368 184.1632843 96.47010803 C183.74916997 92.89376431 183.00762273 91.05448019 180.7890625 88.23828125 C175.59649291 85.26931846 175.59649291 85.26931846 163.7890625 86.23828125 Z M-69.2109375 140.23828125 C-67.57520518 161.81500114 -58.05552281 181.6666868 -48.46484375 200.7578125 C-48.03333008 201.61694244 -47.60181641 202.47607239 -47.15722656 203.36123657 C-44.97817036 207.69066928 -42.78514415 212.01225221 -40.56982422 216.32324219 C-34.75318007 227.7126641 -29.69993716 239.26241615 -25.2109375 251.23828125 C-24.83888687 252.22362854 -24.83888687 252.22362854 -24.45932007 253.22888184 C-15.80446391 276.69680673 -15.15559559 302.54945279 -13.38806152 327.26208496 C-12.86325392 334.59890244 -12.32768694 341.93487651 -11.7734375 349.26953125 C-11.68346685 350.46087708 -11.68346685 350.46087708 -11.59167862 351.67629051 C-10.70215841 363.31002012 -9.55634475 374.89505514 -8.140625 386.4765625 C-8.05800415 387.15538483 -7.9753833 387.83420715 -7.89025879 388.53359985 C-6.92653541 396.37352559 -5.81741878 404.16605043 -4.3359375 411.92578125 C-4.1507959 412.94357666 -4.1507959 412.94357666 -3.96191406 413.98193359 C-2.81438448 419.02611975 -0.26358376 422.18554627 3.7890625 425.23828125 C7.85685944 426.59421356 11.53574509 426.7690371 15.7890625 426.23828125 C22.85572086 422.57408803 25.15318217 417.86982302 27.57421875 410.5625 C28.10493314 409.0073061 28.635951 407.45221574 29.16723633 405.8972168 C29.44193756 405.0852182 29.71663879 404.2732196 29.99966431 403.43661499 C35.22778593 388.02756227 40.82154723 372.96001591 47.7890625 358.23828125 C48.14307129 357.48869141 48.49708008 356.73910156 48.86181641 355.96679688 C51.07041505 351.33609826 53.37868463 346.76705508 55.7890625 342.23828125 C56.11084473 341.63193848 56.43262695 341.0255957 56.76416016 340.40087891 C66.4274164 322.38618588 79.58927956 302.60639616 99.75390625 295.55078125 C109.38131905 292.80553879 117.68714882 294.21816997 126.7890625 298.23828125 C139.3386862 305.24747849 148.24114648 316.26208386 155.7890625 328.23828125 C156.18593262 328.86589355 156.58280273 329.49350586 156.99169922 330.14013672 C170.52329968 351.78747692 180.1206647 375.32052314 188.2421875 399.4609375 C188.63913818 400.63760986 189.03608887 401.81428223 189.44506836 403.02661133 C190.19650425 405.27584281 190.9350552 407.52943482 191.65844727 409.7878418 C193.84866878 416.39188911 195.86514358 421.96653872 202.1640625 425.61328125 C206.82525277 426.72308846 210.46490495 426.73159485 214.9765625 425.05078125 C221.88500458 420.59867413 222.98345418 414.84020244 224.7890625 407.23828125 C225.56752453 403.37942739 226.17194134 399.5102168 226.7265625 395.61328125 C226.97587524 393.86313721 226.97587524 393.86313721 227.23022461 392.07763672 C230.33355426 368.87481782 231.69717612 345.41858249 233.38101196 322.07897949 C235.47155487 293.13003608 237.66775318 264.63846896 249.8671875 237.8828125 C250.45076271 236.59485779 250.45076271 236.59485779 251.04612732 235.28088379 C255.77255112 224.94960709 260.94718732 214.84353175 266.13500977 204.73828125 C273.85845596 189.66527019 280.70216272 174.37402062 285.7265625 158.17578125 C286.02438881 157.22040466 286.02438881 157.22040466 286.32823181 156.24572754 C287.99723631 150.43378667 288.21596394 145.5423654 288.7890625 139.23828125 C261.3990625 139.23828125 234.0090625 139.23828125 205.7890625 139.23828125 C205.4590625 148.80828125 205.1290625 158.37828125 204.7890625 168.23828125 C200.6507467 178.58407075 197.56162664 184.36083513 187.7890625 189.23828125 C182.6655518 191.35369855 177.87790219 191.65413906 172.4140625 191.86328125 C171.16689453 191.92128906 171.16689453 191.92128906 169.89453125 191.98046875 C167.85971094 192.07402371 165.82441834 192.15720838 163.7890625 192.23828125 C163.53511719 192.79257813 163.28117188 193.346875 163.01953125 193.91796875 C162.67535156 194.64242187 162.33117187 195.366875 161.9765625 196.11328125 C161.64011719 196.83257812 161.30367187 197.551875 160.95703125 198.29296875 C159.7890625 200.23828125 159.7890625 200.23828125 156.7890625 202.23828125 C152.60416531 202.57577296 149.83907543 202.62632951 145.9140625 201.17578125 C143.7890625 199.23828125 143.7890625 199.23828125 141.7890625 192.23828125 C120.6690625 192.23828125 99.5490625 192.23828125 77.7890625 192.23828125 C77.1290625 194.54828125 76.4690625 196.85828125 75.7890625 199.23828125 C72.45152964 202.28132591 69.10742535 202.83014091 64.71875 202.65625 C61.31822586 201.91969923 59.8221714 199.92916068 57.7890625 197.23828125 C57.08924372 195.58526102 56.41655966 193.92008669 55.7890625 192.23828125 C54.60570312 192.2125 53.42234375 192.18671875 52.203125 192.16015625 C40.54289297 191.79006848 30.34859088 190.99686843 21.7890625 182.23828125 C16.91518599 175.68094879 14.59374084 169.54783224 14.375 161.30859375 C14.33632812 160.01953125 14.29765625 158.73046875 14.2578125 157.40234375 C14.22636492 156.05599418 14.19511739 154.70963993 14.1640625 153.36328125 C14.12583209 151.99346611 14.08677749 150.6236737 14.046875 149.25390625 C13.95283535 145.91549862 13.86718193 142.57709311 13.7890625 139.23828125 C4.59141046 139.21500808 -4.60623128 139.19729035 -13.80390644 139.18646908 C-18.07574321 139.1812728 -22.34755968 139.17423497 -26.61938477 139.1628418 C-30.74965296 139.15189636 -34.87990175 139.14597996 -39.01018333 139.14340401 C-40.5780588 139.14157061 -42.14593333 139.13799091 -43.71380043 139.13255119 C-52.26121371 139.10410244 -60.70843654 139.22948814 -69.2109375 140.23828125 Z M77.7890625 139.23828125 C77.7890625 149.46828125 77.7890625 159.69828125 77.7890625 170.23828125 C98.9090625 170.23828125 120.0290625 170.23828125 141.7890625 170.23828125 C141.7890625 160.00828125 141.7890625 149.77828125 141.7890625 139.23828125 C120.6690625 139.23828125 99.5490625 139.23828125 77.7890625 139.23828125 Z " fill="#000000" transform="translate(146.2109375,-0.23828125)"/>
<path d="M0 0 C0.8393969 -0.00205263 1.6787938 -0.00410527 2.54362696 -0.0062201 C5.38103355 -0.01191401 8.21839197 -0.01042992 11.0558033 -0.00901413 C13.10073055 -0.01159639 15.1456573 -0.01460916 17.19058335 -0.01801753 C22.82933536 -0.026107 28.46807466 -0.02787818 34.10683179 -0.028615 C40.18055455 -0.03046215 46.25427065 -0.03800771 52.32798958 -0.04475021 C66.31018882 -0.05905662 80.29238497 -0.06486159 94.27458969 -0.06944216 C101.18130606 -0.07177698 108.0880216 -0.07537947 114.99473731 -0.07913754 C138.62884021 -0.09197308 162.26294264 -0.10269285 185.89704895 -0.10614014 C187.38096007 -0.10636177 188.86487119 -0.10658355 190.34878231 -0.10680549 C191.83631019 -0.10702613 193.32383808 -0.10724661 194.81136596 -0.10746694 C197.79568728 -0.10790949 200.78000859 -0.10835661 203.76432991 -0.10880661 C204.50426943 -0.108916 205.24420895 -0.10902539 206.00657088 -0.1091381 C230.00848423 -0.11277013 254.0103674 -0.12869567 278.01226919 -0.15199697 C303.37812447 -0.17657748 328.74396249 -0.19031212 354.10983002 -0.19150805 C356.89280709 -0.19167951 359.67578415 -0.19189494 362.45876122 -0.19214249 C363.14402724 -0.19219826 363.82929326 -0.19225402 364.53532492 -0.19231148 C375.57595479 -0.19346341 386.61655375 -0.20449727 397.65717317 -0.21902954 C408.74807507 -0.23337591 419.83894557 -0.23638895 430.9298564 -0.22858956 C436.94152669 -0.2246706 442.95309269 -0.22567322 448.96475029 -0.23964691 C454.46317678 -0.2523112 459.96141983 -0.25125451 465.4598458 -0.2390562 C467.4537771 -0.23708618 469.44772107 -0.24023722 471.44163452 -0.24890056 C474.14315952 -0.25989946 476.84402635 -0.25257204 479.54553223 -0.24050903 C480.32729495 -0.24810423 481.10905768 -0.25569942 481.91451019 -0.26352477 C487.45534495 -0.20977782 490.41027495 1.20392309 494.6837635 4.51424026 C496.81252293 7.34802291 496.35666413 10.26529841 496.2618885 13.68220901 C495.7570374 17.0858826 494.41179218 18.83999445 491.89860725 21.13142776 C488.73444178 22.7135105 485.33229728 22.27212895 481.85779285 22.26564884 C481.01279631 22.26800107 480.16779976 22.2703533 479.29719725 22.27277681 C476.43472229 22.27949168 473.57229246 22.27900784 470.70981026 22.27859879 C468.64924672 22.28189586 466.58868383 22.28562109 464.52812177 22.28974026 C458.84150566 22.29978609 453.15490011 22.30348119 447.46827638 22.30612957 C441.34477307 22.31002495 435.22127818 22.31960374 429.09778023 22.32834244 C414.99800338 22.34719231 400.89822847 22.35736572 386.79844257 22.36580312 C379.83415991 22.37000713 372.86987811 22.37522942 365.90559618 22.38048765 C342.07629652 22.39837851 318.24699661 22.41337583 294.41769123 22.42080784 C292.92124924 22.4212826 291.42480724 22.42175849 289.92836525 22.4222355 C289.18624919 22.42247188 288.44413313 22.42270825 287.6795287 22.42295179 C283.91946569 22.42415302 280.15940268 22.42536846 276.39933968 22.42659378 C275.28003701 22.42695401 275.28003701 22.42695401 274.13812216 22.42732151 C249.93550899 22.43521733 225.73294478 22.45865465 201.530353 22.49114972 C175.95496245 22.52542541 150.37960055 22.54515685 124.80418664 22.54845208 C121.99816436 22.54886963 119.1921421 22.5493492 116.38611984 22.54987526 C115.69517472 22.54999845 115.00422959 22.55012164 114.29234674 22.55024857 C103.15959655 22.55258334 92.02690311 22.56825866 80.89417316 22.58871711 C69.7101641 22.60894419 58.52622237 22.61413301 47.34219214 22.60494647 C41.2798662 22.60038476 35.21772502 22.60239625 29.15542412 22.62170792 C23.61065236 22.63921907 18.06620179 22.63844051 12.52142719 22.62281062 C10.51064029 22.62041613 8.49983185 22.62485237 6.48907807 22.63663927 C3.76463783 22.65162631 1.0413552 22.64217774 -1.68305492 22.62641239 C-2.47152088 22.6366346 -3.25998684 22.64685681 -4.0723457 22.65738878 C-7.79555592 22.61006816 -9.90184147 22.25976025 -13.06503886 20.22549123 C-16.61061372 16.57943598 -16.49239876 13.53416076 -16.4568615 8.61580276 C-16.10139275 6.13142776 -16.10139275 6.13142776 -13.78889275 3.06892776 C-9.288613 -0.17545996 -5.33531915 -0.01200426 0 0 Z " fill="#000000" transform="translate(16.10139274597168,489.8685722351074)"/>
</svg>
