<?xml version="1.0" encoding="UTF-8"?>
<svg version="1.1" xmlns="http://www.w3.org/2000/svg" width="512" height="512">
<path d="M0 0 C2.15511245 -0.00269918 4.31022371 -0.00658513 6.46533203 -0.01159668 C10.96724113 -0.01747165 15.4688313 -0.00899334 19.97070312 0.00976562 C25.71694328 0.03255363 31.4624359 0.01941981 37.20864868 -0.00452423 C41.65443468 -0.01903632 46.1000459 -0.01435143 50.5458374 -0.00401306 C52.66355479 -0.00136072 54.78128849 -0.00456247 56.89898682 -0.01393127 C82.21328936 -0.10136861 82.21328936 -0.10136861 92.5 8.59375 C93.31726563 9.26535156 94.13453125 9.93695313 94.9765625 10.62890625 C96.875 12.53125 96.875 12.53125 97.875 15.53125 C98.535 15.53125 99.195 15.53125 99.875 15.53125 C100.10058594 14.95503906 100.32617188 14.37882812 100.55859375 13.78515625 C102.25241548 10.88505199 104.22888249 9.44592649 106.9375 7.46875 C107.83597656 6.79714844 108.73445312 6.12554687 109.66015625 5.43359375 C116.77563589 1.22309729 123.54521489 0.08474802 131.71826172 0.12719727 C133.12750412 0.11690239 133.12750412 0.11690239 134.56521606 0.10639954 C137.64519728 0.08822318 140.72466459 0.09195629 143.8046875 0.09765625 C145.96265832 0.09308978 148.12062769 0.08778283 150.27859497 0.08177185 C154.7923983 0.07285849 159.30602454 0.07524338 163.81982422 0.08520508 C169.58178896 0.09668714 175.34314015 0.0764854 181.10502434 0.04728794 C185.55937534 0.02887164 190.01358081 0.02922932 194.46796036 0.03492546 C196.59126775 0.03507804 198.71458541 0.0290867 200.83785629 0.01663399 C226.20169294 -0.11117079 226.20169294 -0.11117079 236.5 8.59375 C237.31726563 9.26535156 238.13453125 9.93695313 238.9765625 10.62890625 C240.875 12.53125 240.875 12.53125 241.875 15.53125 C242.535 15.53125 243.195 15.53125 243.875 15.53125 C244.10058594 14.95503906 244.32617188 14.37882812 244.55859375 13.78515625 C246.25241548 10.88505199 248.22888249 9.44592649 250.9375 7.46875 C251.83597656 6.79714844 252.73445313 6.12554687 253.66015625 5.43359375 C260.77563589 1.22309729 267.54521489 0.08474802 275.71826172 0.12719727 C277.12750412 0.11690239 277.12750412 0.11690239 278.56521606 0.10639954 C281.64519728 0.08822318 284.72466459 0.09195629 287.8046875 0.09765625 C289.96265832 0.09308978 292.12062769 0.08778283 294.27859497 0.08177185 C298.7923983 0.07285849 303.30602454 0.07524338 307.81982422 0.08520508 C313.58178896 0.09668714 319.34314015 0.0764854 325.10502434 0.04728794 C329.55937534 0.02887164 334.01358081 0.02922932 338.46796036 0.03492546 C340.59126775 0.03507804 342.71458541 0.0290867 344.83785629 0.01663399 C360.07157731 -0.06012657 372.29635585 0.47791296 383.875 11.53125 C393.70217599 21.8254601 395.45544064 32.72903307 395.26915932 46.46351814 C395.23758604 48.93328758 395.23420052 51.40173412 395.23808289 53.87168884 C395.2445483 60.8849064 395.20420572 67.89750018 395.1394043 74.91040039 C395.10149701 79.22222319 395.09791044 83.53302877 395.11443138 87.8449688 C395.11367275 89.4751329 395.0998021 91.10535076 395.07195473 92.73527718 C394.89873283 102.9722632 395.86926487 109.56458747 402.875 117.53125 C404.37755363 119.96484127 405.67725084 122.46494294 406.9375 125.03125 C407.26766113 125.69922607 407.59782227 126.36720215 407.93798828 127.05541992 C410.4001769 132.19914714 412.42628321 137.44285242 414.25 142.84375 C414.48855713 143.54757813 414.72711426 144.25140625 414.97290039 144.9765625 C418.71720782 156.64656874 419.20004994 168.09616589 419.2109375 180.24609375 C419.21738054 181.95040493 419.22410996 183.65471506 419.23110962 185.35902405 C419.24301915 188.9150753 419.2467968 192.47102985 419.24560547 196.02709961 C419.24540216 200.55359016 419.27274471 205.07945377 419.30714989 209.60579586 C419.32952618 213.12084226 419.33343981 216.63574001 419.33238602 220.1508503 C419.3347243 221.81839732 419.34344613 223.48594957 419.35905075 225.15342522 C419.4948521 241.15614571 416.3420739 255.79261854 405.03540039 267.90966797 C393.08965342 280.05599266 379.17088715 284.29815962 362.875 287.78125 C361.05548828 288.1834375 361.05548828 288.1834375 359.19921875 288.59375 C350.31242028 290.53125 350.31242028 290.53125 346.875 290.53125 C346.88388245 291.27769775 346.89276489 292.02414551 346.9019165 292.79321289 C346.98232218 299.85441532 347.04309553 306.91545711 347.08224869 313.97698975 C347.10305515 317.60676731 347.13124354 321.23616415 347.17675781 324.86572266 C347.22046659 328.37356263 347.24418921 331.8810382 347.25450897 335.38912964 C347.26541254 337.36769644 347.29659835 339.34611821 347.32818604 341.32446289 C347.33025376 349.67862811 346.57120406 355.31331535 340.91015625 361.7734375 C340.25917969 362.31226563 339.60820312 362.85109375 338.9375 363.40625 C338.28910156 363.96054687 337.64070313 364.51484375 336.97265625 365.0859375 C330.47142443 369.56537097 323.50359083 369.20588728 315.875 368.53125 C309.21540667 366.85039417 304.68952553 362.06746678 300.875 356.53125 C299.15577109 352.87946699 298.62910368 350.03011424 298.64794922 346.0065918 C298.64810028 344.92584885 298.64825134 343.8451059 298.64840698 342.73161316 C298.65872955 341.5762355 298.66905212 340.42085785 298.6796875 339.23046875 C298.68393234 337.44320122 298.68393234 337.44320122 298.68826294 335.61982727 C298.69944567 331.81936544 298.7245472 328.01914044 298.75 324.21875 C298.76003225 321.63997737 298.76915767 319.06120103 298.77734375 316.48242188 C298.7993788 310.16528397 298.83283768 303.84828391 298.875 297.53125 C298.215 297.86125 297.555 298.19125 296.875 298.53125 C294.15622533 298.87733061 291.44999285 299.17383185 288.72265625 299.43359375 C287.87626083 299.51621964 287.02986542 299.59884552 286.15782166 299.68397522 C284.3395457 299.86000288 282.52106014 300.03387601 280.70239258 300.20581055 C278.06183483 300.45692584 275.42256313 300.7190633 272.78320312 300.98242188 C240.3375701 304.14205034 208.00332268 304.90334628 175.42342377 304.8484993 C172.21149811 304.84369238 168.99958769 304.84265896 165.78765869 304.84225464 C95.22490443 304.81026324 95.22490443 304.81026324 66.875 300.53125 C66.92140625 301.81 66.9678125 303.08875 67.015625 304.40625 C67.05317027 306.11455979 67.08956745 307.82289508 67.125 309.53125 C67.15851563 310.37042969 67.19203125 311.20960938 67.2265625 312.07421875 C67.33789197 319.25496935 65.66875906 324.34314324 60.91015625 329.7734375 C60.25917969 330.31226563 59.60820312 330.85109375 58.9375 331.40625 C58.28910156 331.96054687 57.64070312 332.51484375 56.97265625 333.0859375 C50.47142443 337.56537097 43.50359083 337.20588728 35.875 336.53125 C29.21540667 334.85039417 24.68952553 330.06746678 20.875 324.53125 C19.06349935 320.73595923 18.63671543 317.76399569 18.6796875 313.57421875 C18.68613281 312.46240234 18.69257812 311.35058594 18.69921875 310.20507812 C18.72435547 308.4793457 18.72435547 308.4793457 18.75 306.71875 C18.75902344 305.54892578 18.76804687 304.37910156 18.77734375 303.17382812 C18.80086268 300.29275947 18.83373148 297.41211011 18.875 294.53125 C17.91940186 294.42603027 16.96380371 294.32081055 15.97924805 294.21240234 C6.49850695 293.12384405 -2.80573387 291.56672732 -12.14428711 289.609375 C-14.32027586 289.15462496 -16.49872981 288.71348275 -18.67773438 288.2734375 C-36.27977919 284.66332489 -50.06331113 280.34733447 -63.125 267.53125 C-63.70378906 266.97695313 -64.28257813 266.42265625 -64.87890625 265.8515625 C-73.04488353 257.28048452 -77.34810906 244.49839382 -77.41552734 232.86206055 C-77.42224457 232.12917313 -77.42896179 231.39628571 -77.43588257 230.64118958 C-77.45477501 228.23337888 -77.45878393 225.82584885 -77.4609375 223.41796875 C-77.46737726 221.72231437 -77.47410646 220.02666106 -77.48110962 218.33100891 C-77.49306479 214.77622919 -77.49679284 211.22154644 -77.49560547 207.66674805 C-77.49540371 203.16314838 -77.52256434 198.66018993 -77.55714989 194.15674114 C-77.57966308 190.65002226 -77.58343546 187.14345092 -77.58238602 183.63666725 C-77.58471093 181.97966135 -77.59335362 180.32264935 -77.60905075 178.66571617 C-77.8019284 156.18009558 -72.22918487 127.37302214 -56.08108521 110.38044739 C-53.58122104 106.73919166 -53.63187222 104.55466704 -53.64257812 100.16162109 C-53.63866562 99.43728882 -53.63475311 98.71295654 -53.63072205 97.9666748 C-53.62476078 96.39910118 -53.62789233 94.83147203 -53.6391449 93.26392746 C-53.65646791 90.77335816 -53.64886439 88.28394374 -53.6348877 85.79336548 C-53.60529236 79.60412438 -53.61836836 73.41510551 -53.63006592 67.22583008 C-53.63831421 61.99904113 -53.63013683 56.77275739 -53.60093689 51.54603958 C-53.5939074 49.10924967 -53.61044293 46.67338099 -53.62805176 44.23666382 C-53.62638616 31.28203466 -51.29140084 21.13328177 -42.125 11.53125 C-29.71208516 -0.31850802 -16.1995694 -0.0716677 0 0 Z M-29.75390625 24.171875 C-35.71363607 30.77784059 -37.23416256 37.26040411 -37.27026367 46.09912109 C-37.27664352 47.16818695 -37.28302338 48.23725281 -37.28959656 49.3387146 C-37.29070938 50.48248566 -37.2918222 51.62625671 -37.29296875 52.8046875 C-37.29629715 54.00122955 -37.29962555 55.19777161 -37.30305481 56.43057251 C-37.30811216 58.96396502 -37.3104635 61.49736417 -37.31030273 64.03076172 C-37.31247257 67.85786336 -37.33059512 71.6846687 -37.34960938 75.51171875 C-37.41113204 101.17977181 -36.48956638 122.61858809 -17.67578125 142.0625 C-4.69549269 154.28883146 10.18943701 160.00561598 27.875 160.53125 C46.60524707 159.96821652 61.97511531 152.15641924 74.75 138.59375 C80.78446244 131.48092695 84.82108194 124.44126017 87.6875 115.59375 C87.9983252 114.64604736 87.9983252 114.64604736 88.31542969 113.67919922 C91.24835545 103.9283339 91.0331164 93.61571653 91.04296875 83.5234375 C91.04629715 82.31736847 91.04962555 81.11129944 91.05305481 79.86868286 C91.058087 77.33579893 91.06046429 74.80290846 91.06030273 72.27001953 C91.06249766 68.41037096 91.08071624 64.55100474 91.09960938 60.69140625 C91.10254245 58.21875097 91.10452782 55.74609434 91.10546875 53.2734375 C91.11624702 51.55747879 91.11624702 51.55747879 91.12724304 49.80685425 C91.10176605 40.82235751 90.7798523 32.71282713 84.875 25.53125 C77.12952124 17.84109609 69.76849501 16.37913106 58.99291992 16.38598633 C58.22621475 16.38262772 57.45950958 16.3792691 56.66957092 16.37580872 C54.14818681 16.36635104 51.62686948 16.36435817 49.10546875 16.36328125 C47.3419848 16.3600649 45.5785011 16.35670054 43.8150177 16.35319519 C40.12235903 16.34721676 36.42972372 16.34535395 32.73706055 16.34594727 C28.02311935 16.34604877 23.30932916 16.33240246 18.5954237 16.31517506 C14.95355044 16.30401431 11.31171321 16.30202931 7.6698246 16.30255699 C5.9328287 16.30138279 4.19583169 16.2969927 2.45885277 16.28922462 C-15.04737924 15.75653716 -15.04737924 15.75653716 -29.75390625 24.171875 Z M114.24609375 24.171875 C108.28636393 30.77784059 106.76583744 37.26040411 106.72973633 46.09912109 C106.72335648 47.16818695 106.71697662 48.23725281 106.71040344 49.3387146 C106.70929062 50.48248566 106.7081778 51.62625671 106.70703125 52.8046875 C106.70370285 54.00122955 106.70037445 55.19777161 106.69694519 56.43057251 C106.69188784 58.96396502 106.6895365 61.49736417 106.68969727 64.03076172 C106.68752743 67.85786336 106.66940488 71.6846687 106.65039062 75.51171875 C106.58886796 101.17977181 107.51043362 122.61858809 126.32421875 142.0625 C139.30450731 154.28883146 154.18943701 160.00561598 171.875 160.53125 C190.60524707 159.96821652 205.97511531 152.15641924 218.75 138.59375 C224.78446244 131.48092695 228.82108194 124.44126017 231.6875 115.59375 C231.9983252 114.64604736 231.9983252 114.64604736 232.31542969 113.67919922 C235.24835545 103.9283339 235.0331164 93.61571653 235.04296875 83.5234375 C235.04629715 82.31736847 235.04962555 81.11129944 235.05305481 79.86868286 C235.058087 77.33579893 235.06046429 74.80290846 235.06030273 72.27001953 C235.06249766 68.41037096 235.08071624 64.55100474 235.09960938 60.69140625 C235.10254245 58.21875097 235.10452782 55.74609434 235.10546875 53.2734375 C235.11624702 51.55747879 235.11624702 51.55747879 235.12724304 49.80685425 C235.10176605 40.82235751 234.7798523 32.71282713 228.875 25.53125 C221.12952124 17.84109609 213.76849501 16.37913106 202.99291992 16.38598633 C202.22621475 16.38262772 201.45950958 16.3792691 200.66957092 16.37580872 C198.14818681 16.36635104 195.62686948 16.36435817 193.10546875 16.36328125 C191.3419848 16.3600649 189.5785011 16.35670054 187.8150177 16.35319519 C184.12235903 16.34721676 180.42972372 16.34535395 176.73706055 16.34594727 C172.02311935 16.34604877 167.30932916 16.33240246 162.5954237 16.31517506 C158.95355044 16.30401431 155.31171321 16.30202931 151.6698246 16.30255699 C149.9328287 16.30138279 148.19583169 16.2969927 146.45885277 16.28922462 C128.95262076 15.75653716 128.95262076 15.75653716 114.24609375 24.171875 Z M258.24609375 24.171875 C252.28636393 30.77784059 250.76583744 37.26040411 250.72973633 46.09912109 C250.72335648 47.16818695 250.71697662 48.23725281 250.71040344 49.3387146 C250.70929062 50.48248566 250.7081778 51.62625671 250.70703125 52.8046875 C250.70370285 54.00122955 250.70037445 55.19777161 250.69694519 56.43057251 C250.69188784 58.96396502 250.6895365 61.49736417 250.68969727 64.03076172 C250.68752743 67.85786336 250.66940488 71.6846687 250.65039062 75.51171875 C250.58886796 101.17977181 251.51043362 122.61858809 270.32421875 142.0625 C283.30450731 154.28883146 298.18943701 160.00561598 315.875 160.53125 C334.60524707 159.96821652 349.97511531 152.15641924 362.75 138.59375 C368.78446244 131.48092695 372.82108194 124.44126017 375.6875 115.59375 C375.9983252 114.64604736 375.9983252 114.64604736 376.31542969 113.67919922 C379.24835545 103.9283339 379.0331164 93.61571653 379.04296875 83.5234375 C379.04629715 82.31736847 379.04962555 81.11129944 379.05305481 79.86868286 C379.058087 77.33579893 379.06046429 74.80290846 379.06030273 72.27001953 C379.06249766 68.41037096 379.08071624 64.55100474 379.09960938 60.69140625 C379.10254245 58.21875097 379.10452782 55.74609434 379.10546875 53.2734375 C379.11624702 51.55747879 379.11624702 51.55747879 379.12724304 49.80685425 C379.10176605 40.82235751 378.7798523 32.71282713 372.875 25.53125 C365.12952124 17.84109609 357.76849501 16.37913106 346.99291992 16.38598633 C346.22621475 16.38262772 345.45950958 16.3792691 344.66957092 16.37580872 C342.14818681 16.36635104 339.62686948 16.36435817 337.10546875 16.36328125 C335.3419848 16.3600649 333.5785011 16.35670054 331.8150177 16.35319519 C328.12235903 16.34721676 324.42972372 16.34535395 320.73706055 16.34594727 C316.02311935 16.34604877 311.30932916 16.33240246 306.5954237 16.31517506 C302.95355044 16.30401431 299.31171321 16.30202931 295.6698246 16.30255699 C293.9328287 16.30138279 292.19583169 16.2969927 290.45885277 16.28922462 C272.95262076 15.75653716 272.95262076 15.75653716 258.24609375 24.171875 Z M-48.125 129.53125 C-49.41362804 131.87065183 -50.65329626 134.21970666 -51.875 136.59375 C-52.24238281 137.25052734 -52.60976563 137.90730469 -52.98828125 138.58398438 C-54.92821074 142.34937797 -54.92821074 142.34937797 -54.56738281 146.41577148 C-53.54327489 148.25324403 -52.41739052 149.87292018 -51.125 151.53125 C-50.51140625 152.38589844 -49.8978125 153.24054688 -49.265625 154.12109375 C-31.96797854 175.60019607 -10.04412686 188.76443121 17.625 191.90625 C42.11729779 194.22095769 66.71350458 187.34598541 86 171.90625 C90.14642669 168.30423964 94.10841472 164.52922959 97.875 160.53125 C101.12783201 161.94272116 103.10454548 163.62452373 105.5 166.21875 C123.49665114 184.54561492 148.56824765 192.15898403 173.67578125 192.59765625 C200.2919098 191.65422742 223.46067898 179.2425762 241.875 160.53125 C245.12783201 161.94272116 247.10454548 163.62452373 249.5 166.21875 C266.13504569 183.15902588 290.35923497 192.10483596 313.875 192.53125 C340.45413688 192.07127674 363.73676703 181.8340305 383.0625 163.78125 C384.35964957 162.38863921 385.62727874 160.96831418 386.875 159.53125 C387.33165039 159.03109375 387.78830078 158.5309375 388.25878906 158.015625 C391.77576675 154.09310656 394.7108927 150.36007736 396.875 145.53125 C396.30922431 140.80028758 394.44396198 137.48255818 391.875 133.53125 C391.19242477 132.2059903 390.51884587 130.87575166 389.875 129.53125 C389.215 129.53125 388.555 129.53125 387.875 129.53125 C387.52308594 130.22089844 387.17117188 130.91054687 386.80859375 131.62109375 C376.54491141 151.15692776 361.06232997 165.51836768 339.875 172.53125 C331.52570489 175.0658434 323.77585639 176.05189519 315.0625 175.96875 C313.92248535 175.95972656 312.7824707 175.95070312 311.60791016 175.94140625 C293.2878388 175.56609109 275.54066596 168.98733724 261.875 156.53125 C261.05644531 155.80421875 260.23789062 155.0771875 259.39453125 154.328125 C253.47131415 148.77230866 249.41966306 143.03468895 245.46875 136.0234375 C244.67984375 134.78980469 244.67984375 134.78980469 243.875 133.53125 C243.215 133.53125 242.555 133.53125 241.875 133.53125 C240.51612366 135.59089217 239.25283692 137.65847926 238 139.78125 C226.35761181 158.55543802 208.51250779 169.72095136 187.13745117 174.90942383 C181.77423754 175.93165724 176.50902145 176.02072217 171.0625 175.96875 C169.92248535 175.95972656 168.7824707 175.95070312 167.60791016 175.94140625 C149.2878388 175.56609109 131.54066596 168.98733724 117.875 156.53125 C117.05644531 155.80421875 116.23789063 155.0771875 115.39453125 154.328125 C109.47131415 148.77230866 105.41966306 143.03468895 101.46875 136.0234375 C100.67984375 134.78980469 100.67984375 134.78980469 99.875 133.53125 C99.215 133.53125 98.555 133.53125 97.875 133.53125 C96.51612366 135.59089217 95.25283692 137.65847926 94 139.78125 C82.35761181 158.55543802 64.51250779 169.72095136 43.13745117 174.90942383 C37.77423754 175.93165724 32.50902145 176.02072217 27.0625 175.96875 C25.92248535 175.95972656 24.7824707 175.95070312 23.60791016 175.94140625 C5.2878388 175.56609109 -12.45933404 168.98733724 -26.125 156.53125 C-26.94355469 155.80421875 -27.76210938 155.0771875 -28.60546875 154.328125 C-36.27222428 147.13691709 -41.56237535 138.97588303 -46.125 129.53125 C-46.785 129.53125 -47.445 129.53125 -48.125 129.53125 Z M-60.125 168.53125 C-60.9945702 175.78616728 -61.28504982 182.93892892 -61.29296875 190.2421875 C-61.29629715 191.33157623 -61.29962555 192.42096497 -61.30305481 193.54336548 C-61.30808842 195.8342446 -61.31046425 198.12513097 -61.31030273 200.41601562 C-61.31248942 203.88944757 -61.33068424 207.36256155 -61.34960938 210.8359375 C-61.35254415 213.07551976 -61.35452838 215.31510351 -61.35546875 217.5546875 C-61.36265427 218.57694427 -61.36983978 219.59920105 -61.37724304 220.6524353 C-61.33086706 235.54330073 -58.66564386 247.5411791 -48.20703125 258.5625 C-37.94741356 268.2639021 -23.0040687 269.94602065 -9.625 272.65625 C-8.42230469 272.90761719 -7.21960938 273.15898437 -5.98046875 273.41796875 C2.30693292 275.11817683 10.45183836 276.32794119 18.875 277.53125 C18.875 254.76125 18.875 231.99125 18.875 208.53125 C11.615 207.21125 4.355 205.89125 -3.125 204.53125 C-20.02167241 199.11156262 -33.67394263 192.07122818 -47.125 180.53125 C-47.78113281 179.99628906 -48.43726563 179.46132812 -49.11328125 178.91015625 C-52.94301503 175.75288108 -56.00463259 172.3858215 -59.125 168.53125 C-59.455 168.53125 -59.785 168.53125 -60.125 168.53125 Z M400.875 168.53125 C399.69780277 169.91821376 398.5341284 171.31665045 397.375 172.71875 C383.37440563 188.36125243 365.93409364 196.58996098 346.875 204.53125 C346.875 227.30125 346.875 250.07125 346.875 273.53125 C375.4543094 268.32067915 375.4543094 268.32067915 396.3359375 251.0234375 C402.69018851 240.73406657 403.03058284 229.67679728 403.0078125 217.9453125 C403.00876923 216.84835052 403.00972595 215.75138855 403.01071167 214.6211853 C403.01138954 212.30995628 403.00956277 209.99872532 403.00537109 207.6875 C403.00002766 204.17443502 403.00532421 200.66149848 403.01171875 197.1484375 C403.0110577 194.89322889 403.00977598 192.63802035 403.0078125 190.3828125 C403.00983673 189.34395905 403.01186096 188.30510559 403.01394653 187.23477173 C402.99399936 180.94159743 402.63036507 174.77951353 401.875 168.53125 C401.545 168.53125 401.215 168.53125 400.875 168.53125 Z M92.25 187.53125 C77.4127911 198.05670204 61.30773409 204.33635766 43.3671875 207.16796875 C42.13440063 207.36779358 42.13440063 207.36779358 40.87670898 207.57165527 C38.87674503 207.8952858 36.87595586 208.21380995 34.875 208.53125 C34.80548726 221.98750841 34.75218209 235.4437241 34.71956348 248.9001255 C34.70390814 255.14848803 34.68267192 261.39672771 34.64868164 267.64501953 C34.61608402 273.67504458 34.598146 279.70495147 34.59036827 285.73505783 C34.58482553 288.03555537 34.57400197 290.33604645 34.55780983 292.63649368 C34.53603065 295.85887882 34.53303334 299.08077575 34.53442383 302.30322266 C34.523638 303.25412781 34.51285217 304.20503296 34.5017395 305.18475342 C34.52597317 310.37537337 34.91712199 314.06182909 37.875 318.53125 C40.71583641 319.95166821 42.72977278 319.84577272 45.875 319.53125 C48.72280619 317.29918569 49.72497666 315.98132001 50.875 312.53125 C50.97418944 310.03373942 51.01869172 307.56333479 51.0168457 305.06567383 C51.02032013 304.30755402 51.02379456 303.5494342 51.02737427 302.76834106 C51.03472555 301.12160284 51.04007428 299.47485474 51.04366493 297.82810402 C51.05083972 295.21700169 51.06651522 292.60608627 51.08500671 289.99504089 C51.13741874 282.57085785 51.18541722 275.14677606 51.20092773 267.72241211 C51.21103927 263.18000012 51.24044612 258.63805716 51.28224754 254.09583092 C51.29451983 252.36921431 51.29968572 250.64253134 51.29744911 248.91587257 C51.29508201 246.49134369 51.31736811 244.06814691 51.3449707 241.64379883 C51.33836929 240.93856583 51.33176788 240.23333282 51.32496643 239.50672913 C51.44055442 233.28234396 53.58421805 228.18589217 57.62109375 223.5078125 C58.45833984 222.83878906 58.45833984 222.83878906 59.3125 222.15625 C59.86808594 221.69476563 60.42367187 221.23328125 60.99609375 220.7578125 C67.47737506 216.52678894 74.38261669 216.86092352 81.875 217.53125 C88.08094371 219.16336433 92.41118117 223.22520906 95.875 228.53125 C98.51650916 233.77795892 98.25318799 239.07267904 98.43359375 244.83984375 C98.89832919 248.72634809 99.83682211 251.21107323 101.875 254.53125 C104.71583641 255.95166821 106.72977278 255.84577272 109.875 255.53125 C112.72280619 253.29918569 113.72497666 251.98132001 114.875 248.53125 C115.01707153 246.77492809 115.10565356 245.0140522 115.16308594 243.25292969 C115.19851501 242.17460876 115.23394409 241.09628784 115.27044678 239.98529053 C115.3945964 235.05415621 115.48494808 230.12311372 115.5546875 225.19091797 C115.60144231 222.59115576 115.66969659 219.99168857 115.75976562 217.39306641 C115.88754336 213.64126406 115.94323672 209.89425749 115.984375 206.140625 C116.06483063 204.40434845 116.06483063 204.40434845 116.14691162 202.63299561 C116.13950813 199.2632868 116.00986169 196.70866371 114.875 193.53125 C111.55151918 190.42017785 107.91877262 188.55604485 103.875 186.53125 C102.77112946 185.69904938 102.77112946 185.69904938 101.6449585 184.85003662 C97.81653363 181.9974977 95.60739444 185.06527294 92.25 187.53125 Z M250.875 189.53125 C250.80534715 197.12019909 250.75211135 204.70911484 250.71956348 212.29831123 C250.70393838 215.82268732 250.68275856 219.34684394 250.64868164 222.87109375 C250.60971048 226.92710421 250.59526477 230.9828858 250.58203125 235.0390625 C250.56654739 236.29864777 250.55106354 237.55823303 250.53511047 238.85598755 C250.53488388 240.03675873 250.53465729 241.21752991 250.53442383 242.43408203 C250.52776199 243.46888702 250.52110016 244.50369202 250.51423645 245.56985474 C250.94357713 249.09417825 252.05996946 251.49649946 253.875 254.53125 C256.71583641 255.95166821 258.72977278 255.84577272 261.875 255.53125 C265.76149855 252.53330037 266.53504275 249.89758765 267.375 245.15625 C269.09194786 236.94795382 272.21291645 232.42584199 278.875 227.53125 C285.34942895 224.33868676 293.43764632 224.36426092 300.35546875 226.18359375 C305.98776721 228.72194103 310.06077022 233.11242909 312.93470764 238.5282135 C314.28723392 242.84781235 314.15852122 246.95743238 314.14624023 251.45874023 C314.15146698 252.45445038 314.15669373 253.45016052 314.16207886 254.4760437 C314.17230739 256.63457605 314.17809726 258.79313299 314.17996025 260.95168877 C314.18362497 264.36895631 314.20035442 267.78593394 314.22071838 271.20314026 C314.27612356 280.91767997 314.30682865 290.63226215 314.33129883 300.34692383 C314.34717614 306.29203112 314.37739586 312.23693205 314.41606331 318.18193245 C314.42771031 320.44610465 314.43364363 322.71031376 314.43374443 324.97451591 C314.43393655 328.14135151 314.45220808 331.30761805 314.47436523 334.47436523 C314.46978806 335.40806442 314.46521088 336.34176361 314.460495 337.30375671 C314.51766503 342.44535974 314.96159508 346.09922356 317.875 350.53125 C320.71583641 351.95166821 322.72977278 351.84577272 325.875 351.53125 C328.72280619 349.29918569 329.72497666 347.98132001 330.875 344.53125 C330.96584396 342.67910544 330.9969511 340.82380695 330.99525452 338.96943665 C330.99662918 337.81257355 330.99800385 336.65571045 330.99942017 335.46379089 C330.99582489 334.19352554 330.99222961 332.92326019 330.98852539 331.61450195 C330.98824334 330.26432294 330.9884016 328.91414377 330.9889679 327.56396484 C330.98925517 323.89689067 330.98336971 320.22984911 330.97639394 316.56278253 C330.97014878 312.73108094 330.96955568 308.89937862 330.96836853 305.06767273 C330.96525865 297.81103372 330.95704987 290.55440974 330.94701904 283.29777735 C330.93584727 275.03668203 330.93034477 266.775586 330.92532361 258.514485 C330.91486698 241.52006463 330.89727416 224.5256589 330.875 207.53125 C329.98795883 207.53975983 329.10091766 207.54826965 328.18699646 207.55703735 C324.85006443 207.58497217 321.5132593 207.60522263 318.17625427 207.62051392 C316.74058554 207.62861272 315.30492989 207.63964574 313.86930847 207.65383911 C302.73657415 207.76103154 292.511858 207.00720907 281.875 203.53125 C281.1948584 203.31694336 280.5147168 203.10263672 279.81396484 202.88183594 C270.74871381 199.96276987 262.6102171 195.99706966 254.47265625 191.0703125 C252.23483765 189.44629476 252.23483765 189.44629476 250.875 189.53125 Z M228.96264648 192.42724609 C219.93643343 197.74100548 210.91153897 201.57497932 200.875 204.53125 C199.76898438 204.8715625 198.66296875 205.211875 197.5234375 205.5625 C178.49906926 210.37428401 156.57101938 209.14210357 137.875 203.53125 C135.54219851 202.86272469 133.20893602 202.19580364 130.875 201.53125 C130.87135437 202.19000122 130.86770874 202.84875244 130.86395264 203.52746582 C130.82202442 210.40636006 130.75260598 217.28459351 130.66748047 224.16308594 C130.63931819 226.72747171 130.61808019 229.29194353 130.60400391 231.85644531 C130.58250974 235.55057677 130.53582255 239.24367887 130.484375 242.9375 C130.48253204 244.6473407 130.48253204 244.6473407 130.48065186 246.39172363 C130.34048684 254.07230835 129.29176683 259.57177524 124.12890625 265.5546875 C123.57074219 266.00070312 123.01257813 266.44671875 122.4375 266.90625 C121.60412109 267.59847656 121.60412109 267.59847656 120.75390625 268.3046875 C114.27262494 272.53571106 107.36738331 272.20157648 99.875 271.53125 C93.66905629 269.89913567 89.33881883 265.83729094 85.875 260.53125 C83.23349084 255.28454108 83.49681201 249.98982096 83.31640625 244.22265625 C82.85167081 240.33615191 81.91317789 237.85142677 79.875 234.53125 C77.03416359 233.11083179 75.02022722 233.21672728 71.875 233.53125 C69.02719381 235.76331431 68.02502334 237.08117999 66.875 240.53125 C66.78889486 241.95843637 66.75728172 243.38931648 66.76147461 244.8190918 C66.76155014 245.67975754 66.76162567 246.54042328 66.76170349 247.4271698 C66.76686478 248.35225845 66.77202606 249.27734711 66.77734375 250.23046875 C66.7787587 251.18065384 66.78017365 252.13083893 66.78163147 253.1098175 C66.78723125 256.14616029 66.79978368 259.18242948 66.8125 262.21875 C66.81751503 264.27669164 66.82207793 266.33463444 66.82617188 268.39257812 C66.8372006 273.43883046 66.85446507 278.48502775 66.875 283.53125 C71.49289958 283.94514775 76.11123221 284.35373925 80.72998047 284.75805664 C82.29097214 284.89537935 83.85185137 285.03398821 85.41259766 285.17407227 C193.13093277 295.86684337 193.13093277 295.86684337 298.875 280.53125 C298.94949251 276.08385587 299.00376257 271.6367981 299.03979492 267.18896484 C299.05482543 265.67783273 299.07525564 264.16674382 299.10131836 262.65576172 C299.13795689 260.47612813 299.15478338 258.29707425 299.16796875 256.1171875 C299.1836792 254.8079834 299.19938965 253.4987793 299.21557617 252.14990234 C298.84834892 248.24807985 297.9318466 245.84483269 295.875 242.53125 C293.03416359 241.11083179 291.02022722 241.21672728 287.875 241.53125 C283.98850145 244.52919963 283.21495725 247.16491235 282.375 251.90625 C280.65805214 260.11454618 277.53708355 264.63665801 270.875 269.53125 C264.40057105 272.72381324 256.31235368 272.69823908 249.39453125 270.87890625 C243.74855999 268.33439696 239.48671045 263.89167584 236.81826782 258.32795715 C235.71427545 255.05471566 235.5957735 252.35867338 235.55615234 248.9050293 C235.54108391 247.93833061 235.54108391 247.93833061 235.52571106 246.95210266 C235.49499064 244.83656652 235.47787552 242.72115628 235.4609375 240.60546875 C235.44221683 239.13286769 235.42264274 237.66027725 235.4022522 236.18769836 C235.35101977 232.32280758 235.31134672 228.45788205 235.27410889 224.59283447 C235.2340133 220.64448515 235.18294636 216.69627924 235.1328125 212.74804688 C235.03615856 205.00921314 234.95172037 197.27030975 234.875 189.53125 C232.67492417 189.53125 230.81213667 191.32647714 228.96264648 192.42724609 Z " fill="#000000" transform="translate(85.125,71.46875)"/>
</svg>
