<?xml version="1.0" encoding="UTF-8"?>
<svg version="1.1" xmlns="http://www.w3.org/2000/svg" width="512" height="512">
<path d="M0 0 C1.28954842 0.0135125 1.28954842 0.0135125 2.60514832 0.02729797 C12.00976521 0.22551432 21.27618602 1.39135376 30.59036255 2.63412476 C36.05705151 3.35850714 41.53038431 4.02873778 47.00390625 4.69921875 C48.14259659 4.83889572 49.28128693 4.97857269 50.45448303 5.1224823 C72.20235602 7.75833595 94.02331311 9.66960106 115.86328125 11.35546875 C117.50000793 11.48242126 117.50000793 11.48242126 119.1697998 11.61193848 C184.67789635 16.61133756 251.36972748 16.45958821 316.86328125 11.35546875 C317.9982605 11.26825562 319.13323975 11.18104248 320.3026123 11.09118652 C342.50815101 9.37464882 364.68444883 7.4063028 386.79296875 4.69921875 C387.9220163 4.56103226 389.05106384 4.42284576 390.21432495 4.2804718 C395.53881029 3.6232824 400.85968085 2.94612092 406.17724609 2.23510742 C415.43558598 1.02446328 424.55657313 0.11774144 433.90234375 0.09375 C434.71753479 0.09130783 435.53272583 0.08886566 436.37261963 0.08634949 C447.66645089 0.22355495 455.85799748 4.43445112 463.86328125 12.35546875 C466.24976973 15.19508795 468.13773994 18.0752318 469.86328125 21.35546875 C470.20230469 21.99484375 470.54132813 22.63421875 470.890625 23.29296875 C476.58277975 36.72330622 472.44852352 52.16310692 467.84890747 65.17770386 C466.8947742 67.88081335 465.97806116 70.5944618 465.06811523 73.31274414 C461.90957232 82.70231396 458.62348759 92.04613538 455.31544495 101.38389587 C453.7198878 105.9085464 452.15092844 110.4422119 450.58468628 114.9770813 C449.45472267 118.21016086 448.28434349 121.42653965 447.11157227 124.64428711 C443.1850255 135.74379538 441.17139485 144.81019514 442.36157227 156.52124023 C443.11543873 164.07656727 443.02673874 171.64994019 443.03125 179.234375 C443.03449465 180.76094085 443.03787773 182.28750641 443.04139709 183.81407166 C443.04727709 186.93180053 443.0491772 190.04950231 443.04858398 193.16723633 C443.04848147 197.14745202 443.06226691 201.12749293 443.07935619 205.10766697 C443.09053321 208.21773567 443.09250165 211.32776233 443.09197426 214.43784904 C443.09314064 215.90524855 443.09748525 217.37264964 443.10530663 218.84002876 C443.17306849 232.8303559 442.60119283 245.83089333 432.75 256.68359375 C425.47598009 263.46765377 418.20048024 267.49117052 408.17675781 267.46899414 C407.03587708 267.46891861 405.89499634 267.46884308 404.71954346 267.46876526 C403.49338318 267.46360397 402.2672229 267.45844269 401.00390625 267.453125 C399.74439148 267.45171005 398.48487671 267.4502951 397.18719482 267.44883728 C393.84663006 267.44418948 390.50613404 267.43521156 387.16558838 267.4241333 C383.75362756 267.41388473 380.34165941 267.40927742 376.9296875 267.40429688 C370.24084678 267.39411909 363.55212622 267.3745434 356.86328125 267.35546875 C357.19328125 277.91546875 357.52328125 288.47546875 357.86328125 299.35546875 C359.97089844 300.38027344 362.07851563 301.40507812 364.25 302.4609375 C366.30321802 303.46801149 368.35467857 304.47858333 370.40600586 305.48950195 C371.82510663 306.18653323 373.24598735 306.87995338 374.66870117 307.56958008 C376.7215035 308.56542289 378.76740819 309.57437243 380.8125 310.5859375 C381.75811043 311.03938789 381.75811043 311.03938789 382.7228241 311.5019989 C388.05078448 314.164303 391.57416064 317.42178784 394.86328125 322.35546875 C395.96405433 326.37106664 395.99380863 330.23938044 396.00372314 334.38800049 C396.00817983 335.43231472 396.00817983 335.43231472 396.01272655 336.4977262 C396.02137943 338.82434278 396.02291889 341.15090769 396.02441406 343.47753906 C396.02904465 345.14838266 396.03406964 346.81922521 396.03945923 348.49006653 C396.05256204 353.02535368 396.05902405 357.56062603 396.06346989 362.09592915 C396.06640405 364.93146525 396.07050951 367.76699735 396.07497406 370.60253143 C396.08864344 379.48028616 396.09831282 388.35803169 396.10217595 397.23579621 C396.1066554 407.47270598 396.12420039 417.70948214 396.15317655 427.94635129 C396.17481497 435.86669984 396.18488139 443.78701085 396.18621707 451.70738864 C396.18726355 456.4343853 396.19313797 461.16125628 396.21103668 465.88822174 C396.22755474 470.33698768 396.22965479 474.78553394 396.22089767 479.23431969 C396.2201293 480.86245755 396.22444364 482.49060741 396.23435593 484.11871529 C396.28135375 492.32262695 396.31600608 499.73219714 392.86328125 507.35546875 C387.74499291 512.34892078 383.87932476 512.75714493 376.921875 512.70703125 C372.22274951 512.16690188 370.25954886 510.60407255 366.86328125 507.35546875 C364.53642167 503.85139664 364.60369934 500.75383624 364.58480835 496.6104126 C364.57901595 495.93320876 364.57322355 495.25600492 364.56725562 494.55827975 C364.5502583 492.29043244 364.5473794 490.02278866 364.54443359 487.75488281 C364.53513522 486.12869264 364.52496668 484.50250724 364.51399231 482.87632751 C364.48666797 478.46142607 364.47153569 474.04655657 364.45856428 469.63159275 C364.4429444 465.01776523 364.41615054 460.40400306 364.39053345 455.79022217 C364.34372542 447.0532608 364.3069911 438.31628717 364.27386057 429.5792644 C364.23565349 419.63252489 364.18623963 409.68585097 364.13587642 399.73916674 C364.03252643 379.27797645 363.94475547 358.81675864 363.86328125 338.35546875 C349.01328125 330.76546875 334.16328125 323.17546875 318.86328125 315.35546875 C326.00446265 330.48601703 326.00446265 330.48601703 333.55078125 345.375 C335.72385281 350.30968334 335.98851032 355.14056969 336.00372314 360.48323059 C336.00943329 361.69011032 336.01514343 362.89699005 336.02102661 364.14044189 C336.02214447 365.45123718 336.02326233 366.76203247 336.02441406 368.11254883 C336.02904726 369.51753366 336.03407259 370.92251724 336.03945923 372.32749939 C336.05253551 376.13341168 336.05901864 379.93930636 336.06346989 383.74523759 C336.06640789 386.1263256 336.07051401 388.50740888 336.07497406 390.88849449 C336.08863543 398.34811181 336.09830915 405.8077182 336.10217595 413.26734716 C336.10665574 421.86063322 336.12420561 430.45376015 336.15317655 439.04699785 C336.17482968 445.70198476 336.18488214 452.35692701 336.18621707 459.01194876 C336.18726235 462.98105386 336.19311109 466.95000909 336.21103668 470.91907692 C336.22758077 474.65461457 336.2296424 478.38989068 336.22089767 482.12545204 C336.21976696 484.13829077 336.23343455 486.15112107 336.24765015 488.16390991 C336.21674137 494.90903823 336.04076998 501.2575783 332.86328125 507.35546875 C327.6998387 512.39297368 323.85787233 512.70384507 316.8515625 512.63671875 C312.85889361 512.26093815 310.76019666 511.1038244 307.86328125 508.35546875 C305.13203833 504.55600323 304.48888296 501.95579796 304.49147034 497.30326843 C304.48133408 495.48022186 304.48133408 495.48022186 304.47099304 493.62034607 C304.47854569 492.28164533 304.4863514 490.94294599 304.49438477 489.60424805 C304.49191556 488.18793446 304.48807594 486.7716227 304.48297119 485.35531616 C304.4746426 482.30945939 304.47543281 479.26378964 304.4831562 476.21793175 C304.49475587 471.39713802 304.48256205 466.57658397 304.46653748 461.7558136 C304.43036918 449.78050172 304.42411055 437.80519552 304.42663574 425.82983398 C304.42834862 416.52467349 304.42117423 407.21970924 304.38665718 397.91460353 C304.36989933 393.12723802 304.37162676 388.34035175 304.3874799 383.55298841 C304.39329498 380.56759463 304.38250419 377.5824259 304.36723328 374.5970726 C304.36175779 372.56376592 304.376081 370.53043572 304.39109802 368.49717712 C304.33482903 361.30693536 303.73115646 356.47750366 299.86328125 350.35546875 C298.83534958 350.35182312 297.80741791 350.34817749 296.74833679 350.34442139 C287.02420553 350.30735534 277.30038754 350.24945662 267.57649517 350.17156601 C262.5782465 350.13218747 257.58017147 350.09995197 252.58178711 350.08447266 C247.75103414 350.06924246 242.92075886 350.0346849 238.0902195 349.98715973 C236.25444522 349.97241126 234.41860272 349.96443152 232.58276939 349.9635849 C217.77489841 349.94989787 206.26145372 348.42655866 195.1796875 337.73046875 C188.74343827 330.79665411 185.72640856 322.51516295 185.74975586 313.10620117 C185.74983139 312.08552048 185.74990692 311.06483978 185.74998474 310.01322937 C185.75514603 308.92347305 185.76030731 307.83371674 185.765625 306.7109375 C185.76774742 305.02355217 185.76774742 305.02355217 185.76991272 303.30207825 C185.77550194 299.71568116 185.78805253 296.12934691 185.80078125 292.54296875 C185.80579764 290.10872486 185.81036031 287.67447999 185.81445312 285.24023438 C185.82546785 279.27862446 185.84219531 273.31705109 185.86328125 267.35546875 C185.05071869 267.37188416 184.23815613 267.38829956 183.40097046 267.4052124 C181.16061755 267.45047206 178.92025017 267.49502001 176.67987061 267.53894043 C174.33664067 267.58778479 171.99364938 267.64844964 169.65087891 267.71582031 C163.0569022 267.77972942 157.95482539 267.14184482 151.96240234 264.31933594 C149.91473317 263.37909426 148.08053193 262.74578445 145.86328125 262.35546875 C143.81349115 263.05570987 143.81349115 263.05570987 141.86328125 264.23046875 C137.55785227 266.63545447 134.05868448 267.47703512 129.12167358 267.50263977 C128.17141296 267.50979507 127.22115234 267.51695038 126.24209595 267.52432251 C125.20620331 267.52701141 124.17031067 267.52970032 123.10302734 267.5324707 C122.00659912 267.5390419 120.9101709 267.5456131 119.78051758 267.55238342 C116.1492506 267.5721053 112.51802498 267.58377747 108.88671875 267.59375 C107.02437529 267.59986329 107.02437529 267.59986329 105.12440872 267.60610008 C99.22868385 267.62480774 93.33297208 267.63937331 87.43722475 267.64771205 C80.65217646 267.65746917 73.86745573 267.68375221 67.08252275 267.72421294 C61.19002463 267.75813436 55.29763531 267.76986718 49.40504837 267.77391624 C46.906895 267.77877804 44.40874503 267.7903803 41.91065598 267.80895424 C38.4068088 267.83338406 34.90380918 267.83237293 31.39990234 267.82543945 C29.86428146 267.84465454 29.86428146 267.84465454 28.29763794 267.86425781 C18.02790216 267.79052676 9.40817054 264.38002085 1.86328125 257.35546875 C-9.16746437 245.50763086 -9.29670555 231.70817803 -9.3046875 216.3671875 C-9.3079103 214.89956125 -9.31127509 213.43193531 -9.31477356 211.96430969 C-9.32074226 208.89050556 -9.32261612 205.81672943 -9.32202148 202.74291992 C-9.32192075 198.86179141 -9.33549083 194.9808495 -9.35279369 191.09976482 C-9.36408893 188.06483693 -9.36593532 185.02995139 -9.36541176 181.99500465 C-9.3665689 180.56771015 -9.37085788 179.14041367 -9.37874413 177.71314049 C-9.38889214 175.68450171 -9.38774807 173.65633046 -9.37963867 171.62768555 C-9.37838958 170.95895857 -9.37714048 170.29023159 -9.37585354 169.60124016 C-9.32430284 165.95147541 -9.04421731 162.45788806 -8.45455933 158.85386658 C-6.3179182 145.48670446 -8.92690094 135.64605638 -13.43359375 123.0234375 C-14.10757632 121.04827024 -14.77818785 119.07194983 -15.44561768 117.09455872 C-17.19379913 111.94446962 -18.98646608 106.8110305 -20.78967285 101.67999268 C-22.62034135 96.44516075 -24.40792181 91.19567133 -26.19921875 85.94726562 C-29.0915256 77.48893511 -32.00949429 69.04002154 -34.96182251 60.60244751 C-39.38302712 47.95780232 -42.16142137 34.69084211 -36.5234375 21.8125 C-30.61983798 11.35231945 -22.97858337 4.71794145 -11.61470032 1.00434875 C-7.71813881 -0.01599816 -4.00863656 -0.07608444 0 0 Z M-6.46484375 32.87890625 C-8.83284195 36.3866419 -8.6704613 39.29379599 -8.13671875 43.35546875 C-6.84906097 48.29314808 -5.20096819 53.09595103 -3.54296875 57.91796875 C-3.07109194 59.31865658 -2.60028341 60.71970471 -2.13049316 62.12109375 C-0.89824984 65.78745139 0.34833696 69.44876979 1.5980835 73.10919189 C2.87365118 76.85368559 4.13544237 80.60281363 5.3984375 84.3515625 C7.87333947 91.69077463 10.36342905 99.02471247 12.86328125 106.35546875 C13.98208788 105.3985502 15.10060248 104.44129023 16.21899414 103.48388672 C16.84189835 102.9508493 17.46480255 102.41781189 18.10658264 101.86862183 C19.4726426 100.69194996 20.82507811 99.49945327 22.171875 98.30078125 C39.73602796 83.28262478 62.14244501 78.05022922 84.86328125 79.35546875 C110.21400434 81.68359638 129.56613342 94.09934156 145.86328125 113.35546875 C149.11371016 111.96040449 150.93699917 110.38763481 153.17578125 107.66796875 C153.78808594 106.95253906 154.40039062 106.23710938 155.03125 105.5 C155.63582031 104.79230469 156.24039063 104.08460937 156.86328125 103.35546875 C170.18941792 87.881038 191.04412065 80.79160163 210.89892578 79.19140625 C232.99510998 77.89639179 255.74442974 84.10509521 272.58984375 98.86865234 C277.39829057 103.34363667 282.05036907 107.98678638 285.86328125 113.35546875 C289.05981602 111.97860637 290.81732309 110.49302978 292.98828125 107.79296875 C307.90546076 90.31041442 328.16917898 81.01003776 350.97021484 79.18701172 C372.51512166 78.00300787 393.99466275 83.56229385 410.65625 97.73046875 C412.37783146 99.28063734 414.08423468 100.84795892 415.76953125 102.4375 C417.91263416 104.49887306 417.91263416 104.49887306 420.86328125 106.35546875 C423.61563958 98.28424433 426.35478805 90.20870673 429.07746124 82.12742615 C430.34229275 78.37457454 431.61151833 74.62333433 432.89111328 70.87548828 C434.12720701 67.25451039 435.35132869 63.6296824 436.56745911 60.00195312 C437.03210024 58.62274322 437.50094449 57.24494153 437.97416687 55.86865234 C441.65923306 45.84139401 441.65923306 45.84139401 441.86328125 35.35546875 C439.99256295 32.63308062 438.8920938 31.58228008 435.6628418 30.87036133 C425.70665605 31.1274218 415.86764649 32.41129108 405.9928894 33.63439941 C365.57321668 38.61290421 324.9027699 42.54311313 284.20162964 44.25546265 C282.51816695 44.3274607 280.83485162 44.40293473 279.15164185 44.48062134 C258.78261789 45.4128934 238.43640398 45.55765044 218.05078125 45.54296875 C216.80041643 45.54256844 216.80041643 45.54256844 215.52479172 45.54216003 C187.92490355 45.53109992 160.4136122 45.14353261 132.86328125 43.35546875 C131.37021454 43.26072266 131.37021454 43.26072266 129.84698486 43.1640625 C90.17099615 40.63693932 50.53723284 36.9398995 11.11938477 31.72851562 C1.97597978 30.31153192 1.97597978 30.31153192 -6.46484375 32.87890625 Z M34.0859375 129.32421875 C22.16579896 144.12581571 21.70483352 161.45782191 21.6953125 179.59375 C21.69209203 181.0472161 21.68872738 182.50068189 21.68522644 183.95414734 C21.67927868 186.98058831 21.67738237 190.00700088 21.67797852 193.03344727 C21.6780807 196.90468599 21.66435146 200.77574364 21.64720631 204.64693928 C21.63608243 207.64011978 21.63405931 210.63325625 21.63458824 213.62645531 C21.63341169 215.0541567 21.62900819 216.48185935 21.62125587 217.90954018 C21.61143459 219.90231576 21.61560381 221.89514535 21.62036133 223.88793945 C21.61893631 225.01915726 21.61751129 226.15037506 21.61604309 227.31587219 C21.86828916 230.41703702 22.44426917 232.59589381 23.86328125 235.35546875 C26.1486103 236.49813327 27.41647878 236.48348021 29.95591736 236.48918152 C31.2409037 236.49557899 31.2409037 236.49557899 32.55184937 236.50210571 C33.96465683 236.50142593 33.96465683 236.50142593 35.40600586 236.50073242 C36.39634323 236.50409103 37.3866806 236.50744965 38.4070282 236.51091003 C41.69323976 236.52043878 44.97940047 236.52236408 48.265625 236.5234375 C50.54244508 236.52664861 52.81926495 236.53001257 55.09608459 236.53352356 C59.8735502 236.53951956 64.6509977 236.54136296 69.4284668 236.54077148 C75.56004748 236.5406698 81.69151251 236.55432596 87.82306576 236.57154369 C92.52670325 236.58264396 97.23031261 236.58469131 101.93396187 236.58416176 C104.19505779 236.58534471 106.45615438 236.589784 108.71723747 236.59749413 C111.87529556 236.60725473 115.03310023 236.60443157 118.19116211 236.59838867 C119.60093323 236.60681793 119.60093323 236.60681793 121.03918457 236.61541748 C121.89866196 236.61122299 122.75813934 236.6070285 123.6436615 236.60270691 C124.76389159 236.60352406 124.76389159 236.60352406 125.90675259 236.60435772 C128.18589433 236.46197528 128.18589433 236.46197528 130.86328125 234.35546875 C132.18381403 230.99757138 131.99663428 227.52614107 132.00854492 223.95727539 C132.01492477 222.65814713 132.02130463 221.35901886 132.02787781 220.02052307 C132.02940779 218.60222409 132.03052105 217.18392462 132.03125 215.765625 C132.03446712 214.30032825 132.03783153 212.83503181 132.04133606 211.36973572 C132.04732367 208.29392759 132.04917663 205.21814753 132.04858398 202.14233398 C132.04848306 198.23583789 132.06206442 194.3295264 132.07935619 190.42307377 C132.09058486 187.3918122 132.0924998 184.36059349 132.09197426 181.32931328 C132.09314081 179.89147755 132.09748646 178.45364021 132.10530663 177.01582527 C132.20122905 157.536948 129.49826649 139.2495978 115.61328125 124.60546875 C104.17505443 113.77829912 89.76568587 108.95139082 74.140625 109.14453125 C57.82998374 110.19432223 44.91621158 117.32760746 34.0859375 129.32421875 Z M174.0859375 129.32421875 C166.43587415 138.82353406 162.54603793 150.34554104 162.58862305 162.46801758 C162.58095665 163.61833969 162.58095665 163.61833969 162.57313538 164.79190063 C162.55935809 167.29884881 162.56018575 169.80551875 162.5625 172.3125 C162.55860924 174.06507976 162.55427379 175.81765859 162.54951477 177.57023621 C162.54208019 181.22906567 162.54232572 184.88779855 162.54760742 188.54663086 C162.55342767 193.23877571 162.5363965 197.93052909 162.51326275 202.62260914 C162.4985547 206.23508519 162.49764919 209.84746598 162.50077248 213.45996666 C162.50025875 215.19075998 162.49501133 216.92155856 162.48496056 218.65232277 C162.47265704 221.06510907 162.47934828 223.47711921 162.4909668 225.88989258 C162.48332306 226.60524673 162.47567932 227.32060089 162.46780396 228.05763245 C162.49880244 230.96236584 162.53416665 232.89203724 164.24478149 235.30078125 C166.49046961 236.764173 168.08403703 236.69690955 170.75 236.6484375 C172.15668945 236.63393555 172.15668945 236.63393555 173.59179688 236.61914062 C174.56826172 236.59400391 175.54472656 236.56886719 176.55078125 236.54296875 C177.53884766 236.52943359 178.52691406 236.51589844 179.54492188 236.50195312 C181.98492356 236.46659078 184.42382844 236.41723908 186.86328125 236.35546875 C187.02183594 235.42347656 187.18039063 234.49148437 187.34375 233.53125 C191.71957042 209.62138042 202.81455651 189.59096513 222.82421875 175.23046875 C237.63714788 165.57463347 253.34059844 161.49956144 270.86328125 160.35546875 C270.22183854 145.57021434 264.14513564 132.65094812 253.4140625 122.4609375 C228.91039856 102.23509544 194.99776106 106.16035266 174.0859375 129.32421875 Z M314.0859375 129.32421875 C305.12146637 140.45567399 302.44556505 152.4315954 302.86328125 166.35546875 C303.89066406 166.82855469 304.91804688 167.30164063 305.9765625 167.7890625 C328.07875939 178.22487345 343.45973017 194.72194197 351.74926758 217.77880859 C352.93530046 221.58669412 353.7608385 225.35262767 354.5 229.265625 C354.69982483 230.2943573 354.69982483 230.2943573 354.90368652 231.34387207 C355.22745646 233.01365185 355.54592949 234.68445728 355.86328125 236.35546875 C363.21391871 236.40609827 370.56451136 236.44117252 377.9152832 236.46533203 C380.4169279 236.47540163 382.9185608 236.48905809 385.42016602 236.50634766 C389.01191111 236.53055367 392.60350085 236.54194221 396.1953125 236.55078125 C397.31726517 236.56110382 398.43921783 236.57142639 399.59516907 236.58206177 C400.63602158 236.58221283 401.67687408 236.58236389 402.74926758 236.58251953 C403.66638016 236.58696075 404.58349274 236.59140198 405.52839661 236.59597778 C408.1355401 236.51089748 408.1355401 236.51089748 410.86328125 234.35546875 C411.97673094 231.01511968 411.99699937 228.49901037 412.00854492 224.97900391 C412.01492477 223.65977936 412.02130463 222.34055481 412.02787781 220.98135376 C412.02940787 219.53574663 412.03052109 218.09013901 412.03125 216.64453125 C412.03446606 215.15538501 412.03783039 213.66623909 412.04133606 212.17709351 C412.04732951 209.04823069 412.04917608 205.91939549 412.04858398 202.79052734 C412.04848313 198.81562252 412.0620542 194.84089942 412.07935619 190.86603737 C412.09058391 187.78416157 412.09249981 184.70232794 412.09197426 181.62043381 C412.09314135 180.15747841 412.09749016 178.69452144 412.10530663 177.23158646 C412.19990383 157.67329228 409.56316032 139.31803962 395.61328125 124.60546875 C384.17505443 113.77829912 369.76568587 108.95139082 354.140625 109.14453125 C337.82998374 110.19432223 324.91621158 117.32760746 314.0859375 129.32421875 Z M229.86328125 209.35546875 C220.69287214 219.94084333 216.79049604 233.02144437 216.6862793 246.85791016 C216.6797081 247.58387894 216.6731369 248.30984772 216.66636658 249.05781555 C216.64678222 251.44088871 216.63501032 253.8238996 216.625 256.20703125 C216.62092447 257.02397839 216.61684895 257.84092552 216.61264992 258.68262863 C216.59186214 262.99902843 216.57752376 267.31539705 216.56811523 271.63183594 C216.55700873 276.08859991 216.52254001 280.5448704 216.48294353 285.00145912 C216.45683164 288.43296245 216.44842874 291.86434645 216.44483376 295.2959404 C216.43996116 296.93940984 216.42832798 298.58287371 216.40979576 300.22624588 C216.38549738 302.52184054 216.38635039 304.81613306 216.39331055 307.11181641 C216.38744431 308.41720367 216.38157806 309.72259094 216.37553406 311.0675354 C216.62451403 314.37907413 216.62451403 314.37907413 218.50282288 316.77981567 C221.55925884 318.82004768 223.43756958 318.83887444 227.10058594 318.80957031 C228.99209381 318.80911713 228.99209381 318.80911713 230.92181396 318.80865479 C232.29293451 318.7882298 233.66404858 318.76736584 235.03515625 318.74609375 C236.44190669 318.73862992 237.84866756 318.73293765 239.25543213 318.72894287 C242.95136407 318.71369735 246.64666352 318.67442606 250.34234619 318.63012695 C254.1161646 318.58915018 257.89008557 318.57092679 261.6640625 318.55078125 C269.06408989 318.50792974 276.46359682 318.4396928 283.86328125 318.35546875 C282.54227555 314.28623804 281.07199091 310.58882893 279.078125 306.80078125 C278.54767578 305.77339844 278.01722656 304.74601562 277.47070312 303.6875 C276.35978417 301.55401587 275.24261361 299.42377507 274.11914062 297.296875 C271.16393272 291.54483818 268.96589079 286.87117481 268.86328125 280.35546875 C270.52653638 275.19062387 272.88524458 270.13975085 277.6953125 267.2578125 C283.39578061 264.88518523 288.84211857 265.53081688 294.47265625 267.828125 C297.09973083 269.11207456 299.66476948 270.49444103 302.22949219 271.89794922 C307.03805528 274.48624356 311.95011885 276.82513816 316.89453125 279.140625 C317.76239258 279.5492981 318.63025391 279.95797119 319.52441406 280.37902832 C321.63642193 281.37321384 323.74937731 282.36532291 325.86328125 283.35546875 C325.93815872 277.32725657 325.99222312 271.29932279 326.02807617 265.27075195 C326.04304293 263.2254565 326.06342364 261.18019247 326.08959961 259.13500977 C326.33903346 239.12650213 324.88687794 221.80750931 310.26953125 206.60546875 C298.08108758 195.20848246 284.19319793 190.98371981 267.7421875 191.14453125 C252.84802962 191.95448545 239.99463168 198.53814146 229.86328125 209.35546875 Z " fill="#000000" transform="translate(39.13671875,-0.35546875)"/>
</svg>
